<svg width="16" height="16" viewBox="0 0 16 16" fill="none" xmlns="http://www.w3.org/2000/svg">
<path fill-rule="evenodd" clip-rule="evenodd" d="M0.969697 0C0.434148 0 0 0.434149 0 0.969698V9.69697C0 10.2325 0.434149 10.6667 0.969698 10.6667H5.33334V15.0303C5.33334 15.5659 5.76749 16 6.30304 16H15.0303C15.5659 16 16 15.5659 16 15.0303V6.30303C16 5.76748 15.5659 5.33334 15.0303 5.33334H10.6667V0.969697C10.6667 0.434148 10.2325 0 9.69697 0H0.969697ZM10.6667 5.33334H6.30304C5.76749 5.33334 5.33334 5.76748 5.33334 6.30303V10.6667H9.69697C10.2325 10.6667 10.6667 10.2325 10.6667 9.69697V5.33334Z" fill="#0C0C0C"/>
</svg>
