<svg width="401" height="346" viewBox="0 0 401 346" fill="none" xmlns="http://www.w3.org/2000/svg">
<rect x="72" width="329" height="118" rx="13.913" fill="white" fill-opacity="0.08"/>
<rect y="58" width="386" height="287.191" rx="13.5736" fill="white"/>
<path d="M32.9311 94.2588V80.7952H34.4664V94.5737H31.4548L24.3687 81.1298V94.5737H22.8334V80.7952H25.845L32.9311 94.2588ZM41.5197 84.417C43.055 84.417 44.3148 84.9616 45.299 86.0507C46.2963 87.1268 46.7359 88.4587 46.6178 90.0465H37.8586C37.9635 91.0438 38.3638 91.864 39.0593 92.507C39.7679 93.1368 40.6274 93.4518 41.6378 93.4518C42.412 93.4518 43.101 93.2615 43.7046 92.8809C44.3082 92.5004 44.7675 91.9821 45.0824 91.3259L46.3422 91.8574C45.9223 92.7366 45.299 93.4452 44.4722 93.9832C43.6455 94.5081 42.6942 94.7706 41.6181 94.7706C40.1353 94.7706 38.8887 94.2785 37.8782 93.2943C36.8809 92.297 36.3823 91.0635 36.3823 89.5938C36.3823 88.1241 36.8744 86.8971 37.8586 85.9129C38.8427 84.9156 40.0631 84.417 41.5197 84.417ZM41.5197 85.7358C40.6143 85.7358 39.8269 86.0245 39.1577 86.6019C38.4884 87.1793 38.0685 87.9207 37.8979 88.8261H45.1218C44.9775 87.9338 44.5707 87.1989 43.9014 86.6215C43.2453 86.031 42.4514 85.7358 41.5197 85.7358ZM58.7774 94.1801L61.5725 84.6138H63.0094L59.9781 94.5737H57.5374L54.9785 85.0469L52.3999 94.5737H49.9592L46.9279 84.6138H48.4042L51.1992 94.1407L53.6597 84.6138H56.317L58.7774 94.1801ZM82.6477 94.5737H80.9943L79.5574 90.9126H72.0776L70.6407 94.5737H69.0463L74.4987 80.7952H77.1953L82.6477 94.5737ZM75.8175 81.307L72.6091 89.515H79.0259L75.8175 81.307ZM83.4518 90.4992V84.6138H84.928V90.4992C84.928 91.3522 85.2036 92.0477 85.7547 92.5857C86.3059 93.1237 87.0014 93.3927 87.8412 93.3927C88.681 93.3927 89.3765 93.1237 89.9277 92.5857C90.4788 92.0477 90.7544 91.3522 90.7544 90.4992V84.6138H92.2306V90.4992C92.2306 91.759 91.8173 92.7891 90.9906 93.5895C90.1639 94.3769 89.1141 94.7706 87.8412 94.7706C86.5683 94.7706 85.5185 94.3769 84.6918 93.5895C83.8651 92.7891 83.4518 91.759 83.4518 90.4992ZM102.941 87.5073V80.0079H104.417V94.5737H102.941V91.6802C102.6 92.6251 102.055 93.3796 101.307 93.9439C100.559 94.495 99.6933 94.7706 98.7091 94.7706C97.3575 94.7706 96.229 94.2785 95.3235 93.2943C94.4312 92.3101 93.9851 91.0766 93.9851 89.5938C93.9851 88.1241 94.4312 86.8971 95.3235 85.9129C96.229 84.9156 97.3575 84.417 98.7091 84.417C99.6933 84.417 100.559 84.6991 101.307 85.2634C102.055 85.8145 102.6 86.5625 102.941 87.5073ZM99.1225 93.3927C100.225 93.3927 101.137 93.0318 101.858 92.3101C102.58 91.5884 102.941 90.6829 102.941 89.5938C102.941 88.5046 102.58 87.5992 101.858 86.8774C101.137 86.1557 100.225 85.7948 99.1225 85.7948C98.1121 85.7948 97.2525 86.1623 96.5439 86.8971C95.8484 87.6189 95.5007 88.5177 95.5007 89.5938C95.5007 90.6698 95.8484 91.5753 96.5439 92.3101C97.2525 93.0318 98.1121 93.3927 99.1225 93.3927ZM106.509 81.6613C106.509 81.3857 106.601 81.1561 106.785 80.9724C106.969 80.7886 107.198 80.6968 107.474 80.6968C107.736 80.6968 107.959 80.7886 108.143 80.9724C108.34 81.1561 108.438 81.3857 108.438 81.6613C108.438 81.9237 108.34 82.1468 108.143 82.3305C107.959 82.5142 107.736 82.6061 107.474 82.6061C107.198 82.6061 106.969 82.5142 106.785 82.3305C106.601 82.1468 106.509 81.9237 106.509 81.6613ZM108.202 94.5737H106.726V84.6138H108.202V94.5737ZM111.976 85.9523H109.732V84.6138H111.976V81.0511L113.452 80.5984V84.6138H116.483V85.9523H113.452V91.1881C113.452 91.923 113.609 92.4479 113.924 92.7628C114.239 93.0778 114.758 93.2352 115.479 93.2352H116.483V94.5737H115.479C114.285 94.5737 113.399 94.2916 112.822 93.7273C112.258 93.1631 111.976 92.297 111.976 91.1291V85.9523ZM119.028 93.2943C118.031 92.297 117.532 91.0635 117.532 89.5938C117.532 88.1241 118.031 86.8971 119.028 85.9129C120.039 84.9156 121.285 84.417 122.768 84.417C124.251 84.417 125.491 84.9156 126.488 85.9129C127.499 86.8971 128.004 88.1241 128.004 89.5938C128.004 91.0635 127.499 92.297 126.488 93.2943C125.491 94.2785 124.251 94.7706 122.768 94.7706C121.285 94.7706 120.039 94.2785 119.028 93.2943ZM120.111 86.8971C119.402 87.6189 119.048 88.5177 119.048 89.5938C119.048 90.6698 119.402 91.5753 120.111 92.3101C120.833 93.0318 121.718 93.3927 122.768 93.3927C123.831 93.3927 124.717 93.0318 125.425 92.3101C126.134 91.5884 126.488 90.6829 126.488 89.5938C126.488 88.5046 126.134 87.5992 125.425 86.8774C124.717 86.1557 123.831 85.7948 122.768 85.7948C121.718 85.7948 120.833 86.1623 120.111 86.8971ZM131.403 84.6138V87.2908C131.745 86.1491 132.269 85.3552 132.978 84.9091C133.7 84.4629 134.527 84.3251 135.458 84.4957V85.9326C134.343 85.6833 133.385 85.8539 132.584 86.4444C131.797 87.0218 131.403 87.8354 131.403 88.8852V94.5737H129.927V84.6138H131.403ZM136.695 81.6613C136.695 81.3857 136.787 81.1561 136.97 80.9724C137.154 80.7886 137.384 80.6968 137.659 80.6968C137.922 80.6968 138.145 80.7886 138.328 80.9724C138.525 81.1561 138.624 81.3857 138.624 81.6613C138.624 81.9237 138.525 82.1468 138.328 82.3305C138.145 82.5142 137.922 82.6061 137.659 82.6061C137.384 82.6061 137.154 82.5142 136.97 82.3305C136.787 82.1468 136.695 81.9237 136.695 81.6613ZM138.387 94.5737H136.911V84.6138H138.387V94.5737ZM140.606 90.4992V84.6138H142.082V90.4992C142.082 91.3522 142.358 92.0477 142.909 92.5857C143.46 93.1237 144.156 93.3927 144.995 93.3927C145.835 93.3927 146.531 93.1237 147.082 92.5857C147.633 92.0477 147.909 91.3522 147.909 90.4992V84.6138H149.385V90.4992C149.385 91.759 148.972 92.7891 148.145 93.5895C147.318 94.3769 146.268 94.7706 144.995 94.7706C143.723 94.7706 142.673 94.3769 141.846 93.5895C141.019 92.7891 140.606 91.759 140.606 90.4992ZM163.301 84.417C164.351 84.417 165.217 84.8238 165.9 85.6374C166.595 86.451 166.943 87.4745 166.943 88.708V94.5737H165.467V88.8852C165.467 88.006 165.211 87.2711 164.699 86.6806C164.187 86.077 163.564 85.7752 162.829 85.7752C162.015 85.7752 161.34 86.0704 160.802 86.6609C160.277 87.2514 160.014 87.9928 160.014 88.8852V94.5737H158.538V88.8852C158.538 88.006 158.282 87.2711 157.77 86.6806C157.272 86.077 156.655 85.7752 155.92 85.7752C155.107 85.7752 154.431 86.0704 153.893 86.6609C153.368 87.2514 153.105 87.9928 153.105 88.8852V94.5737H151.629V84.6138H153.105V87.094C153.381 86.2804 153.807 85.6308 154.385 85.1453C154.975 84.6597 155.651 84.417 156.412 84.417C157.239 84.417 157.954 84.6794 158.558 85.2043C159.161 85.7292 159.581 86.4247 159.817 87.2908C160.054 86.4247 160.48 85.7292 161.097 85.2043C161.727 84.6794 162.462 84.417 163.301 84.417Z" fill="#101840"/>
<path d="M34.5496 127.574H30.5976V116.374H34.5496C36.1603 116.374 37.5043 116.912 38.5816 117.99C39.6696 119.056 40.2136 120.384 40.2136 121.974C40.2136 123.563 39.6696 124.896 38.5816 125.974C37.5043 127.04 36.1603 127.574 34.5496 127.574ZM31.8456 117.51V126.438H34.4696C35.7496 126.438 36.811 126.011 37.6536 125.158C38.507 124.304 38.9336 123.243 38.9336 121.974C38.9336 120.694 38.507 119.632 37.6536 118.79C36.811 117.936 35.7496 117.51 34.4696 117.51H31.8456ZM41.5604 117.078C41.5604 116.854 41.635 116.667 41.7844 116.518C41.9337 116.368 42.1204 116.294 42.3444 116.294C42.5577 116.294 42.739 116.368 42.8884 116.518C43.0484 116.667 43.1284 116.854 43.1284 117.078C43.1284 117.291 43.0484 117.472 42.8884 117.622C42.739 117.771 42.5577 117.846 42.3444 117.846C42.1204 117.846 41.9337 117.771 41.7844 117.622C41.635 117.472 41.5604 117.291 41.5604 117.078ZM42.9364 127.574H41.7364V119.478H42.9364V127.574ZM44.3013 125.478L45.5173 125.238C45.688 126.23 46.3866 126.726 47.6133 126.726C48.232 126.726 48.7333 126.603 49.1173 126.358C49.512 126.102 49.7093 125.776 49.7093 125.382C49.7093 124.976 49.528 124.667 49.1653 124.454C48.8133 124.24 48.3866 124.091 47.8853 124.006C47.384 123.91 46.8773 123.808 46.3653 123.702C45.864 123.584 45.432 123.36 45.0693 123.03C44.7173 122.699 44.5413 122.246 44.5413 121.67C44.5413 120.987 44.8293 120.427 45.4053 119.99C45.9813 119.542 46.7173 119.318 47.6133 119.318C48.488 119.318 49.2026 119.52 49.7573 119.926C50.312 120.331 50.6533 120.88 50.7813 121.574L49.5813 121.814C49.4 120.832 48.744 120.342 47.6133 120.342C47.0693 120.342 46.6213 120.459 46.2693 120.694C45.9173 120.928 45.7413 121.238 45.7413 121.622C45.7413 121.995 45.9173 122.283 46.2693 122.486C46.632 122.678 47.064 122.816 47.5653 122.902C48.0773 122.987 48.584 123.094 49.0853 123.222C49.5973 123.339 50.0293 123.574 50.3813 123.926C50.744 124.278 50.9253 124.752 50.9253 125.35C50.9253 126.043 50.6106 126.614 49.9813 127.062C49.352 127.51 48.5626 127.734 47.6133 127.734C46.696 127.734 45.944 127.531 45.3573 127.126C44.7813 126.72 44.4293 126.171 44.3013 125.478ZM56.935 119.318C58.0337 119.318 58.9457 119.723 59.671 120.534C60.407 121.334 60.775 122.331 60.775 123.526C60.775 124.731 60.407 125.734 59.671 126.534C58.9457 127.334 58.0337 127.734 56.935 127.734C56.135 127.734 55.4257 127.504 54.807 127.046C54.199 126.576 53.7617 125.958 53.495 125.19V127.574H52.295V115.734H53.495V121.878C53.7617 121.099 54.199 120.48 54.807 120.022C55.4257 119.552 56.135 119.318 56.935 119.318ZM56.599 126.614C57.431 126.614 58.1297 126.32 58.695 125.734C59.2604 125.136 59.543 124.4 59.543 123.526C59.543 122.651 59.2604 121.92 58.695 121.334C58.1297 120.736 57.431 120.438 56.599 120.438C55.703 120.438 54.9617 120.731 54.375 121.318C53.7884 121.904 53.495 122.64 53.495 123.526C53.495 124.411 53.7884 125.147 54.375 125.734C54.9617 126.32 55.703 126.614 56.599 126.614ZM62.135 124.262V119.478H63.335V124.262C63.335 124.955 63.559 125.52 64.007 125.958C64.455 126.395 65.0203 126.614 65.703 126.614C66.3857 126.614 66.951 126.395 67.399 125.958C67.847 125.52 68.071 124.955 68.071 124.262V119.478H69.271V124.262C69.271 125.286 68.935 126.123 68.263 126.774C67.591 127.414 66.7377 127.734 65.703 127.734C64.6683 127.734 63.815 127.414 63.143 126.774C62.471 126.123 62.135 125.286 62.135 124.262ZM72.2568 119.478V121.654C72.5342 120.726 72.9608 120.08 73.5368 119.718C74.1235 119.355 74.7955 119.243 75.5528 119.382V120.55C74.6462 120.347 73.8675 120.486 73.2168 120.966C72.5768 121.435 72.2568 122.096 72.2568 122.95V127.574H71.0568V119.478H72.2568ZM75.8249 125.478L77.0409 125.238C77.2116 126.23 77.9102 126.726 79.1369 126.726C79.7556 126.726 80.2569 126.603 80.6409 126.358C81.0356 126.102 81.2329 125.776 81.2329 125.382C81.2329 124.976 81.0516 124.667 80.6889 124.454C80.3369 124.24 79.9102 124.091 79.4089 124.006C78.9076 123.91 78.4009 123.808 77.8889 123.702C77.3876 123.584 76.9556 123.36 76.5929 123.03C76.2409 122.699 76.0649 122.246 76.0649 121.67C76.0649 120.987 76.3529 120.427 76.9289 119.99C77.5049 119.542 78.2409 119.318 79.1369 119.318C80.0116 119.318 80.7262 119.52 81.2809 119.926C81.8356 120.331 82.1769 120.88 82.3049 121.574L81.1049 121.814C80.9236 120.832 80.2676 120.342 79.1369 120.342C78.5929 120.342 78.1449 120.459 77.7929 120.694C77.4409 120.928 77.2649 121.238 77.2649 121.622C77.2649 121.995 77.4409 122.283 77.7929 122.486C78.1556 122.678 78.5876 122.816 79.0889 122.902C79.6009 122.987 80.1076 123.094 80.6089 123.222C81.1209 123.339 81.5529 123.574 81.9049 123.926C82.2676 124.278 82.4489 124.752 82.4489 125.35C82.4489 126.043 82.1342 126.614 81.5049 127.062C80.8756 127.51 80.0862 127.734 79.1369 127.734C78.2196 127.734 77.4676 127.531 76.8809 127.126C76.3049 126.72 75.9529 126.171 75.8249 125.478ZM87.6746 119.318C88.9226 119.318 89.9466 119.76 90.7466 120.646C91.5573 121.52 91.9146 122.603 91.8186 123.894H84.6986C84.784 124.704 85.1093 125.371 85.6746 125.894C86.2506 126.406 86.9493 126.662 87.7706 126.662C88.4 126.662 88.96 126.507 89.4506 126.198C89.9413 125.888 90.3146 125.467 90.5706 124.934L91.5946 125.366C91.2533 126.08 90.7466 126.656 90.0746 127.094C89.4026 127.52 88.6293 127.734 87.7546 127.734C86.5493 127.734 85.536 127.334 84.7146 126.534C83.904 125.723 83.4986 124.72 83.4986 123.526C83.4986 122.331 83.8986 121.334 84.6986 120.534C85.4986 119.723 86.4906 119.318 87.6746 119.318ZM87.6746 120.39C86.9386 120.39 86.2986 120.624 85.7546 121.094C85.2106 121.563 84.8693 122.166 84.7306 122.902H90.6026C90.4853 122.176 90.1546 121.579 89.6106 121.11C89.0773 120.63 88.432 120.39 87.6746 120.39ZM102.867 119.318C103.721 119.318 104.425 119.648 104.979 120.31C105.545 120.971 105.827 121.803 105.827 122.806V127.574H104.627V122.95C104.627 122.235 104.419 121.638 104.003 121.158C103.587 120.667 103.081 120.422 102.483 120.422C101.822 120.422 101.273 120.662 100.835 121.142C100.409 121.622 100.195 122.224 100.195 122.95V127.574H98.9952V122.95C98.9952 122.235 98.7872 121.638 98.3712 121.158C97.9659 120.667 97.4645 120.422 96.8672 120.422C96.2059 120.422 95.6565 120.662 95.2192 121.142C94.7925 121.622 94.5792 122.224 94.5792 122.95V127.574H93.3792V119.478H94.5792V121.494C94.8032 120.832 95.1499 120.304 95.6192 119.91C96.0992 119.515 96.6485 119.318 97.2672 119.318C97.9392 119.318 98.5205 119.531 99.0112 119.958C99.5019 120.384 99.8432 120.95 100.035 121.654C100.227 120.95 100.574 120.384 101.075 119.958C101.587 119.531 102.185 119.318 102.867 119.318ZM111.452 119.318C112.7 119.318 113.724 119.76 114.524 120.646C115.335 121.52 115.692 122.603 115.596 123.894H108.476C108.561 124.704 108.887 125.371 109.452 125.894C110.028 126.406 110.727 126.662 111.548 126.662C112.177 126.662 112.737 126.507 113.228 126.198C113.719 125.888 114.092 125.467 114.348 124.934L115.372 125.366C115.031 126.08 114.524 126.656 113.852 127.094C113.18 127.52 112.407 127.734 111.532 127.734C110.327 127.734 109.313 127.334 108.492 126.534C107.681 125.723 107.276 124.72 107.276 123.526C107.276 122.331 107.676 121.334 108.476 120.534C109.276 119.723 110.268 119.318 111.452 119.318ZM111.452 120.39C110.716 120.39 110.076 120.624 109.532 121.094C108.988 121.563 108.647 122.166 108.508 122.902H114.38C114.263 122.176 113.932 121.579 113.388 121.11C112.855 120.63 112.209 120.39 111.452 120.39ZM121.349 119.318C122.298 119.318 123.077 119.648 123.685 120.31C124.303 120.971 124.613 121.803 124.613 122.806V127.574H123.413V122.95C123.413 122.235 123.178 121.638 122.709 121.158C122.239 120.667 121.658 120.422 120.965 120.422C120.207 120.422 119.583 120.662 119.093 121.142C118.602 121.622 118.357 122.224 118.357 122.95V127.574H117.157V119.478H118.357V121.558C118.581 120.875 118.959 120.331 119.493 119.926C120.026 119.52 120.645 119.318 121.349 119.318ZM127.167 120.566H125.343V119.478H127.167V116.582L128.367 116.214V119.478H130.831V120.566H128.367V124.822C128.367 125.419 128.495 125.846 128.751 126.102C129.007 126.358 129.428 126.486 130.015 126.486H130.831V127.574H130.015C129.044 127.574 128.324 127.344 127.855 126.886C127.396 126.427 127.167 125.723 127.167 124.774V120.566ZM138.196 127.574H136.948V116.374H138.196V121.414H145.06V116.374H146.308V127.574H145.06V122.534H138.196V127.574ZM147.973 117.078C147.973 116.854 148.048 116.667 148.197 116.518C148.346 116.368 148.533 116.294 148.757 116.294C148.97 116.294 149.152 116.368 149.301 116.518C149.461 116.667 149.541 116.854 149.541 117.078C149.541 117.291 149.461 117.472 149.301 117.622C149.152 117.771 148.97 117.846 148.757 117.846C148.533 117.846 148.346 117.771 148.197 117.622C148.048 117.472 147.973 117.291 147.973 117.078ZM149.349 127.574H148.149V119.478H149.349V127.574ZM150.714 125.478L151.93 125.238C152.101 126.23 152.799 126.726 154.026 126.726C154.645 126.726 155.146 126.603 155.53 126.358C155.925 126.102 156.122 125.776 156.122 125.382C156.122 124.976 155.941 124.667 155.578 124.454C155.226 124.24 154.799 124.091 154.298 124.006C153.797 123.91 153.29 123.808 152.778 123.702C152.277 123.584 151.845 123.36 151.482 123.03C151.13 122.699 150.954 122.246 150.954 121.67C150.954 120.987 151.242 120.427 151.818 119.99C152.394 119.542 153.13 119.318 154.026 119.318C154.901 119.318 155.615 119.52 156.17 119.926C156.725 120.331 157.066 120.88 157.194 121.574L155.994 121.814C155.813 120.832 155.157 120.342 154.026 120.342C153.482 120.342 153.034 120.459 152.682 120.694C152.33 120.928 152.154 121.238 152.154 121.622C152.154 121.995 152.33 122.283 152.682 122.486C153.045 122.678 153.477 122.816 153.978 122.902C154.49 122.987 154.997 123.094 155.498 123.222C156.01 123.339 156.442 123.574 156.794 123.926C157.157 124.278 157.338 124.752 157.338 125.35C157.338 126.043 157.023 126.614 156.394 127.062C155.765 127.51 154.975 127.734 154.026 127.734C153.109 127.734 152.357 127.531 151.77 127.126C151.194 126.72 150.842 126.171 150.714 125.478ZM159.642 120.566H157.818V119.478H159.642V116.582L160.842 116.214V119.478H163.306V120.566H160.842V124.822C160.842 125.419 160.97 125.846 161.226 126.102C161.482 126.358 161.903 126.486 162.49 126.486H163.306V127.574H162.49C161.519 127.574 160.799 127.344 160.33 126.886C159.871 126.427 159.642 125.723 159.642 124.774V120.566ZM165.336 126.534C164.525 125.723 164.12 124.72 164.12 123.526C164.12 122.331 164.525 121.334 165.336 120.534C166.157 119.723 167.171 119.318 168.376 119.318C169.581 119.318 170.589 119.723 171.4 120.534C172.221 121.334 172.632 122.331 172.632 123.526C172.632 124.72 172.221 125.723 171.4 126.534C170.589 127.334 169.581 127.734 168.376 127.734C167.171 127.734 166.157 127.334 165.336 126.534ZM166.216 121.334C165.64 121.92 165.352 122.651 165.352 123.526C165.352 124.4 165.64 125.136 166.216 125.734C166.803 126.32 167.523 126.614 168.376 126.614C169.24 126.614 169.96 126.32 170.536 125.734C171.112 125.147 171.4 124.411 171.4 123.526C171.4 122.64 171.112 121.904 170.536 121.318C169.96 120.731 169.24 120.438 168.376 120.438C167.523 120.438 166.803 120.736 166.216 121.334ZM175.357 119.478V121.654C175.634 120.726 176.061 120.08 176.637 119.718C177.224 119.355 177.896 119.243 178.653 119.382V120.55C177.746 120.347 176.968 120.486 176.317 120.966C175.677 121.435 175.357 122.096 175.357 122.95V127.574H174.157V119.478H175.357ZM182.822 127.222L185.686 119.478H186.918L182.726 130.774H181.494L182.694 127.574H181.75L178.726 119.478H180.038L182.822 127.222Z" fill="#696F8C"/>
<mask id="path-5-inside-1_20_1057" fill="white">
<path d="M13.5736 154.574H328.312V213.588H13.5736V154.574Z"/>
</mask>
<path d="M13.5736 154.574H328.312V213.588H13.5736V154.574Z" fill="white"/>
<rect x="26.696" y="167.696" width="32.7696" height="32.7696" rx="16.3848" fill="#F9DADA"/>
<path d="M46.4802 185.537L46.4802 180.682L41.6252 180.682" stroke="#A73636" stroke-width="1.27253" stroke-miterlimit="10" stroke-linecap="round" stroke-linejoin="round"/>
<path d="M39.6816 187.48L46.4122 180.75" stroke="#A73636" stroke-width="1.27253" stroke-miterlimit="10" stroke-linecap="round" stroke-linejoin="round"/>
<path d="M72.9139 178.08H79.3613V178.935L77.7732 182.355H79.3613V183.305H77.3253L75.33 187.581H74.1626L76.1851 183.305H72.9139V182.355H76.633L78.194 179.043H72.9139V178.08ZM81.4656 186.319C80.7507 185.387 80.3933 184.224 80.3933 182.83C80.3933 181.437 80.7507 180.274 81.4656 179.342C82.1805 178.41 83.0809 177.944 84.1668 177.944C85.2617 177.944 86.1621 178.41 86.8679 179.342C87.5828 180.265 87.9402 181.428 87.9402 182.83C87.9402 184.233 87.5828 185.4 86.8679 186.332C86.1621 187.255 85.2617 187.717 84.1668 187.717C83.0809 187.717 82.1805 187.251 81.4656 186.319ZM82.2393 180.034C81.7326 180.776 81.4792 181.708 81.4792 182.83C81.4792 183.952 81.7326 184.884 82.2393 185.626C82.7461 186.368 83.3886 186.739 84.1668 186.739C84.945 186.739 85.5875 186.368 86.0942 185.626C86.601 184.884 86.8544 183.952 86.8544 182.83C86.8544 181.708 86.601 180.776 86.0942 180.034C85.5875 179.292 84.945 178.921 84.1668 178.921C83.3886 178.921 82.7461 179.292 82.2393 180.034ZM90.0887 186.319C89.3739 185.387 89.0164 184.224 89.0164 182.83C89.0164 181.437 89.3739 180.274 90.0887 179.342C90.8036 178.41 91.704 177.944 92.7899 177.944C93.8848 177.944 94.7852 178.41 95.4911 179.342C96.2059 180.265 96.5634 181.428 96.5634 182.83C96.5634 184.233 96.2059 185.4 95.4911 186.332C94.7852 187.255 93.8848 187.717 92.7899 187.717C91.704 187.717 90.8036 187.251 90.0887 186.319ZM90.8624 180.034C90.3557 180.776 90.1023 181.708 90.1023 182.83C90.1023 183.952 90.3557 184.884 90.8624 185.626C91.3692 186.368 92.0117 186.739 92.7899 186.739C93.5681 186.739 94.2106 186.368 94.7174 185.626C95.2241 184.884 95.4775 183.952 95.4775 182.83C95.4775 181.708 95.2241 180.776 94.7174 180.034C94.2106 179.292 93.5681 178.921 92.7899 178.921C92.0117 178.921 91.3692 179.292 90.8624 180.034ZM97.8549 186.264C98.1716 186.264 98.4295 186.396 98.6286 186.658C98.8277 186.911 98.9272 187.224 98.9272 187.595C98.9272 188.518 98.4884 189.219 97.6106 189.699L97.1084 189.115C97.5065 188.898 97.778 188.644 97.9228 188.355C98.0766 188.065 98.1174 187.812 98.045 187.595C97.8368 187.667 97.6332 187.644 97.4341 187.527C97.2351 187.409 97.1355 187.224 97.1355 186.97C97.1355 186.771 97.2034 186.604 97.3391 186.468C97.4839 186.332 97.6558 186.264 97.8549 186.264ZM100.177 186.319C99.4621 185.387 99.1047 184.224 99.1047 182.83C99.1047 181.437 99.4621 180.274 100.177 179.342C100.892 178.41 101.792 177.944 102.878 177.944C103.973 177.944 104.873 178.41 105.579 179.342C106.294 180.265 106.652 181.428 106.652 182.83C106.652 184.233 106.294 185.4 105.579 186.332C104.873 187.255 103.973 187.717 102.878 187.717C101.792 187.717 100.892 187.251 100.177 186.319ZM100.951 180.034C100.444 180.776 100.191 181.708 100.191 182.83C100.191 183.952 100.444 184.884 100.951 185.626C101.457 186.368 102.1 186.739 102.878 186.739C103.656 186.739 104.299 186.368 104.806 185.626C105.312 184.884 105.566 183.952 105.566 182.83C105.566 181.708 105.312 180.776 104.806 180.034C104.299 179.292 103.656 178.921 102.878 178.921C102.1 178.921 101.457 179.292 100.951 180.034ZM108.8 186.319C108.085 185.387 107.728 184.224 107.728 182.83C107.728 181.437 108.085 180.274 108.8 179.342C109.515 178.41 110.415 177.944 111.501 177.944C112.596 177.944 113.497 178.41 114.202 179.342C114.917 180.265 115.275 181.428 115.275 182.83C115.275 184.233 114.917 185.4 114.202 186.332C113.497 187.255 112.596 187.717 111.501 187.717C110.415 187.717 109.515 187.251 108.8 186.319ZM109.574 180.034C109.067 180.776 108.814 181.708 108.814 182.83C108.814 183.952 109.067 184.884 109.574 185.626C110.081 186.368 110.723 186.739 111.501 186.739C112.28 186.739 112.922 186.368 113.429 185.626C113.936 184.884 114.189 183.952 114.189 182.83C114.189 181.708 113.936 180.776 113.429 180.034C112.922 179.292 112.28 178.921 111.501 178.921C110.723 178.921 110.081 179.292 109.574 180.034ZM117.423 186.319C116.708 185.387 116.351 184.224 116.351 182.83C116.351 181.437 116.708 180.274 117.423 179.342C118.138 178.41 119.039 177.944 120.124 177.944C121.219 177.944 122.12 178.41 122.826 179.342C123.54 180.265 123.898 181.428 123.898 182.83C123.898 184.233 123.54 185.4 122.826 186.332C122.12 187.255 121.219 187.717 120.124 187.717C119.039 187.717 118.138 187.251 117.423 186.319ZM118.197 180.034C117.69 180.776 117.437 181.708 117.437 182.83C117.437 183.952 117.69 184.884 118.197 185.626C118.704 186.368 119.346 186.739 120.124 186.739C120.903 186.739 121.545 186.368 122.052 185.626C122.559 184.884 122.812 183.952 122.812 182.83C122.812 181.708 122.559 180.776 122.052 180.034C121.545 179.292 120.903 178.921 120.124 178.921C119.346 178.921 118.704 179.292 118.197 180.034ZM128.753 185.803L129.784 185.599C129.929 186.441 130.522 186.862 131.562 186.862C132.087 186.862 132.512 186.758 132.838 186.549C133.173 186.332 133.34 186.056 133.34 185.721C133.34 185.378 133.187 185.115 132.879 184.934C132.58 184.753 132.218 184.627 131.793 184.554C131.368 184.473 130.938 184.387 130.504 184.296C130.078 184.197 129.712 184.007 129.404 183.726C129.105 183.446 128.956 183.061 128.956 182.572C128.956 181.993 129.201 181.518 129.689 181.147C130.178 180.767 130.802 180.577 131.562 180.577C132.304 180.577 132.911 180.749 133.381 181.093C133.852 181.437 134.141 181.903 134.25 182.491L133.232 182.695C133.078 181.862 132.522 181.446 131.562 181.446C131.101 181.446 130.721 181.545 130.422 181.744C130.124 181.943 129.974 182.206 129.974 182.532C129.974 182.848 130.124 183.093 130.422 183.265C130.73 183.428 131.096 183.545 131.522 183.618C131.956 183.69 132.386 183.78 132.811 183.889C133.245 183.989 133.612 184.188 133.911 184.486C134.218 184.785 134.372 185.188 134.372 185.694C134.372 186.283 134.105 186.767 133.571 187.147C133.037 187.527 132.368 187.717 131.562 187.717C130.784 187.717 130.146 187.545 129.648 187.201C129.16 186.857 128.861 186.391 128.753 185.803ZM138.774 180.577C139.833 180.577 140.702 180.953 141.38 181.704C142.068 182.446 142.371 183.364 142.29 184.459H136.25C136.322 185.147 136.598 185.712 137.078 186.156C137.566 186.59 138.159 186.807 138.856 186.807C139.39 186.807 139.865 186.676 140.281 186.414C140.697 186.151 141.014 185.794 141.231 185.341L142.1 185.708C141.81 186.314 141.38 186.803 140.81 187.174C140.24 187.536 139.584 187.717 138.842 187.717C137.82 187.717 136.96 187.377 136.263 186.699C135.575 186.011 135.231 185.16 135.231 184.147C135.231 183.133 135.571 182.287 136.25 181.609C136.928 180.921 137.77 180.577 138.774 180.577ZM138.774 181.486C138.15 181.486 137.607 181.686 137.145 182.084C136.684 182.482 136.394 182.993 136.277 183.618H141.258C141.159 183.002 140.878 182.495 140.417 182.097C139.964 181.69 139.417 181.486 138.774 181.486ZM147.139 180.577C147.944 180.577 148.605 180.858 149.121 181.419C149.645 181.98 149.908 182.685 149.908 183.536V187.581H148.89V183.658C148.89 183.052 148.691 182.545 148.293 182.138C147.894 181.722 147.401 181.514 146.813 181.514C146.171 181.514 145.641 181.717 145.225 182.124C144.809 182.532 144.601 183.043 144.601 183.658V187.581H143.583V180.713H144.601V182.477C144.791 181.898 145.112 181.437 145.564 181.093C146.017 180.749 146.542 180.577 147.139 180.577ZM152.044 181.636H150.496V180.713H152.044V178.256L153.062 177.944V180.713H155.152V181.636H153.062V185.246C153.062 185.753 153.17 186.115 153.387 186.332C153.605 186.549 153.962 186.658 154.46 186.658H155.152V187.581H154.46C153.636 187.581 153.026 187.386 152.627 186.997C152.238 186.608 152.044 186.011 152.044 185.206V181.636ZM161.284 181.636H159.736V180.713H161.284V178.256L162.302 177.944V180.713H164.392V181.636H162.302V185.246C162.302 185.753 162.41 186.115 162.627 186.332C162.845 186.549 163.202 186.658 163.7 186.658H164.392V187.581H163.7C162.876 187.581 162.265 187.386 161.867 186.997C161.478 186.608 161.284 186.011 161.284 185.206V181.636ZM166.083 186.699C165.396 186.011 165.052 185.16 165.052 184.147C165.052 183.133 165.396 182.287 166.083 181.609C166.78 180.921 167.64 180.577 168.662 180.577C169.685 180.577 170.54 180.921 171.228 181.609C171.925 182.287 172.273 183.133 172.273 184.147C172.273 185.16 171.925 186.011 171.228 186.699C170.54 187.377 169.685 187.717 168.662 187.717C167.64 187.717 166.78 187.377 166.083 186.699ZM166.83 182.287C166.341 182.785 166.097 183.405 166.097 184.147C166.097 184.889 166.341 185.513 166.83 186.02C167.328 186.518 167.938 186.767 168.662 186.767C169.395 186.767 170.006 186.518 170.495 186.02C170.984 185.522 171.228 184.898 171.228 184.147C171.228 183.396 170.984 182.771 170.495 182.274C170.006 181.776 169.395 181.527 168.662 181.527C167.938 181.527 167.328 181.781 166.83 182.287ZM183.25 187.581H177.4V178.08H183.25V179.043H178.459V182.355H183.114V183.305H178.459V186.617H183.25V187.581ZM184.176 180.713H189.863V182.355L184.543 186.658H189.863V187.581H184.176V185.939L189.497 181.636H184.176V180.713ZM194.073 180.577C195.132 180.577 196.001 180.953 196.679 181.704C197.367 182.446 197.67 183.364 197.589 184.459H191.549C191.621 185.147 191.897 185.712 192.377 186.156C192.865 186.59 193.458 186.807 194.155 186.807C194.689 186.807 195.164 186.676 195.58 186.414C195.996 186.151 196.313 185.794 196.53 185.341L197.399 185.708C197.109 186.314 196.679 186.803 196.109 187.174C195.539 187.536 194.883 187.717 194.141 187.717C193.119 187.717 192.259 187.377 191.562 186.699C190.874 186.011 190.531 185.16 190.531 184.147C190.531 183.133 190.87 182.287 191.549 181.609C192.227 180.921 193.069 180.577 194.073 180.577ZM194.073 181.486C193.449 181.486 192.906 181.686 192.444 182.084C191.983 182.482 191.693 182.993 191.576 183.618H196.557C196.458 183.002 196.177 182.495 195.716 182.097C195.263 181.69 194.716 181.486 194.073 181.486ZM201.881 183.55L205.139 187.581H203.823L201.189 184.296L199.9 185.667V187.581H198.882V177.537H199.9V184.337L203.239 180.713H204.542L201.881 183.55ZM205.712 178.677C205.712 178.487 205.775 178.328 205.902 178.202C206.029 178.075 206.187 178.012 206.377 178.012C206.558 178.012 206.712 178.075 206.838 178.202C206.974 178.328 207.042 178.487 207.042 178.677C207.042 178.858 206.974 179.012 206.838 179.138C206.712 179.265 206.558 179.328 206.377 179.328C206.187 179.328 206.029 179.265 205.902 179.138C205.775 179.012 205.712 178.858 205.712 178.677ZM206.879 187.581H205.861V180.713H206.879V187.581ZM211.684 180.577C212.743 180.577 213.612 180.953 214.291 181.704C214.978 182.446 215.282 183.364 215.2 184.459H209.16C209.232 185.147 209.508 185.712 209.988 186.156C210.476 186.59 211.069 186.807 211.766 186.807C212.3 186.807 212.775 186.676 213.191 186.414C213.607 186.151 213.924 185.794 214.141 185.341L215.01 185.708C214.72 186.314 214.291 186.803 213.721 187.174C213.15 187.536 212.494 187.717 211.752 187.717C210.73 187.717 209.87 187.377 209.173 186.699C208.486 186.011 208.142 185.16 208.142 184.147C208.142 183.133 208.481 182.287 209.16 181.609C209.838 180.921 210.68 180.577 211.684 180.577ZM211.684 181.486C211.06 181.486 210.517 181.686 210.056 182.084C209.594 182.482 209.305 182.993 209.187 183.618H214.168C214.069 183.002 213.788 182.495 213.327 182.097C212.874 181.69 212.327 181.486 211.684 181.486ZM217.511 187.581H216.493V177.537H217.511V187.581ZM227.443 182.79C228.167 182.853 228.746 183.093 229.18 183.509C229.624 183.916 229.846 184.441 229.846 185.084C229.846 185.789 229.588 186.382 229.072 186.862C228.565 187.341 227.914 187.581 227.117 187.581H222.909V178.08H226.71C227.506 178.08 228.158 178.319 228.665 178.799C229.18 179.279 229.438 179.871 229.438 180.577C229.438 181.156 229.257 181.64 228.895 182.029C228.542 182.419 228.058 182.672 227.443 182.79ZM226.642 179.016H223.955V182.369H226.642C227.167 182.369 227.597 182.21 227.932 181.894C228.266 181.568 228.434 181.165 228.434 180.686C228.434 180.215 228.266 179.821 227.932 179.505C227.597 179.179 227.167 179.016 226.642 179.016ZM223.955 186.644H226.995C227.511 186.644 227.936 186.482 228.271 186.156C228.606 185.83 228.773 185.432 228.773 184.961C228.773 184.482 228.606 184.084 228.271 183.767C227.936 183.45 227.511 183.292 226.995 183.292H223.955V186.644ZM234.313 180.577C235.372 180.577 236.241 180.953 236.919 181.704C237.607 182.446 237.91 183.364 237.829 184.459H231.789C231.861 185.147 232.137 185.712 232.617 186.156C233.105 186.59 233.698 186.807 234.395 186.807C234.929 186.807 235.404 186.676 235.82 186.414C236.236 186.151 236.553 185.794 236.77 185.341L237.639 185.708C237.349 186.314 236.919 186.803 236.349 187.174C235.779 187.536 235.123 187.717 234.381 187.717C233.359 187.717 232.499 187.377 231.802 186.699C231.114 186.011 230.771 185.16 230.771 184.147C230.771 183.133 231.11 182.287 231.789 181.609C232.467 180.921 233.309 180.577 234.313 180.577ZM234.313 181.486C233.689 181.486 233.146 181.686 232.684 182.084C232.223 182.482 231.933 182.993 231.816 183.618H236.797C236.698 183.002 236.417 182.495 235.956 182.097C235.503 181.69 234.956 181.486 234.313 181.486ZM242.678 180.577C243.483 180.577 244.144 180.858 244.66 181.419C245.185 181.98 245.447 182.685 245.447 183.536V187.581H244.429V183.658C244.429 183.052 244.23 182.545 243.832 182.138C243.434 181.722 242.94 181.514 242.352 181.514C241.71 181.514 241.18 181.717 240.764 182.124C240.348 182.532 240.14 183.043 240.14 183.658V187.581H239.122V180.713H240.14V182.477C240.33 181.898 240.651 181.437 241.103 181.093C241.556 180.749 242.081 180.577 242.678 180.577ZM247.045 178.677C247.045 178.487 247.109 178.328 247.235 178.202C247.362 178.075 247.52 178.012 247.71 178.012C247.891 178.012 248.045 178.075 248.172 178.202C248.308 178.328 248.375 178.487 248.375 178.677C248.375 178.858 248.308 179.012 248.172 179.138C248.045 179.265 247.891 179.328 247.71 179.328C247.52 179.328 247.362 179.265 247.235 179.138C247.109 179.012 247.045 178.858 247.045 178.677ZM245.905 190.377V189.468C246.394 189.486 246.728 189.404 246.909 189.223C247.099 189.042 247.194 188.708 247.194 188.219V180.713H248.212V188.219C248.212 189.748 247.443 190.468 245.905 190.377ZM252.523 180.577C253.301 180.577 253.934 180.785 254.423 181.201C254.912 181.609 255.156 182.183 255.156 182.925V187.581H254.138V185.708C253.677 187.047 252.781 187.717 251.45 187.717C250.826 187.717 250.315 187.545 249.917 187.201C249.528 186.857 249.333 186.4 249.333 185.83C249.333 185.215 249.555 184.74 249.998 184.405C250.451 184.07 251.034 183.866 251.749 183.794L253.283 183.618C253.853 183.563 254.138 183.301 254.138 182.83C254.138 182.405 253.989 182.07 253.69 181.826C253.392 181.582 252.998 181.459 252.509 181.459C252.021 181.459 251.6 181.582 251.247 181.826C250.894 182.07 250.654 182.446 250.527 182.952L249.537 182.681C249.699 182.002 250.048 181.482 250.582 181.12C251.125 180.758 251.772 180.577 252.523 180.577ZM251.708 186.862C252.405 186.862 252.984 186.631 253.446 186.169C253.907 185.699 254.138 185.151 254.138 184.527V183.957C254.011 184.228 253.704 184.391 253.215 184.446L251.736 184.608C251.319 184.663 250.984 184.789 250.731 184.988C250.478 185.179 250.351 185.441 250.351 185.776C250.351 186.102 250.473 186.364 250.718 186.563C250.971 186.762 251.301 186.862 251.708 186.862ZM264.689 180.577C265.413 180.577 266.01 180.858 266.481 181.419C266.961 181.98 267.2 182.685 267.2 183.536V187.581H266.182V183.658C266.182 183.052 266.006 182.545 265.653 182.138C265.3 181.722 264.87 181.514 264.364 181.514C263.802 181.514 263.336 181.717 262.965 182.124C262.603 182.532 262.422 183.043 262.422 183.658V187.581H261.404V183.658C261.404 183.052 261.228 182.545 260.875 182.138C260.531 181.722 260.106 181.514 259.599 181.514C259.038 181.514 258.572 181.717 258.201 182.124C257.839 182.532 257.658 183.043 257.658 183.658V187.581H256.64V180.713H257.658V182.423C257.848 181.862 258.142 181.414 258.54 181.079C258.948 180.744 259.414 180.577 259.939 180.577C260.509 180.577 261.002 180.758 261.418 181.12C261.834 181.482 262.124 181.962 262.287 182.559C262.45 181.962 262.744 181.482 263.169 181.12C263.603 180.758 264.11 180.577 264.689 180.577ZM268.521 178.677C268.521 178.487 268.584 178.328 268.711 178.202C268.837 178.075 268.996 178.012 269.186 178.012C269.367 178.012 269.521 178.075 269.647 178.202C269.783 178.328 269.851 178.487 269.851 178.677C269.851 178.858 269.783 179.012 269.647 179.138C269.521 179.265 269.367 179.328 269.186 179.328C268.996 179.328 268.837 179.265 268.711 179.138C268.584 179.012 268.521 178.858 268.521 178.677ZM269.688 187.581H268.67V180.713H269.688V187.581ZM274.778 180.577C275.584 180.577 276.244 180.858 276.76 181.419C277.285 181.98 277.547 182.685 277.547 183.536V187.581H276.529V183.658C276.529 183.052 276.33 182.545 275.932 182.138C275.534 181.722 275.041 181.514 274.453 181.514C273.81 181.514 273.281 181.717 272.864 182.124C272.448 182.532 272.24 183.043 272.24 183.658V187.581H271.222V180.713H272.24V182.477C272.43 181.898 272.751 181.437 273.204 181.093C273.656 180.749 274.181 180.577 274.778 180.577ZM284.91 187.581H283.892V181.636H282.345V180.713H283.892V179.912C283.892 179.107 284.087 178.509 284.476 178.12C284.874 177.731 285.485 177.537 286.308 177.537H287.001V178.46H286.308C285.811 178.46 285.453 178.568 285.236 178.785C285.019 179.003 284.91 179.364 284.91 179.871V180.713H287.001V181.636H284.91V187.581ZM288.281 186.699C287.593 186.011 287.249 185.16 287.249 184.147C287.249 183.133 287.593 182.287 288.281 181.609C288.978 180.921 289.837 180.577 290.86 180.577C291.883 180.577 292.738 180.921 293.425 181.609C294.122 182.287 294.471 183.133 294.471 184.147C294.471 185.16 294.122 186.011 293.425 186.699C292.738 187.377 291.883 187.717 290.86 187.717C289.837 187.717 288.978 187.377 288.281 186.699ZM289.028 182.287C288.539 182.785 288.295 183.405 288.295 184.147C288.295 184.889 288.539 185.513 289.028 186.02C289.525 186.518 290.136 186.767 290.86 186.767C291.593 186.767 292.204 186.518 292.692 186.02C293.181 185.522 293.425 184.898 293.425 184.147C293.425 183.396 293.181 182.771 292.692 182.274C292.204 181.776 291.593 181.527 290.86 181.527C290.136 181.527 289.525 181.781 289.028 182.287ZM296.751 180.713V182.559C296.986 181.772 297.348 181.224 297.837 180.916C298.335 180.609 298.905 180.514 299.547 180.631V181.622C298.778 181.45 298.118 181.568 297.566 181.975C297.023 182.373 296.751 182.934 296.751 183.658V187.581H295.733V180.713H296.751ZM304.174 185.138L305.232 184.921C305.323 185.509 305.581 185.966 306.006 186.292C306.44 186.608 307.01 186.767 307.716 186.767C308.386 186.767 308.929 186.613 309.345 186.305C309.761 185.997 309.97 185.604 309.97 185.124C309.97 184.771 309.865 184.473 309.657 184.228C309.458 183.984 309.196 183.794 308.87 183.658C308.544 183.523 308.182 183.405 307.784 183.305C307.395 183.197 307.001 183.079 306.603 182.952C306.205 182.817 305.843 182.658 305.517 182.477C305.192 182.296 304.925 182.038 304.717 181.704C304.517 181.369 304.418 180.966 304.418 180.496C304.418 179.763 304.717 179.156 305.314 178.677C305.92 178.188 306.68 177.944 307.594 177.944C308.508 177.944 309.264 178.184 309.861 178.663C310.467 179.143 310.829 179.763 310.947 180.523L309.875 180.74C309.793 180.188 309.544 179.74 309.128 179.396C308.721 179.052 308.205 178.88 307.581 178.88C306.974 178.88 306.477 179.03 306.087 179.328C305.698 179.627 305.504 180.002 305.504 180.455C305.504 180.799 305.603 181.088 305.802 181.324C306.011 181.55 306.277 181.726 306.603 181.853C306.929 181.971 307.291 182.084 307.689 182.192C308.087 182.292 308.481 182.41 308.87 182.545C309.268 182.672 309.63 182.83 309.956 183.02C310.282 183.21 310.544 183.482 310.743 183.835C310.951 184.179 311.055 184.599 311.055 185.097C311.055 185.857 310.734 186.486 310.092 186.984C309.449 187.472 308.648 187.717 307.689 187.717C306.721 187.717 305.92 187.486 305.287 187.025C304.653 186.563 304.282 185.934 304.174 185.138ZM313.11 186.699C312.423 186.011 312.079 185.16 312.079 184.147C312.079 183.133 312.423 182.287 313.11 181.609C313.807 180.921 314.667 180.577 315.689 180.577C316.712 180.577 317.567 180.921 318.255 181.609C318.951 182.287 319.3 183.133 319.3 184.147C319.3 185.16 318.951 186.011 318.255 186.699C317.567 187.377 316.712 187.717 315.689 187.717C314.667 187.717 313.807 187.377 313.11 186.699ZM313.857 182.287C313.368 182.785 313.124 183.405 313.124 184.147C313.124 184.889 313.368 185.513 313.857 186.02C314.355 186.518 314.965 186.767 315.689 186.767C316.422 186.767 317.033 186.518 317.522 186.02C318.01 185.522 318.255 184.898 318.255 184.147C318.255 183.396 318.01 182.771 317.522 182.274C317.033 181.776 316.422 181.527 315.689 181.527C314.965 181.527 314.355 181.781 313.857 182.287ZM320.428 184.771V180.713H321.446V184.771C321.446 185.36 321.636 185.839 322.016 186.21C322.396 186.581 322.876 186.767 323.455 186.767C324.034 186.767 324.514 186.581 324.894 186.21C325.274 185.839 325.464 185.36 325.464 184.771V180.713H326.482V184.771C326.482 185.64 326.197 186.35 325.627 186.902C325.057 187.445 324.333 187.717 323.455 187.717C322.577 187.717 321.853 187.445 321.283 186.902C320.713 186.35 320.428 185.64 320.428 184.771ZM331.522 180.577C332.328 180.577 332.988 180.858 333.504 181.419C334.029 181.98 334.291 182.685 334.291 183.536V187.581H333.273V183.658C333.273 183.052 333.074 182.545 332.676 182.138C332.278 181.722 331.785 181.514 331.196 181.514C330.554 181.514 330.025 181.717 329.608 182.124C329.192 182.532 328.984 183.043 328.984 183.658V187.581H327.966V180.713H328.984V182.477C329.174 181.898 329.495 181.437 329.948 181.093C330.4 180.749 330.925 180.577 331.522 180.577ZM341.672 182.708V177.537H342.69V187.581H341.672V185.586C341.436 186.237 341.061 186.758 340.545 187.147C340.029 187.527 339.432 187.717 338.753 187.717C337.821 187.717 337.043 187.377 336.419 186.699C335.803 186.02 335.496 185.169 335.496 184.147C335.496 183.133 335.803 182.287 336.419 181.609C337.043 180.921 337.821 180.577 338.753 180.577C339.432 180.577 340.029 180.772 340.545 181.161C341.061 181.541 341.436 182.057 341.672 182.708ZM339.038 186.767C339.799 186.767 340.428 186.518 340.925 186.02C341.423 185.522 341.672 184.898 341.672 184.147C341.672 183.396 341.423 182.771 340.925 182.274C340.428 181.776 339.799 181.527 339.038 181.527C338.342 181.527 337.749 181.781 337.26 182.287C336.781 182.785 336.541 183.405 336.541 184.147C336.541 184.889 336.781 185.513 337.26 186.02C337.749 186.518 338.342 186.767 339.038 186.767Z" fill="#101840"/>
<path d="M328.312 213.178H13.5736V213.998H328.312V213.178Z" fill="#EDEFF5" mask="url(#path-5-inside-1_20_1057)"/>
<mask id="path-11-inside-2_20_1057" fill="white">
<path d="M13.5736 213.588H328.312V272.603H13.5736V213.588Z"/>
</mask>
<path d="M13.5736 213.588H328.312V272.603H13.5736V213.588Z" fill="white"/>
<rect x="26.696" y="226.71" width="32.7696" height="32.7696" rx="16.3848" fill="#F9DADA"/>
<path d="M46.4802 244.551L46.4802 239.696L41.6252 239.696" stroke="#A73636" stroke-width="1.27253" stroke-miterlimit="10" stroke-linecap="round" stroke-linejoin="round"/>
<path d="M39.6816 246.495L46.4122 239.764" stroke="#A73636" stroke-width="1.27253" stroke-miterlimit="10" stroke-linecap="round" stroke-linejoin="round"/>
<path d="M77.081 240.691C77.8592 240.691 78.5243 240.944 79.0763 241.451C79.6373 241.958 79.9179 242.682 79.9179 243.623C79.9179 244.519 79.6011 245.261 78.9677 245.849C78.3343 246.437 77.5289 246.731 76.5516 246.731C75.6195 246.731 74.8639 246.487 74.2848 245.998C73.7147 245.501 73.3935 244.84 73.3211 244.016L74.407 243.894C74.4522 244.446 74.6649 244.894 75.0449 245.238C75.425 245.582 75.9272 245.754 76.5516 245.754C77.2122 245.754 77.7551 245.555 78.1804 245.157C78.6148 244.749 78.832 244.238 78.832 243.623C78.832 242.971 78.6329 242.451 78.2347 242.062C77.8366 241.673 77.3027 241.478 76.633 241.478C75.7553 241.478 75.0902 241.804 74.6377 242.456L73.6333 242.306L74.2712 237.094H79.1849V238.058H75.1264L74.6513 241.885C75.1761 241.089 75.986 240.691 77.081 240.691ZM82.0489 245.333C81.334 244.401 80.9766 243.238 80.9766 241.845C80.9766 240.451 81.334 239.288 82.0489 238.356C82.7637 237.424 83.6641 236.958 84.75 236.958C85.845 236.958 86.7453 237.424 87.4512 238.356C88.166 239.279 88.5235 240.442 88.5235 241.845C88.5235 243.247 88.166 244.415 87.4512 245.347C86.7453 246.27 85.845 246.731 84.75 246.731C83.6641 246.731 82.7637 246.265 82.0489 245.333ZM82.8226 239.049C82.3158 239.791 82.0624 240.723 82.0624 241.845C82.0624 242.967 82.3158 243.899 82.8226 244.641C83.3293 245.383 83.9718 245.754 84.75 245.754C85.5282 245.754 86.1707 245.383 86.6775 244.641C87.1842 243.899 87.4376 242.967 87.4376 241.845C87.4376 240.723 87.1842 239.791 86.6775 239.049C86.1707 238.306 85.5282 237.935 84.75 237.935C83.9718 237.935 83.3293 238.306 82.8226 239.049ZM89.815 245.279C90.1318 245.279 90.3897 245.41 90.5887 245.672C90.7878 245.926 90.8874 246.238 90.8874 246.609C90.8874 247.532 90.4485 248.233 89.5707 248.713L89.0685 248.129C89.4667 247.912 89.7381 247.659 89.8829 247.369C90.0368 247.08 90.0775 246.826 90.0051 246.609C89.7969 246.681 89.5933 246.659 89.3943 246.541C89.1952 246.424 89.0956 246.238 89.0956 245.985C89.0956 245.786 89.1635 245.618 89.2993 245.482C89.444 245.347 89.616 245.279 89.815 245.279ZM92.1371 245.333C91.4223 244.401 91.0648 243.238 91.0648 241.845C91.0648 240.451 91.4223 239.288 92.1371 238.356C92.852 237.424 93.7524 236.958 94.8383 236.958C95.9332 236.958 96.8336 237.424 97.5394 238.356C98.2543 239.279 98.6118 240.442 98.6118 241.845C98.6118 243.247 98.2543 244.415 97.5394 245.347C96.8336 246.27 95.9332 246.731 94.8383 246.731C93.7524 246.731 92.852 246.265 92.1371 245.333ZM92.9108 239.049C92.4041 239.791 92.1507 240.723 92.1507 241.845C92.1507 242.967 92.4041 243.899 92.9108 244.641C93.4176 245.383 94.0601 245.754 94.8383 245.754C95.6165 245.754 96.259 245.383 96.7658 244.641C97.2725 243.899 97.5259 242.967 97.5259 241.845C97.5259 240.723 97.2725 239.791 96.7658 239.049C96.259 238.306 95.6165 237.935 94.8383 237.935C94.0601 237.935 93.4176 238.306 92.9108 239.049ZM100.76 245.333C100.045 244.401 99.6879 243.238 99.6879 241.845C99.6879 240.451 100.045 239.288 100.76 238.356C101.475 237.424 102.376 236.958 103.461 236.958C104.556 236.958 105.457 237.424 106.163 238.356C106.877 239.279 107.235 240.442 107.235 241.845C107.235 243.247 106.877 244.415 106.163 245.347C105.457 246.27 104.556 246.731 103.461 246.731C102.376 246.731 101.475 246.265 100.76 245.333ZM101.534 239.049C101.027 239.791 100.774 240.723 100.774 241.845C100.774 242.967 101.027 243.899 101.534 244.641C102.041 245.383 102.683 245.754 103.461 245.754C104.24 245.754 104.882 245.383 105.389 244.641C105.896 243.899 106.149 242.967 106.149 241.845C106.149 240.723 105.896 239.791 105.389 239.049C104.882 238.306 104.24 237.935 103.461 237.935C102.683 237.935 102.041 238.306 101.534 239.049ZM109.383 245.333C108.669 244.401 108.311 243.238 108.311 241.845C108.311 240.451 108.669 239.288 109.383 238.356C110.098 237.424 110.999 236.958 112.085 236.958C113.179 236.958 114.08 237.424 114.786 238.356C115.501 239.279 115.858 240.442 115.858 241.845C115.858 243.247 115.501 244.415 114.786 245.347C114.08 246.27 113.179 246.731 112.085 246.731C110.999 246.731 110.098 246.265 109.383 245.333ZM110.157 239.049C109.65 239.791 109.397 240.723 109.397 241.845C109.397 242.967 109.65 243.899 110.157 244.641C110.664 245.383 111.306 245.754 112.085 245.754C112.863 245.754 113.505 245.383 114.012 244.641C114.519 243.899 114.772 242.967 114.772 241.845C114.772 240.723 114.519 239.791 114.012 239.049C113.505 238.306 112.863 237.935 112.085 237.935C111.306 237.935 110.664 238.306 110.157 239.049ZM120.713 244.817L121.744 244.614C121.889 245.455 122.482 245.876 123.522 245.876C124.047 245.876 124.473 245.772 124.798 245.564C125.133 245.347 125.301 245.071 125.301 244.736C125.301 244.392 125.147 244.13 124.839 243.949C124.54 243.768 124.178 243.641 123.753 243.569C123.328 243.487 122.898 243.401 122.464 243.311C122.038 243.211 121.672 243.021 121.364 242.741C121.066 242.46 120.916 242.075 120.916 241.587C120.916 241.008 121.161 240.533 121.649 240.162C122.138 239.781 122.762 239.591 123.522 239.591C124.264 239.591 124.871 239.763 125.341 240.107C125.812 240.451 126.101 240.917 126.21 241.505L125.192 241.709C125.038 240.876 124.482 240.46 123.522 240.46C123.061 240.46 122.681 240.56 122.382 240.759C122.084 240.958 121.934 241.22 121.934 241.546C121.934 241.863 122.084 242.107 122.382 242.279C122.69 242.442 123.056 242.56 123.482 242.632C123.916 242.704 124.346 242.795 124.771 242.903C125.206 243.003 125.572 243.202 125.871 243.501C126.178 243.799 126.332 244.202 126.332 244.709C126.332 245.297 126.065 245.781 125.531 246.161C124.997 246.541 124.328 246.731 123.522 246.731C122.744 246.731 122.106 246.559 121.609 246.215C121.12 245.872 120.821 245.406 120.713 244.817ZM130.734 239.591C131.793 239.591 132.662 239.967 133.34 240.718C134.028 241.46 134.331 242.379 134.25 243.474H128.21C128.282 244.161 128.558 244.727 129.038 245.17C129.526 245.605 130.119 245.822 130.816 245.822C131.35 245.822 131.825 245.691 132.241 245.428C132.657 245.166 132.974 244.808 133.191 244.356L134.06 244.722C133.77 245.329 133.34 245.817 132.77 246.188C132.2 246.55 131.544 246.731 130.802 246.731C129.78 246.731 128.92 246.392 128.223 245.713C127.535 245.025 127.192 244.175 127.192 243.161C127.192 242.148 127.531 241.302 128.21 240.623C128.888 239.935 129.73 239.591 130.734 239.591ZM130.734 240.501C130.11 240.501 129.567 240.7 129.105 241.098C128.644 241.496 128.354 242.008 128.237 242.632H133.218C133.119 242.017 132.838 241.51 132.377 241.112C131.924 240.705 131.377 240.501 130.734 240.501ZM139.099 239.591C139.904 239.591 140.565 239.872 141.081 240.433C141.606 240.994 141.868 241.7 141.868 242.551V246.595H140.85V242.673C140.85 242.066 140.651 241.56 140.253 241.152C139.855 240.736 139.361 240.528 138.773 240.528C138.131 240.528 137.601 240.732 137.185 241.139C136.769 241.546 136.561 242.057 136.561 242.673V246.595H135.543V239.727H136.561V241.492C136.751 240.913 137.072 240.451 137.524 240.107C137.977 239.763 138.502 239.591 139.099 239.591ZM144.004 240.65H142.456V239.727H144.004V237.27L145.022 236.958V239.727H147.112V240.65H145.022V244.261C145.022 244.768 145.13 245.13 145.348 245.347C145.565 245.564 145.922 245.672 146.42 245.672H147.112V246.595H146.42C145.596 246.595 144.986 246.401 144.587 246.012C144.198 245.623 144.004 245.025 144.004 244.22V240.65ZM153.244 240.65H151.696V239.727H153.244V237.27L154.262 236.958V239.727H156.352V240.65H154.262V244.261C154.262 244.768 154.37 245.13 154.588 245.347C154.805 245.564 155.162 245.672 155.66 245.672H156.352V246.595H155.66C154.836 246.595 154.226 246.401 153.827 246.012C153.438 245.623 153.244 245.025 153.244 244.22V240.65ZM158.044 245.713C157.356 245.025 157.012 244.175 157.012 243.161C157.012 242.148 157.356 241.302 158.044 240.623C158.74 239.935 159.6 239.591 160.623 239.591C161.645 239.591 162.5 239.935 163.188 240.623C163.885 241.302 164.233 242.148 164.233 243.161C164.233 244.175 163.885 245.025 163.188 245.713C162.5 246.392 161.645 246.731 160.623 246.731C159.6 246.731 158.74 246.392 158.044 245.713ZM158.79 241.302C158.301 241.799 158.057 242.419 158.057 243.161C158.057 243.903 158.301 244.528 158.79 245.034C159.288 245.532 159.899 245.781 160.623 245.781C161.356 245.781 161.966 245.532 162.455 245.034C162.944 244.537 163.188 243.912 163.188 243.161C163.188 242.41 162.944 241.786 162.455 241.288C161.966 240.79 161.356 240.542 160.623 240.542C159.899 240.542 159.288 240.795 158.79 241.302ZM170.419 246.595H169.36V237.094H172.943C173.839 237.094 174.568 237.365 175.129 237.908C175.699 238.442 175.984 239.116 175.984 239.931C175.984 240.736 175.699 241.41 175.129 241.953C174.568 242.487 173.839 242.754 172.943 242.754H170.419V246.595ZM170.419 238.058V241.79H172.943C173.514 241.79 173.98 241.614 174.342 241.261C174.713 240.899 174.898 240.451 174.898 239.917C174.898 239.383 174.713 238.94 174.342 238.587C173.98 238.234 173.514 238.058 172.943 238.058H170.419ZM177.901 239.727V241.573C178.136 240.786 178.498 240.238 178.987 239.931C179.485 239.623 180.055 239.528 180.697 239.646V240.637C179.928 240.465 179.267 240.582 178.715 240.99C178.172 241.388 177.901 241.949 177.901 242.673V246.595H176.883V239.727H177.901ZM181.733 245.713C181.045 245.025 180.701 244.175 180.701 243.161C180.701 242.148 181.045 241.302 181.733 240.623C182.43 239.935 183.289 239.591 184.312 239.591C185.334 239.591 186.189 239.935 186.877 240.623C187.574 241.302 187.922 242.148 187.922 243.161C187.922 244.175 187.574 245.025 186.877 245.713C186.189 246.392 185.334 246.731 184.312 246.731C183.289 246.731 182.43 246.392 181.733 245.713ZM182.479 241.302C181.991 241.799 181.746 242.419 181.746 243.161C181.746 243.903 181.991 244.528 182.479 245.034C182.977 245.532 183.588 245.781 184.312 245.781C185.045 245.781 185.656 245.532 186.144 245.034C186.633 244.537 186.877 243.912 186.877 243.161C186.877 242.41 186.633 241.786 186.144 241.288C185.656 240.79 185.045 240.542 184.312 240.542C183.588 240.542 182.977 240.795 182.479 241.302ZM197.234 239.591C197.958 239.591 198.555 239.872 199.026 240.433C199.505 240.994 199.745 241.7 199.745 242.551V246.595H198.727V242.673C198.727 242.066 198.551 241.56 198.198 241.152C197.845 240.736 197.415 240.528 196.908 240.528C196.347 240.528 195.881 240.732 195.51 241.139C195.148 241.546 194.967 242.057 194.967 242.673V246.595H193.949V242.673C193.949 242.066 193.773 241.56 193.42 241.152C193.076 240.736 192.651 240.528 192.144 240.528C191.583 240.528 191.117 240.732 190.746 241.139C190.384 241.546 190.203 242.057 190.203 242.673V246.595H189.185V239.727H190.203V241.437C190.393 240.876 190.687 240.429 191.085 240.094C191.492 239.759 191.958 239.591 192.483 239.591C193.053 239.591 193.547 239.772 193.963 240.134C194.379 240.496 194.669 240.976 194.832 241.573C194.994 240.976 195.288 240.496 195.714 240.134C196.148 239.772 196.655 239.591 197.234 239.591ZM201.065 237.691C201.065 237.501 201.129 237.343 201.255 237.216C201.382 237.089 201.54 237.026 201.73 237.026C201.911 237.026 202.065 237.089 202.192 237.216C202.328 237.343 202.396 237.501 202.396 237.691C202.396 237.872 202.328 238.026 202.192 238.153C202.065 238.279 201.911 238.343 201.73 238.343C201.54 238.343 201.382 238.279 201.255 238.153C201.129 238.026 201.065 237.872 201.065 237.691ZM202.233 246.595H201.215V239.727H202.233V246.595ZM203.36 244.817L204.391 244.614C204.536 245.455 205.129 245.876 206.169 245.876C206.694 245.876 207.119 245.772 207.445 245.564C207.78 245.347 207.947 245.071 207.947 244.736C207.947 244.392 207.794 244.13 207.486 243.949C207.187 243.768 206.825 243.641 206.4 243.569C205.975 243.487 205.545 243.401 205.111 243.311C204.685 243.211 204.319 243.021 204.011 242.741C203.712 242.46 203.563 242.075 203.563 241.587C203.563 241.008 203.808 240.533 204.296 240.162C204.785 239.781 205.409 239.591 206.169 239.591C206.911 239.591 207.518 239.763 207.988 240.107C208.459 240.451 208.748 240.917 208.857 241.505L207.839 241.709C207.685 240.876 207.129 240.46 206.169 240.46C205.708 240.46 205.328 240.56 205.029 240.759C204.731 240.958 204.581 241.22 204.581 241.546C204.581 241.863 204.731 242.107 205.029 242.279C205.337 242.442 205.703 242.56 206.129 242.632C206.563 242.704 206.993 242.795 207.418 242.903C207.852 243.003 208.219 243.202 208.518 243.501C208.825 243.799 208.979 244.202 208.979 244.709C208.979 245.297 208.712 245.781 208.178 246.161C207.644 246.541 206.975 246.731 206.169 246.731C205.391 246.731 204.753 246.559 204.255 246.215C203.767 245.872 203.468 245.406 203.36 244.817ZM213.381 239.591C214.44 239.591 215.309 239.967 215.987 240.718C216.675 241.46 216.978 242.379 216.897 243.474H210.857C210.929 244.161 211.205 244.727 211.684 245.17C212.173 245.605 212.766 245.822 213.463 245.822C213.997 245.822 214.472 245.691 214.888 245.428C215.304 245.166 215.621 244.808 215.838 244.356L216.707 244.722C216.417 245.329 215.987 245.817 215.417 246.188C214.847 246.55 214.191 246.731 213.449 246.731C212.427 246.731 211.567 246.392 210.87 245.713C210.182 245.025 209.838 244.175 209.838 243.161C209.838 242.148 210.178 241.302 210.857 240.623C211.535 239.935 212.377 239.591 213.381 239.591ZM213.381 240.501C212.757 240.501 212.214 240.7 211.752 241.098C211.291 241.496 211.001 242.008 210.884 242.632H215.865C215.766 242.017 215.485 241.51 215.024 241.112C214.571 240.705 214.024 240.501 213.381 240.501ZM223.194 245.32C222.253 244.378 221.783 243.22 221.783 241.845C221.783 240.469 222.253 239.311 223.194 238.37C224.144 237.429 225.316 236.958 226.71 236.958C228.103 236.958 229.271 237.429 230.212 238.37C231.162 239.311 231.637 240.469 231.637 241.845C231.637 243.22 231.162 244.378 230.212 245.32C229.271 246.261 228.103 246.731 226.71 246.731C225.316 246.731 224.144 246.261 223.194 245.32ZM223.981 239.076C223.239 239.827 222.868 240.75 222.868 241.845C222.868 242.94 223.239 243.867 223.981 244.627C224.723 245.378 225.633 245.754 226.71 245.754C227.796 245.754 228.705 245.378 229.438 244.627C230.18 243.876 230.551 242.949 230.551 241.845C230.551 240.741 230.18 239.813 229.438 239.062C228.705 238.311 227.796 237.935 226.71 237.935C225.633 237.935 224.723 238.316 223.981 239.076ZM240.953 239.591C241.677 239.591 242.274 239.872 242.745 240.433C243.225 240.994 243.464 241.7 243.464 242.551V246.595H242.446V242.673C242.446 242.066 242.27 241.56 241.917 241.152C241.564 240.736 241.134 240.528 240.627 240.528C240.066 240.528 239.6 240.732 239.229 241.139C238.867 241.546 238.686 242.057 238.686 242.673V246.595H237.668V242.673C237.668 242.066 237.492 241.56 237.139 241.152C236.795 240.736 236.37 240.528 235.863 240.528C235.302 240.528 234.836 240.732 234.465 241.139C234.103 241.546 233.922 242.057 233.922 242.673V246.595H232.904V239.727H233.922V241.437C234.112 240.876 234.406 240.429 234.804 240.094C235.212 239.759 235.678 239.591 236.202 239.591C236.773 239.591 237.266 239.772 237.682 240.134C238.098 240.496 238.388 240.976 238.551 241.573C238.714 240.976 239.008 240.496 239.433 240.134C239.867 239.772 240.374 239.591 240.953 239.591ZM245.694 245.713C245.006 245.025 244.662 244.175 244.662 243.161C244.662 242.148 245.006 241.302 245.694 240.623C246.391 239.935 247.25 239.591 248.273 239.591C249.295 239.591 250.151 239.935 250.838 240.623C251.535 241.302 251.884 242.148 251.884 243.161C251.884 244.175 251.535 245.025 250.838 245.713C250.151 246.392 249.295 246.731 248.273 246.731C247.25 246.731 246.391 246.392 245.694 245.713ZM246.441 241.302C245.952 241.799 245.708 242.419 245.708 243.161C245.708 243.903 245.952 244.528 246.441 245.034C246.938 245.532 247.549 245.781 248.273 245.781C249.006 245.781 249.617 245.532 250.105 245.034C250.594 244.537 250.838 243.912 250.838 243.161C250.838 242.41 250.594 241.786 250.105 241.288C249.617 240.79 249.006 240.542 248.273 240.542C247.549 240.542 246.938 240.795 246.441 241.302ZM252.739 244.817L253.77 244.614C253.915 245.455 254.508 245.876 255.549 245.876C256.073 245.876 256.499 245.772 256.824 245.564C257.159 245.347 257.327 245.071 257.327 244.736C257.327 244.392 257.173 244.13 256.865 243.949C256.567 243.768 256.205 243.641 255.779 243.569C255.354 243.487 254.924 243.401 254.49 243.311C254.065 243.211 253.698 243.021 253.39 242.741C253.092 242.46 252.942 242.075 252.942 241.587C252.942 241.008 253.187 240.533 253.675 240.162C254.164 239.781 254.788 239.591 255.549 239.591C256.291 239.591 256.897 239.763 257.367 240.107C257.838 240.451 258.128 240.917 258.236 241.505L257.218 241.709C257.064 240.876 256.508 240.46 255.549 240.46C255.087 240.46 254.707 240.56 254.408 240.759C254.11 240.958 253.96 241.22 253.96 241.546C253.96 241.863 254.11 242.107 254.408 242.279C254.716 242.442 255.083 242.56 255.508 242.632C255.942 242.704 256.372 242.795 256.797 242.903C257.232 243.003 257.598 243.202 257.897 243.501C258.204 243.799 258.358 244.202 258.358 244.709C258.358 245.297 258.091 245.781 257.557 246.161C257.024 246.541 256.354 246.731 255.549 246.731C254.77 246.731 254.132 246.559 253.635 246.215C253.146 245.872 252.847 245.406 252.739 244.817ZM265.376 246.595H264.358V240.65H262.811V239.727H264.358V238.926C264.358 238.121 264.553 237.524 264.942 237.135C265.34 236.746 265.951 236.551 266.774 236.551H267.466V237.474H266.774C266.276 237.474 265.919 237.583 265.702 237.8C265.485 238.017 265.376 238.379 265.376 238.886V239.727H267.466V240.65H265.376V246.595ZM268.747 245.713C268.059 245.025 267.715 244.175 267.715 243.161C267.715 242.148 268.059 241.302 268.747 240.623C269.444 239.935 270.303 239.591 271.326 239.591C272.348 239.591 273.204 239.935 273.891 240.623C274.588 241.302 274.937 242.148 274.937 243.161C274.937 244.175 274.588 245.025 273.891 245.713C273.204 246.392 272.348 246.731 271.326 246.731C270.303 246.731 269.444 246.392 268.747 245.713ZM269.494 241.302C269.005 241.799 268.761 242.419 268.761 243.161C268.761 243.903 269.005 244.528 269.494 245.034C269.991 245.532 270.602 245.781 271.326 245.781C272.059 245.781 272.67 245.532 273.158 245.034C273.647 244.537 273.891 243.912 273.891 243.161C273.891 242.41 273.647 241.786 273.158 241.288C272.67 240.79 272.059 240.542 271.326 240.542C270.602 240.542 269.991 240.795 269.494 241.302ZM277.217 239.727V241.573C277.452 240.786 277.814 240.238 278.303 239.931C278.801 239.623 279.371 239.528 280.013 239.646V240.637C279.244 240.465 278.583 240.582 278.031 240.99C277.489 241.388 277.217 241.949 277.217 242.673V246.595H276.199V239.727H277.217ZM288.359 246.595H287.3V238.058H284.083V237.094H291.576V238.058H288.359V246.595ZM292.668 239.727V241.573C292.903 240.786 293.265 240.238 293.753 239.931C294.251 239.623 294.821 239.528 295.464 239.646V240.637C294.695 240.465 294.034 240.582 293.482 240.99C292.939 241.388 292.668 241.949 292.668 242.673V246.595H291.65V239.727H292.668ZM298.721 239.591C299.499 239.591 300.132 239.8 300.621 240.216C301.11 240.623 301.354 241.198 301.354 241.94V246.595H300.336V244.722C299.875 246.062 298.979 246.731 297.648 246.731C297.024 246.731 296.513 246.559 296.115 246.215C295.726 245.872 295.531 245.415 295.531 244.844C295.531 244.229 295.753 243.754 296.196 243.419C296.649 243.084 297.232 242.881 297.947 242.808L299.481 242.632C300.051 242.578 300.336 242.315 300.336 241.845C300.336 241.419 300.187 241.085 299.888 240.84C299.589 240.596 299.196 240.474 298.707 240.474C298.219 240.474 297.798 240.596 297.445 240.84C297.092 241.085 296.852 241.46 296.725 241.967L295.735 241.695C295.897 241.017 296.246 240.496 296.78 240.134C297.323 239.772 297.97 239.591 298.721 239.591ZM297.906 245.876C298.603 245.876 299.182 245.645 299.644 245.184C300.105 244.713 300.336 244.166 300.336 243.541V242.971C300.209 243.243 299.902 243.406 299.413 243.46L297.933 243.623C297.517 243.677 297.182 243.804 296.929 244.003C296.676 244.193 296.549 244.455 296.549 244.79C296.549 245.116 296.671 245.378 296.915 245.577C297.169 245.777 297.499 245.876 297.906 245.876ZM306.394 239.591C307.2 239.591 307.86 239.872 308.376 240.433C308.901 240.994 309.163 241.7 309.163 242.551V246.595H308.145V242.673C308.145 242.066 307.946 241.56 307.548 241.152C307.15 240.736 306.657 240.528 306.069 240.528C305.426 240.528 304.897 240.732 304.48 241.139C304.064 241.546 303.856 242.057 303.856 242.673V246.595H302.838V239.727H303.856V241.492C304.046 240.913 304.367 240.451 304.82 240.107C305.272 239.763 305.797 239.591 306.394 239.591ZM310.232 244.817L311.264 244.614C311.409 245.455 312.001 245.876 313.042 245.876C313.567 245.876 313.992 245.772 314.318 245.564C314.653 245.347 314.82 245.071 314.82 244.736C314.82 244.392 314.666 244.13 314.359 243.949C314.06 243.768 313.698 243.641 313.273 243.569C312.847 243.487 312.417 243.401 311.983 243.311C311.558 243.211 311.191 243.021 310.884 242.741C310.585 242.46 310.436 242.075 310.436 241.587C310.436 241.008 310.68 240.533 311.169 240.162C311.657 239.781 312.282 239.591 313.042 239.591C313.784 239.591 314.39 239.763 314.861 240.107C315.331 240.451 315.621 240.917 315.729 241.505L314.711 241.709C314.558 240.876 314.001 240.46 313.042 240.46C312.58 240.46 312.2 240.56 311.902 240.759C311.603 240.958 311.454 241.22 311.454 241.546C311.454 241.863 311.603 242.107 311.902 242.279C312.209 242.442 312.576 242.56 313.001 242.632C313.436 242.704 313.865 242.795 314.291 242.903C314.725 243.003 315.091 243.202 315.39 243.501C315.698 243.799 315.852 244.202 315.852 244.709C315.852 245.297 315.585 245.781 315.051 246.161C314.517 246.541 313.847 246.731 313.042 246.731C312.264 246.731 311.626 246.559 311.128 246.215C310.639 245.872 310.341 245.406 310.232 244.817ZM320.919 239.591C321.851 239.591 322.625 239.935 323.24 240.623C323.864 241.302 324.177 242.148 324.177 243.161C324.177 244.184 323.864 245.034 323.24 245.713C322.625 246.392 321.851 246.731 320.919 246.731C320.24 246.731 319.638 246.537 319.114 246.148C318.598 245.749 318.227 245.225 318.001 244.573V249.31H316.983V239.727H318.001V241.763C318.227 241.103 318.598 240.578 319.114 240.189C319.638 239.791 320.24 239.591 320.919 239.591ZM320.634 245.781C321.34 245.781 321.932 245.532 322.412 245.034C322.892 244.528 323.131 243.903 323.131 243.161C323.131 242.419 322.892 241.799 322.412 241.302C321.932 240.795 321.34 240.542 320.634 240.542C319.874 240.542 319.245 240.79 318.747 241.288C318.249 241.786 318.001 242.41 318.001 243.161C318.001 243.912 318.249 244.537 318.747 245.034C319.245 245.532 319.874 245.781 320.634 245.781ZM326.101 245.713C325.413 245.025 325.069 244.175 325.069 243.161C325.069 242.148 325.413 241.302 326.101 240.623C326.797 239.935 327.657 239.591 328.68 239.591C329.702 239.591 330.557 239.935 331.245 240.623C331.942 241.302 332.29 242.148 332.29 243.161C332.29 244.175 331.942 245.025 331.245 245.713C330.557 246.392 329.702 246.731 328.68 246.731C327.657 246.731 326.797 246.392 326.101 245.713ZM326.847 241.302C326.359 241.799 326.114 242.419 326.114 243.161C326.114 243.903 326.359 244.528 326.847 245.034C327.345 245.532 327.956 245.781 328.68 245.781C329.413 245.781 330.023 245.532 330.512 245.034C331.001 244.537 331.245 243.912 331.245 243.161C331.245 242.41 331.001 241.786 330.512 241.288C330.023 240.79 329.413 240.542 328.68 240.542C327.956 240.542 327.345 240.795 326.847 241.302ZM334.571 239.727V241.573C334.806 240.786 335.168 240.238 335.657 239.931C336.154 239.623 336.724 239.528 337.367 239.646V240.637C336.598 240.465 335.937 240.582 335.385 240.99C334.842 241.388 334.571 241.949 334.571 242.673V246.595H333.553V239.727H334.571ZM339.31 240.65H337.762V239.727H339.31V237.27L340.328 236.958V239.727H342.418V240.65H340.328V244.261C340.328 244.768 340.436 245.13 340.653 245.347C340.871 245.564 341.228 245.672 341.726 245.672H342.418V246.595H341.726C340.902 246.595 340.292 246.401 339.893 246.012C339.504 245.623 339.31 245.025 339.31 244.22V240.65Z" fill="#101840"/>
<path d="M328.312 272.193H13.5736V273.013H328.312V272.193Z" fill="#EDEFF5" mask="url(#path-11-inside-2_20_1057)"/>
<mask id="path-17-inside-3_20_1057" fill="white">
<path d="M13.5736 272.603H328.312V331.617H13.5736V272.603Z"/>
</mask>
<path d="M13.5736 272.603H328.312V331.617H13.5736V272.603Z" fill="white"/>
<rect x="26.696" y="285.725" width="32.7696" height="32.7696" rx="16.3848" fill="#F9DADA"/>
<path d="M46.4802 303.565L46.4802 298.71L41.6252 298.71" stroke="#A73636" stroke-width="1.27253" stroke-miterlimit="10" stroke-linecap="round" stroke-linejoin="round"/>
<path d="M39.6816 305.509L46.4122 298.779" stroke="#A73636" stroke-width="1.27253" stroke-miterlimit="10" stroke-linecap="round" stroke-linejoin="round"/>
<path d="M72.9139 296.108H79.3613V296.963L77.7732 300.384H79.3613V301.334H77.3253L75.33 305.61H74.1626L76.1851 301.334H72.9139V300.384H76.633L78.194 297.072H72.9139V296.108ZM84.8101 300.737C85.525 300.9 86.0951 301.203 86.5204 301.646C86.9457 302.081 87.1584 302.583 87.1584 303.153C87.1584 303.895 86.8326 304.515 86.1811 305.013C85.5295 305.501 84.6925 305.746 83.67 305.746C82.6384 305.746 81.7968 305.501 81.1453 305.013C80.4937 304.515 80.168 303.895 80.168 303.153C80.168 302.583 80.3806 302.081 80.8059 301.646C81.2403 301.203 81.8149 300.9 82.5298 300.737C81.9506 300.556 81.4846 300.262 81.1317 299.855C80.7788 299.447 80.6023 298.981 80.6023 298.457C80.6023 297.76 80.8919 297.172 81.471 296.692C82.0592 296.212 82.7922 295.973 83.67 295.973C84.5387 295.973 85.2671 296.212 85.8553 296.692C86.4435 297.172 86.7376 297.76 86.7376 298.457C86.7376 298.981 86.5611 299.447 86.2082 299.855C85.8553 300.262 85.3893 300.556 84.8101 300.737ZM82.2312 297.425C81.8511 297.742 81.6611 298.14 81.6611 298.619C81.6611 299.099 81.8511 299.497 82.2312 299.814C82.6112 300.131 83.0908 300.289 83.67 300.289C84.2401 300.289 84.7151 300.131 85.0952 299.814C85.4843 299.497 85.6789 299.099 85.6789 298.619C85.6789 298.14 85.4843 297.742 85.0952 297.425C84.7151 297.099 84.2401 296.936 83.67 296.936C83.0908 296.936 82.6112 297.099 82.2312 297.425ZM83.67 304.782C84.3758 304.782 84.9549 304.614 85.4074 304.28C85.8689 303.945 86.0996 303.52 86.0996 303.004C86.0996 302.479 85.8689 302.049 85.4074 301.714C84.9549 301.37 84.3758 301.198 83.67 301.198C82.9641 301.198 82.3805 301.37 81.919 301.714C81.4575 302.049 81.2267 302.479 81.2267 303.004C81.2267 303.52 81.4529 303.945 81.9054 304.28C82.3669 304.614 82.9551 304.782 83.67 304.782ZM89.139 304.293C89.4557 304.293 89.7136 304.424 89.9127 304.687C90.1118 304.94 90.2113 305.252 90.2113 305.623C90.2113 306.546 89.7725 307.248 88.8947 307.727L88.3925 307.144C88.7906 306.927 89.0621 306.673 89.2069 306.384C89.3607 306.094 89.4014 305.841 89.329 305.623C89.1209 305.696 88.9173 305.673 88.7182 305.556C88.5192 305.438 88.4196 305.252 88.4196 304.999C88.4196 304.8 88.4875 304.633 88.6232 304.497C88.768 304.361 88.9399 304.293 89.139 304.293ZM94.7717 299.705C95.5499 299.705 96.215 299.959 96.767 300.465C97.3281 300.972 97.6086 301.696 97.6086 302.637C97.6086 303.533 97.2919 304.275 96.6584 304.863C96.025 305.452 95.2196 305.746 94.2423 305.746C93.3103 305.746 92.5547 305.501 91.9755 305.013C91.4054 304.515 91.0842 303.854 91.0118 303.031L92.0977 302.909C92.1429 303.461 92.3556 303.909 92.7357 304.253C93.1157 304.596 93.6179 304.768 94.2423 304.768C94.9029 304.768 95.4459 304.569 95.8712 304.171C96.3055 303.764 96.5227 303.253 96.5227 302.637C96.5227 301.986 96.3236 301.465 95.9255 301.076C95.5273 300.687 94.9934 300.493 94.3238 300.493C93.446 300.493 92.7809 300.818 92.3284 301.47L91.324 301.321L91.962 296.108H96.8756V297.072H92.8171L92.342 300.9C92.8669 300.103 93.6768 299.705 94.7717 299.705ZM99.7396 304.348C99.0247 303.415 98.6673 302.253 98.6673 300.859C98.6673 299.466 99.0247 298.303 99.7396 297.371C100.454 296.439 101.355 295.973 102.441 295.973C103.536 295.973 104.436 296.439 105.142 297.371C105.857 298.294 106.214 299.456 106.214 300.859C106.214 302.262 105.857 303.429 105.142 304.361C104.436 305.284 103.536 305.746 102.441 305.746C101.355 305.746 100.454 305.28 99.7396 304.348ZM100.513 298.063C100.007 298.805 99.7532 299.737 99.7532 300.859C99.7532 301.981 100.007 302.913 100.513 303.655C101.02 304.397 101.663 304.768 102.441 304.768C103.219 304.768 103.861 304.397 104.368 303.655C104.875 302.913 105.128 301.981 105.128 300.859C105.128 299.737 104.875 298.805 104.368 298.063C103.861 297.321 103.219 296.95 102.441 296.95C101.663 296.95 101.02 297.321 100.513 298.063ZM108.363 304.348C107.648 303.415 107.29 302.253 107.29 300.859C107.29 299.466 107.648 298.303 108.363 297.371C109.078 296.439 109.978 295.973 111.064 295.973C112.159 295.973 113.059 296.439 113.765 297.371C114.48 298.294 114.837 299.456 114.837 300.859C114.837 302.262 114.48 303.429 113.765 304.361C113.059 305.284 112.159 305.746 111.064 305.746C109.978 305.746 109.078 305.28 108.363 304.348ZM109.136 298.063C108.63 298.805 108.376 299.737 108.376 300.859C108.376 301.981 108.63 302.913 109.136 303.655C109.643 304.397 110.286 304.768 111.064 304.768C111.842 304.768 112.485 304.397 112.991 303.655C113.498 302.913 113.751 301.981 113.751 300.859C113.751 299.737 113.498 298.805 112.991 298.063C112.485 297.321 111.842 296.95 111.064 296.95C110.286 296.95 109.643 297.321 109.136 298.063ZM119.692 303.832L120.724 303.628C120.868 304.47 121.461 304.89 122.502 304.89C123.027 304.89 123.452 304.786 123.778 304.578C124.112 304.361 124.28 304.085 124.28 303.75C124.28 303.406 124.126 303.144 123.818 302.963C123.52 302.782 123.158 302.655 122.733 302.583C122.307 302.502 121.877 302.416 121.443 302.325C121.018 302.226 120.651 302.035 120.344 301.755C120.045 301.474 119.896 301.09 119.896 300.601C119.896 300.022 120.14 299.547 120.629 299.176C121.117 298.796 121.742 298.606 122.502 298.606C123.244 298.606 123.85 298.778 124.321 299.122C124.791 299.466 125.081 299.932 125.189 300.52L124.171 300.723C124.017 299.891 123.461 299.475 122.502 299.475C122.04 299.475 121.66 299.574 121.362 299.773C121.063 299.972 120.914 300.235 120.914 300.56C120.914 300.877 121.063 301.122 121.362 301.293C121.669 301.456 122.036 301.574 122.461 301.646C122.895 301.719 123.325 301.809 123.751 301.918C124.185 302.017 124.551 302.216 124.85 302.515C125.158 302.814 125.312 303.216 125.312 303.723C125.312 304.311 125.045 304.795 124.511 305.176C123.977 305.556 123.307 305.746 122.502 305.746C121.724 305.746 121.086 305.574 120.588 305.23C120.099 304.886 119.801 304.42 119.692 303.832ZM129.714 298.606C130.772 298.606 131.641 298.981 132.32 299.732C133.008 300.475 133.311 301.393 133.229 302.488H127.189C127.261 303.176 127.537 303.741 128.017 304.185C128.506 304.619 129.098 304.836 129.795 304.836C130.329 304.836 130.804 304.705 131.22 304.443C131.637 304.18 131.953 303.823 132.17 303.37L133.039 303.737C132.75 304.343 132.32 304.832 131.75 305.203C131.18 305.565 130.524 305.746 129.782 305.746C128.759 305.746 127.899 305.406 127.203 304.728C126.515 304.04 126.171 303.189 126.171 302.176C126.171 301.162 126.51 300.316 127.189 299.637C127.868 298.95 128.709 298.606 129.714 298.606ZM129.714 299.515C129.089 299.515 128.546 299.714 128.085 300.113C127.623 300.511 127.334 301.022 127.216 301.646H132.198C132.098 301.031 131.818 300.524 131.356 300.126C130.904 299.719 130.356 299.515 129.714 299.515ZM138.078 298.606C138.884 298.606 139.544 298.886 140.06 299.447C140.585 300.008 140.847 300.714 140.847 301.565V305.61H139.829V301.687C139.829 301.081 139.63 300.574 139.232 300.167C138.834 299.751 138.341 299.542 137.753 299.542C137.11 299.542 136.581 299.746 136.164 300.153C135.748 300.56 135.54 301.072 135.54 301.687V305.61H134.522V298.742H135.54V300.506C135.73 299.927 136.051 299.466 136.504 299.122C136.956 298.778 137.481 298.606 138.078 298.606ZM142.983 299.665H141.436V298.742H142.983V296.285L144.001 295.973V298.742H146.091V299.665H144.001V303.275C144.001 303.782 144.11 304.144 144.327 304.361C144.544 304.578 144.902 304.687 145.399 304.687H146.091V305.61H145.399C144.576 305.61 143.965 305.415 143.567 305.026C143.178 304.637 142.983 304.04 142.983 303.234V299.665ZM152.223 299.665H150.676V298.742H152.223V296.285L153.241 295.973V298.742H155.331V299.665H153.241V303.275C153.241 303.782 153.35 304.144 153.567 304.361C153.784 304.578 154.141 304.687 154.639 304.687H155.331V305.61H154.639C153.816 305.61 153.205 305.415 152.807 305.026C152.418 304.637 152.223 304.04 152.223 303.234V299.665ZM157.023 304.728C156.335 304.04 155.991 303.189 155.991 302.176C155.991 301.162 156.335 300.316 157.023 299.637C157.72 298.95 158.579 298.606 159.602 298.606C160.624 298.606 161.48 298.95 162.167 299.637C162.864 300.316 163.212 301.162 163.212 302.176C163.212 303.189 162.864 304.04 162.167 304.728C161.48 305.406 160.624 305.746 159.602 305.746C158.579 305.746 157.72 305.406 157.023 304.728ZM157.769 300.316C157.281 300.814 157.036 301.434 157.036 302.176C157.036 302.918 157.281 303.542 157.769 304.049C158.267 304.547 158.878 304.795 159.602 304.795C160.335 304.795 160.946 304.547 161.434 304.049C161.923 303.551 162.167 302.927 162.167 302.176C162.167 301.425 161.923 300.8 161.434 300.303C160.946 299.805 160.335 299.556 159.602 299.556C158.878 299.556 158.267 299.809 157.769 300.316ZM177.949 296.108V305.61H176.931V296.366L174.081 305.61H172.208L169.357 296.326V305.61H168.339V296.108H170.335L173.158 305.298L175.981 296.108H177.949ZM180.321 304.728C179.633 304.04 179.289 303.189 179.289 302.176C179.289 301.162 179.633 300.316 180.321 299.637C181.017 298.95 181.877 298.606 182.9 298.606C183.922 298.606 184.777 298.95 185.465 299.637C186.162 300.316 186.51 301.162 186.51 302.176C186.51 303.189 186.162 304.04 185.465 304.728C184.777 305.406 183.922 305.746 182.9 305.746C181.877 305.746 181.017 305.406 180.321 304.728ZM181.067 300.316C180.579 300.814 180.334 301.434 180.334 302.176C180.334 302.918 180.579 303.542 181.067 304.049C181.565 304.547 182.176 304.795 182.9 304.795C183.633 304.795 184.243 304.547 184.732 304.049C185.221 303.551 185.465 302.927 185.465 302.176C185.465 301.425 185.221 300.8 184.732 300.303C184.243 299.805 183.633 299.556 182.9 299.556C182.176 299.556 181.565 299.809 181.067 300.316ZM193.584 300.737V295.565H194.603V305.61H193.584V303.615C193.349 304.266 192.974 304.786 192.458 305.176C191.942 305.556 191.345 305.746 190.666 305.746C189.734 305.746 188.956 305.406 188.332 304.728C187.716 304.049 187.408 303.198 187.408 302.176C187.408 301.162 187.716 300.316 188.332 299.637C188.956 298.95 189.734 298.606 190.666 298.606C191.345 298.606 191.942 298.8 192.458 299.19C192.974 299.57 193.349 300.085 193.584 300.737ZM190.951 304.795C191.711 304.795 192.34 304.547 192.838 304.049C193.336 303.551 193.584 302.927 193.584 302.176C193.584 301.425 193.336 300.8 192.838 300.303C192.34 299.805 191.711 299.556 190.951 299.556C190.254 299.556 189.662 299.809 189.173 300.316C188.693 300.814 188.454 301.434 188.454 302.176C188.454 302.918 188.693 303.542 189.173 304.049C189.662 304.547 190.254 304.795 190.951 304.795ZM196.063 302.8V298.742H197.081V302.8C197.081 303.388 197.271 303.868 197.651 304.239C198.031 304.61 198.511 304.795 199.09 304.795C199.669 304.795 200.149 304.61 200.529 304.239C200.909 303.868 201.099 303.388 201.099 302.8V298.742H202.117V302.8C202.117 303.669 201.832 304.379 201.262 304.931C200.692 305.474 199.968 305.746 199.09 305.746C198.212 305.746 197.488 305.474 196.918 304.931C196.348 304.379 196.063 303.669 196.063 302.8ZM207.537 298.606C208.469 298.606 209.243 298.95 209.858 299.637C210.482 300.316 210.795 301.162 210.795 302.176C210.795 303.198 210.482 304.049 209.858 304.728C209.243 305.406 208.469 305.746 207.537 305.746C206.858 305.746 206.257 305.551 205.732 305.162C205.216 304.764 204.845 304.239 204.619 303.587V308.325H203.601V298.742H204.619V300.778C204.845 300.117 205.216 299.592 205.732 299.203C206.257 298.805 206.858 298.606 207.537 298.606ZM207.252 304.795C207.958 304.795 208.551 304.547 209.03 304.049C209.51 303.542 209.75 302.918 209.75 302.176C209.75 301.434 209.51 300.814 209.03 300.316C208.551 299.809 207.958 299.556 207.252 299.556C206.492 299.556 205.863 299.805 205.365 300.303C204.868 300.8 204.619 301.425 204.619 302.176C204.619 302.927 204.868 303.551 205.365 304.049C205.863 304.547 206.492 304.795 207.252 304.795ZM215.23 298.606C216.289 298.606 217.157 298.981 217.836 299.732C218.524 300.475 218.827 301.393 218.745 302.488H212.705C212.778 303.176 213.054 303.741 213.533 304.185C214.022 304.619 214.615 304.836 215.311 304.836C215.845 304.836 216.32 304.705 216.737 304.443C217.153 304.18 217.47 303.823 217.687 303.37L218.555 303.737C218.266 304.343 217.836 304.832 217.266 305.203C216.696 305.565 216.04 305.746 215.298 305.746C214.275 305.746 213.416 305.406 212.719 304.728C212.031 304.04 211.687 303.189 211.687 302.176C211.687 301.162 212.027 300.316 212.705 299.637C213.384 298.95 214.225 298.606 215.23 298.606ZM215.23 299.515C214.606 299.515 214.063 299.714 213.601 300.113C213.14 300.511 212.85 301.022 212.732 301.646H217.714C217.614 301.031 217.334 300.524 216.872 300.126C216.42 299.719 215.872 299.515 215.23 299.515ZM232.603 305.61H231.463L230.472 303.085H225.314L224.324 305.61H223.224L226.984 296.108H228.844L232.603 305.61ZM227.893 296.461L225.681 302.121H230.106L227.893 296.461ZM235.079 305.61H234.061V299.665H232.513V298.742H234.061V297.941C234.061 297.135 234.255 296.538 234.644 296.149C235.042 295.76 235.653 295.565 236.477 295.565H237.169V296.488H236.477C235.979 296.488 235.621 296.597 235.404 296.814C235.187 297.031 235.079 297.393 235.079 297.9V298.742H237.169V299.665H235.079V305.61ZM238.449 304.728C237.762 304.04 237.418 303.189 237.418 302.176C237.418 301.162 237.762 300.316 238.449 299.637C239.146 298.95 240.006 298.606 241.028 298.606C242.051 298.606 242.906 298.95 243.594 299.637C244.291 300.316 244.639 301.162 244.639 302.176C244.639 303.189 244.291 304.04 243.594 304.728C242.906 305.406 242.051 305.746 241.028 305.746C240.006 305.746 239.146 305.406 238.449 304.728ZM239.196 300.316C238.707 300.814 238.463 301.434 238.463 302.176C238.463 302.918 238.707 303.542 239.196 304.049C239.694 304.547 240.304 304.795 241.028 304.795C241.761 304.795 242.372 304.547 242.861 304.049C243.349 303.551 243.594 302.927 243.594 302.176C243.594 301.425 243.349 300.8 242.861 300.303C242.372 299.805 241.761 299.556 241.028 299.556C240.304 299.556 239.694 299.809 239.196 300.316ZM246.92 305.61H245.901V295.565H246.92V305.61ZM251.236 298.606C252.014 298.606 252.648 298.814 253.136 299.23C253.625 299.637 253.869 300.212 253.869 300.954V305.61H252.851V303.737C252.39 305.076 251.494 305.746 250.164 305.746C249.539 305.746 249.028 305.574 248.63 305.23C248.241 304.886 248.046 304.429 248.046 303.859C248.046 303.244 248.268 302.768 248.711 302.434C249.164 302.099 249.748 301.895 250.462 301.823L251.996 301.646C252.566 301.592 252.851 301.33 252.851 300.859C252.851 300.434 252.702 300.099 252.404 299.855C252.105 299.61 251.711 299.488 251.223 299.488C250.734 299.488 250.313 299.61 249.96 299.855C249.607 300.099 249.368 300.475 249.241 300.981L248.25 300.71C248.413 300.031 248.761 299.511 249.295 299.149C249.838 298.787 250.485 298.606 251.236 298.606ZM250.422 304.89C251.119 304.89 251.698 304.66 252.159 304.198C252.621 303.728 252.851 303.18 252.851 302.556V301.986C252.725 302.257 252.417 302.42 251.928 302.474L250.449 302.637C250.033 302.692 249.698 302.818 249.444 303.017C249.191 303.207 249.064 303.47 249.064 303.805C249.064 304.13 249.187 304.393 249.431 304.592C249.684 304.791 250.015 304.89 250.422 304.89ZM259.29 298.606C260.222 298.606 260.996 298.95 261.611 299.637C262.235 300.316 262.548 301.162 262.548 302.176C262.548 303.198 262.235 304.049 261.611 304.728C260.996 305.406 260.222 305.746 259.29 305.746C258.611 305.746 258.009 305.551 257.485 305.162C256.969 304.764 256.598 304.239 256.372 303.587V305.61H255.353V295.565H256.372V300.778C256.598 300.117 256.969 299.592 257.485 299.203C258.009 298.805 258.611 298.606 259.29 298.606ZM259.005 304.795C259.711 304.795 260.303 304.547 260.783 304.049C261.263 303.542 261.502 302.918 261.502 302.176C261.502 301.434 261.263 300.814 260.783 300.316C260.303 299.809 259.711 299.556 259.005 299.556C258.245 299.556 257.616 299.805 257.118 300.303C256.62 300.8 256.372 301.425 256.372 302.176C256.372 302.927 256.62 303.551 257.118 304.049C257.616 304.547 258.245 304.795 259.005 304.795ZM263.655 296.706C263.655 296.516 263.718 296.357 263.845 296.23C263.972 296.104 264.13 296.04 264.32 296.04C264.501 296.04 264.655 296.104 264.782 296.23C264.917 296.357 264.985 296.516 264.985 296.706C264.985 296.887 264.917 297.04 264.782 297.167C264.655 297.294 264.501 297.357 264.32 297.357C264.13 297.357 263.972 297.294 263.845 297.167C263.718 297.04 263.655 296.887 263.655 296.706ZM264.822 305.61H263.804V298.742H264.822V305.61ZM272.243 305.61H271.225V299.665H269.678V298.742H271.225V297.941C271.225 297.135 271.42 296.538 271.809 296.149C272.207 295.76 272.818 295.565 273.641 295.565H274.334V296.488H273.641C273.144 296.488 272.786 296.597 272.569 296.814C272.352 297.031 272.243 297.393 272.243 297.9V298.742H274.334V299.665H272.243V305.61ZM275.614 304.728C274.926 304.04 274.583 303.189 274.583 302.176C274.583 301.162 274.926 300.316 275.614 299.637C276.311 298.95 277.171 298.606 278.193 298.606C279.216 298.606 280.071 298.95 280.759 299.637C281.455 300.316 281.804 301.162 281.804 302.176C281.804 303.189 281.455 304.04 280.759 304.728C280.071 305.406 279.216 305.746 278.193 305.746C277.171 305.746 276.311 305.406 275.614 304.728ZM276.361 300.316C275.872 300.814 275.628 301.434 275.628 302.176C275.628 302.918 275.872 303.542 276.361 304.049C276.858 304.547 277.469 304.795 278.193 304.795C278.926 304.795 279.537 304.547 280.026 304.049C280.514 303.551 280.759 302.927 280.759 302.176C280.759 301.425 280.514 300.8 280.026 300.303C279.537 299.805 278.926 299.556 278.193 299.556C277.469 299.556 276.858 299.809 276.361 300.316ZM284.084 298.742V300.588C284.32 299.8 284.681 299.253 285.17 298.945C285.668 298.638 286.238 298.543 286.88 298.66V299.651C286.111 299.479 285.451 299.597 284.899 300.004C284.356 300.402 284.084 300.963 284.084 301.687V305.61H283.066V298.742H284.084ZM301.063 305.271L303.329 296.108H304.415L302.04 305.61H300.058L297.927 296.434L295.782 305.61H293.828L291.452 296.108H292.525L294.819 305.243L296.95 296.108H298.918L301.063 305.271ZM307.779 298.606C308.838 298.606 309.707 298.981 310.386 299.732C311.073 300.475 311.377 301.393 311.295 302.488H305.255C305.327 303.176 305.603 303.741 306.083 304.185C306.571 304.619 307.164 304.836 307.861 304.836C308.395 304.836 308.87 304.705 309.286 304.443C309.702 304.18 310.019 303.823 310.236 303.37L311.105 303.737C310.815 304.343 310.386 304.832 309.816 305.203C309.245 305.565 308.589 305.746 307.847 305.746C306.825 305.746 305.965 305.406 305.268 304.728C304.581 304.04 304.237 303.189 304.237 302.176C304.237 301.162 304.576 300.316 305.255 299.637C305.933 298.95 306.775 298.606 307.779 298.606ZM307.779 299.515C307.155 299.515 306.612 299.714 306.151 300.113C305.689 300.511 305.4 301.022 305.282 301.646H310.263C310.164 301.031 309.883 300.524 309.422 300.126C308.969 299.719 308.422 299.515 307.779 299.515ZM313.606 305.61H312.588V295.565H313.606V305.61ZM317.162 305.61H316.144V299.665H314.597V298.742H316.144V297.941C316.144 297.135 316.339 296.538 316.728 296.149C317.126 295.76 317.737 295.565 318.561 295.565H319.253V296.488H318.561C318.063 296.488 317.705 296.597 317.488 296.814C317.271 297.031 317.162 297.393 317.162 297.9V298.742H319.253V299.665H317.162V305.61ZM322.675 298.606C323.453 298.606 324.087 298.814 324.575 299.23C325.064 299.637 325.308 300.212 325.308 300.954V305.61H324.29V303.737C323.829 305.076 322.933 305.746 321.603 305.746C320.978 305.746 320.467 305.574 320.069 305.23C319.68 304.886 319.485 304.429 319.485 303.859C319.485 303.244 319.707 302.768 320.15 302.434C320.603 302.099 321.187 301.895 321.901 301.823L323.435 301.646C324.005 301.592 324.29 301.33 324.29 300.859C324.29 300.434 324.141 300.099 323.842 299.855C323.544 299.61 323.15 299.488 322.662 299.488C322.173 299.488 321.752 299.61 321.399 299.855C321.046 300.099 320.806 300.475 320.68 300.981L319.689 300.71C319.852 300.031 320.2 299.511 320.734 299.149C321.277 298.787 321.924 298.606 322.675 298.606ZM321.861 304.89C322.557 304.89 323.137 304.66 323.598 304.198C324.06 303.728 324.29 303.18 324.29 302.556V301.986C324.164 302.257 323.856 302.42 323.367 302.474L321.888 302.637C321.472 302.692 321.137 302.818 320.883 303.017C320.63 303.207 320.503 303.47 320.503 303.805C320.503 304.13 320.625 304.393 320.87 304.592C321.123 304.791 321.453 304.89 321.861 304.89ZM327.81 298.742V300.588C328.046 299.8 328.408 299.253 328.896 298.945C329.394 298.638 329.964 298.543 330.607 298.66V299.651C329.837 299.479 329.177 299.597 328.625 300.004C328.082 300.402 327.81 300.963 327.81 301.687V305.61H326.792V298.742H327.81ZM334.153 298.606C335.212 298.606 336.081 298.981 336.76 299.732C337.447 300.475 337.75 301.393 337.669 302.488H331.629C331.701 303.176 331.977 303.741 332.457 304.185C332.945 304.619 333.538 304.836 334.235 304.836C334.769 304.836 335.244 304.705 335.66 304.443C336.076 304.18 336.393 303.823 336.61 303.37L337.479 303.737C337.189 304.343 336.76 304.832 336.189 305.203C335.619 305.565 334.963 305.746 334.221 305.746C333.199 305.746 332.339 305.406 331.642 304.728C330.955 304.04 330.611 303.189 330.611 302.176C330.611 301.162 330.95 300.316 331.629 299.637C332.307 298.95 333.149 298.606 334.153 298.606ZM334.153 299.515C333.529 299.515 332.986 299.714 332.525 300.113C332.063 300.511 331.774 301.022 331.656 301.646H336.637C336.538 301.031 336.257 300.524 335.796 300.126C335.343 299.719 334.796 299.515 334.153 299.515Z" fill="#101840"/>
<path d="M328.312 331.207H13.5736V332.027H328.312V331.207Z" fill="#EDEFF5" mask="url(#path-17-inside-3_20_1057)"/>
</svg>
