<svg width="419" height="503" viewBox="0 0 419 503" fill="none" xmlns="http://www.w3.org/2000/svg">
<rect width="329" height="118" rx="13.913" fill="white" fill-opacity="0.08"/>
<rect x="51.1486" y="45" width="367.851" height="457.021" rx="12.1103" fill="white"/>
<path d="M94.5753 87.3351H92.6263L90.9326 83.0195H82.1157L80.422 87.3351H78.5426L84.9696 71.0936H88.1483L94.5753 87.3351ZM86.5242 71.6968L82.7422 81.3722H90.3061L86.5242 71.6968ZM96.9384 85.827C95.7629 84.6514 95.1751 83.1974 95.1751 81.465C95.1751 79.7325 95.7629 78.2863 96.9384 77.1261C98.1295 75.9506 99.599 75.3628 101.347 75.3628C102.615 75.3628 103.744 75.6953 104.734 76.3605C105.74 77.0101 106.482 77.8996 106.962 79.0287L105.361 79.5856C105.005 78.7812 104.471 78.147 103.76 77.683C103.048 77.219 102.244 76.9869 101.347 76.9869C100.109 76.9869 99.0653 77.42 98.2146 78.2863C97.3793 79.137 96.9616 80.1966 96.9616 81.465C96.9616 82.7333 97.3793 83.8006 98.2146 84.6669C99.0653 85.5176 100.109 85.943 101.347 85.943C102.244 85.943 103.048 85.711 103.76 85.2469C104.471 84.7829 105.005 84.1487 105.361 83.3443L106.962 83.9012C106.482 85.0304 105.74 85.9275 104.734 86.5926C103.744 87.2423 102.615 87.5671 101.347 87.5671C99.599 87.5671 98.1295 86.9871 96.9384 85.827ZM110.292 85.827C109.116 84.6514 108.528 83.1974 108.528 81.465C108.528 79.7325 109.116 78.2863 110.292 77.1261C111.483 75.9506 112.952 75.3628 114.7 75.3628C115.969 75.3628 117.098 75.6953 118.088 76.3605C119.093 77.0101 119.836 77.8996 120.315 79.0287L118.714 79.5856C118.358 78.7812 117.825 78.147 117.113 77.683C116.402 77.219 115.597 76.9869 114.7 76.9869C113.463 76.9869 112.419 77.42 111.568 78.2863C110.733 79.137 110.315 80.1966 110.315 81.465C110.315 82.7333 110.733 83.8006 111.568 84.6669C112.419 85.5176 113.463 85.943 114.7 85.943C115.597 85.943 116.402 85.711 117.113 85.2469C117.825 84.7829 118.358 84.1487 118.714 83.3443L120.315 83.9012C119.836 85.0304 119.093 85.9275 118.088 86.5926C117.098 87.2423 115.969 87.5671 114.7 87.5671C112.952 87.5671 111.483 86.9871 110.292 85.827ZM123.645 85.827C122.47 84.6514 121.882 83.1974 121.882 81.465C121.882 79.7325 122.47 78.2863 123.645 77.1261C124.836 75.9506 126.306 75.3628 128.054 75.3628C129.801 75.3628 131.263 75.9506 132.439 77.1261C133.63 78.2863 134.225 79.7325 134.225 81.465C134.225 83.1974 133.63 84.6514 132.439 85.827C131.263 86.9871 129.801 87.5671 128.054 87.5671C126.306 87.5671 124.836 86.9871 123.645 85.827ZM124.921 78.2863C124.086 79.137 123.668 80.1966 123.668 81.465C123.668 82.7333 124.086 83.8006 124.921 84.6669C125.772 85.5176 126.816 85.943 128.054 85.943C129.306 85.943 130.351 85.5176 131.186 84.6669C132.021 83.8161 132.439 82.7488 132.439 81.465C132.439 80.1811 132.021 79.1138 131.186 78.2631C130.351 77.4123 129.306 76.9869 128.054 76.9869C126.816 76.9869 125.772 77.42 124.921 78.2863ZM136.263 82.5323V75.5948H138.003V82.5323C138.003 83.5377 138.328 84.3575 138.978 84.9917C139.627 85.6259 140.447 85.943 141.437 85.943C142.427 85.943 143.247 85.6259 143.896 84.9917C144.546 84.3575 144.871 83.5377 144.871 82.5323V75.5948H146.611V82.5323C146.611 84.0172 146.124 85.2314 145.149 86.175C144.175 87.1031 142.937 87.5671 141.437 87.5671C139.937 87.5671 138.699 87.1031 137.725 86.175C136.75 85.2314 136.263 84.0172 136.263 82.5323ZM155.335 75.3628C156.712 75.3628 157.841 75.8423 158.723 76.8013C159.62 77.7603 160.069 78.9669 160.069 80.4209V87.3351H158.328V80.6297C158.328 79.5933 157.988 78.7271 157.308 78.031C156.627 77.3195 155.784 76.9637 154.779 76.9637C153.68 76.9637 152.775 77.3118 152.064 78.0078C151.352 78.7039 150.997 79.5778 150.997 80.6297V87.3351H149.256V75.5948H150.997V78.6111C151.321 77.6211 151.871 76.8323 152.644 76.2445C153.417 75.6567 154.314 75.3628 155.335 75.3628ZM163.828 77.1726H161.183V75.5948H163.828V71.3952L165.568 70.8616V75.5948H169.142V77.1726H165.568V83.3443C165.568 84.2106 165.754 84.8293 166.125 85.2005C166.496 85.5717 167.107 85.7574 167.958 85.7574H169.142V87.3351H167.958C166.551 87.3351 165.507 87.0025 164.826 86.3374C164.161 85.6723 163.828 84.6514 163.828 83.2747V77.1726ZM170.305 84.2956L172.068 83.9476C172.316 85.3861 173.329 86.1054 175.108 86.1054C176.005 86.1054 176.732 85.9275 177.289 85.5717C177.861 85.2005 178.147 84.7287 178.147 84.1564C178.147 83.5686 177.884 83.12 177.358 82.8107C176.848 82.5013 176.229 82.2848 175.502 82.161C174.775 82.0218 174.04 81.8749 173.298 81.7202C172.571 81.55 171.944 81.2252 171.419 80.7457C170.908 80.2662 170.653 79.6088 170.653 78.7735C170.653 77.7835 171.071 76.9715 171.906 76.3373C172.741 75.6876 173.808 75.3628 175.108 75.3628C176.376 75.3628 177.412 75.6567 178.217 76.2445C179.021 76.8323 179.516 77.6289 179.702 78.6343L177.962 78.9823C177.699 77.5593 176.747 76.8477 175.108 76.8477C174.319 76.8477 173.669 77.0179 173.159 77.3582C172.648 77.6985 172.393 78.147 172.393 78.7039C172.393 79.2453 172.648 79.6629 173.159 79.9568C173.685 80.2352 174.311 80.4363 175.038 80.5601C175.781 80.6838 176.515 80.8385 177.242 81.0241C177.985 81.1943 178.611 81.5346 179.122 82.045C179.648 82.5555 179.911 83.2438 179.911 84.11C179.911 85.1154 179.454 85.943 178.542 86.5926C177.629 87.2423 176.484 87.5671 175.108 87.5671C173.777 87.5671 172.687 87.2732 171.836 86.6855C171.001 86.0977 170.49 85.3011 170.305 84.2956Z" fill="#101840"/>
<mask id="path-4-inside-1_20_1044" fill="white">
<path d="M66.6167 105.069H403.532V232.01H66.6167V105.069Z"/>
</mask>
<path d="M66.6167 105.069H403.532V232.01H66.6167V105.069Z" fill="white"/>
<path d="M89.6256 143.537H87.8158V128.943H82.3169V127.296H95.1245V128.943H89.6256V143.537ZM96.3507 128.317C96.3507 127.992 96.459 127.721 96.6755 127.505C96.8921 127.288 97.1628 127.18 97.4876 127.18C97.797 127.18 98.0599 127.288 98.2765 127.505C98.5085 127.721 98.6245 127.992 98.6245 128.317C98.6245 128.626 98.5085 128.889 98.2765 129.106C98.0599 129.322 97.797 129.43 97.4876 129.43C97.1628 129.43 96.8921 129.322 96.6755 129.106C96.459 128.889 96.3507 128.626 96.3507 128.317ZM98.3461 143.537H96.6059V131.797H98.3461V143.537ZM102.794 133.375H100.149V131.797H102.794V127.597L104.534 127.064V131.797H108.107V133.375H104.534V139.547C104.534 140.413 104.72 141.032 105.091 141.403C105.462 141.774 106.073 141.96 106.924 141.96H108.107V143.537H106.924C105.517 143.537 104.472 143.205 103.792 142.54C103.127 141.875 102.794 140.854 102.794 139.477V133.375ZM116.454 131.565C117.83 131.565 118.959 132.045 119.841 133.004C120.738 133.963 121.187 135.169 121.187 136.623V143.537H119.447V136.832C119.447 135.796 119.106 134.929 118.426 134.233C117.745 133.522 116.902 133.166 115.897 133.166C114.799 133.166 113.894 133.514 113.182 134.21C112.471 134.906 112.115 135.78 112.115 136.832V143.537H110.375V126.368H112.115V134.813C112.44 133.823 112.989 133.034 113.762 132.447C114.536 131.859 115.433 131.565 116.454 131.565ZM129.41 131.565C131.22 131.565 132.705 132.207 133.865 133.491C135.041 134.759 135.559 136.329 135.42 138.201H125.095C125.218 139.376 125.69 140.343 126.51 141.101C127.345 141.844 128.359 142.215 129.55 142.215C130.462 142.215 131.274 141.991 131.986 141.542C132.697 141.093 133.239 140.482 133.61 139.709L135.095 140.335C134.6 141.372 133.865 142.207 132.891 142.841C131.916 143.46 130.795 143.769 129.526 143.769C127.778 143.769 126.309 143.189 125.118 142.029C123.942 140.854 123.355 139.4 123.355 137.667C123.355 135.935 123.935 134.488 125.095 133.328C126.255 132.153 127.693 131.565 129.41 131.565ZM129.41 133.12C128.343 133.12 127.415 133.46 126.626 134.14C125.837 134.821 125.342 135.695 125.141 136.762H133.656C133.486 135.71 133.007 134.844 132.218 134.164C131.444 133.468 130.509 133.12 129.41 133.12Z" fill="#101840"/>
<path d="M84.2813 183.675H83.0748V172.848H87.1584C88.1793 172.848 89.0094 173.157 89.6488 173.776C90.2984 174.384 90.6232 175.152 90.6232 176.08C90.6232 176.998 90.2984 177.766 89.6488 178.385C89.0094 178.994 88.1793 179.298 87.1584 179.298H84.2813V183.675ZM84.2813 173.946V178.2H87.1584C87.808 178.2 88.3391 177.998 88.7516 177.596C89.1744 177.184 89.3858 176.673 89.3858 176.065C89.3858 175.457 89.1744 174.951 88.7516 174.549C88.3391 174.147 87.808 173.946 87.1584 173.946H84.2813ZM100.271 183.675H98.9714L97.8423 180.798H91.9644L90.8352 183.675H89.5823L93.867 172.848H95.9861L100.271 183.675ZM94.9033 173.25L92.382 179.7H97.4246L94.9033 173.25ZM108.727 172.848L104.612 179.917V182.577H106.731V183.675H101.302V182.577H103.406V179.917L99.3067 172.848H100.73L104.055 178.725L107.366 172.848H108.727ZM113.773 183.675H112.567V173.946H108.901V172.848H117.439V173.946H113.773V183.675ZM118.906 182.221C117.833 181.149 117.297 179.829 117.297 178.261C117.297 176.694 117.833 175.374 118.906 174.302C119.988 173.229 121.324 172.693 122.912 172.693C124.5 172.693 125.83 173.229 126.903 174.302C127.985 175.374 128.527 176.694 128.527 178.261C128.527 179.829 127.985 181.149 126.903 182.221C125.83 183.294 124.5 183.83 122.912 183.83C121.324 183.83 119.988 183.294 118.906 182.221ZM119.803 175.106C118.957 175.962 118.534 177.014 118.534 178.261C118.534 179.509 118.957 180.566 119.803 181.432C120.648 182.288 121.685 182.716 122.912 182.716C124.149 182.716 125.186 182.288 126.021 181.432C126.866 180.576 127.289 179.519 127.289 178.261C127.289 177.003 126.866 175.946 126.021 175.09C125.186 174.235 124.149 173.807 122.912 173.807C121.685 173.807 120.648 174.24 119.803 175.106ZM129.686 180.891L130.892 180.644C130.996 181.314 131.289 181.835 131.774 182.206C132.269 182.567 132.919 182.747 133.723 182.747C134.486 182.747 135.105 182.572 135.579 182.221C136.054 181.871 136.291 181.422 136.291 180.876C136.291 180.473 136.172 180.133 135.935 179.855C135.708 179.576 135.409 179.36 135.038 179.205C134.667 179.05 134.254 178.916 133.8 178.803C133.357 178.679 132.908 178.545 132.455 178.401C132.001 178.246 131.589 178.065 131.217 177.859C130.846 177.653 130.542 177.359 130.305 176.978C130.078 176.596 129.964 176.137 129.964 175.601C129.964 174.766 130.305 174.075 130.985 173.528C131.676 172.971 132.542 172.693 133.584 172.693C134.625 172.693 135.486 172.966 136.167 173.513C136.858 174.059 137.27 174.766 137.405 175.632L136.183 175.879C136.09 175.25 135.806 174.74 135.332 174.348C134.868 173.956 134.28 173.76 133.568 173.76C132.878 173.76 132.31 173.93 131.867 174.271C131.424 174.611 131.202 175.039 131.202 175.554C131.202 175.946 131.315 176.276 131.542 176.544C131.779 176.802 132.084 177.003 132.455 177.148C132.826 177.282 133.238 177.411 133.692 177.534C134.146 177.648 134.594 177.782 135.038 177.937C135.492 178.081 135.904 178.261 136.275 178.478C136.647 178.695 136.946 179.004 137.173 179.406C137.41 179.798 137.528 180.277 137.528 180.845C137.528 181.711 137.162 182.428 136.43 182.995C135.698 183.552 134.785 183.83 133.692 183.83C132.589 183.83 131.676 183.567 130.954 183.041C130.232 182.515 129.81 181.798 129.686 180.891ZM140.295 182.221C139.223 181.149 138.686 179.829 138.686 178.261C138.686 176.694 139.223 175.374 140.295 174.302C141.378 173.229 142.713 172.693 144.301 172.693C145.889 172.693 147.22 173.229 148.292 174.302C149.375 175.374 149.916 176.694 149.916 178.261C149.916 179.829 149.375 181.149 148.292 182.221C147.22 183.294 145.889 183.83 144.301 183.83C142.713 183.83 141.378 183.294 140.295 182.221ZM141.192 175.106C140.347 175.962 139.924 177.014 139.924 178.261C139.924 179.509 140.347 180.566 141.192 181.432C142.038 182.288 143.074 182.716 144.301 182.716C145.539 182.716 146.575 182.288 147.41 181.432C148.256 180.576 148.679 179.519 148.679 178.261C148.679 177.003 148.256 175.946 147.41 175.09C146.575 174.235 145.539 173.807 144.301 173.807C143.074 173.807 142.038 174.24 141.192 175.106ZM161.285 183.289L163.868 172.848H165.106L162.399 183.675H160.141L157.712 173.219L155.268 183.675H153.041L150.334 172.848H151.556L154.17 183.258L156.598 172.848H158.841L161.285 183.289ZM175.011 183.675H173.805V173.946H170.139V172.848H178.677V173.946H175.011V183.675ZM186.251 183.675H179.584V172.848H186.251V173.946H180.791V177.72H186.097V178.803H180.791V182.577H186.251V183.675ZM188.814 182.221C187.742 181.149 187.206 179.829 187.206 178.261C187.206 176.694 187.742 175.374 188.814 174.302C189.897 173.229 191.232 172.693 192.82 172.693C193.965 172.693 194.976 172.992 195.852 173.59C196.729 174.178 197.368 174.92 197.77 175.817L196.672 176.281C196.332 175.549 195.816 174.956 195.125 174.503C194.445 174.039 193.676 173.807 192.82 173.807C191.593 173.807 190.557 174.24 189.711 175.106C188.866 175.962 188.443 177.014 188.443 178.261C188.443 179.509 188.866 180.566 189.711 181.432C190.557 182.288 191.593 182.716 192.82 182.716C193.676 182.716 194.445 182.489 195.125 182.036C195.816 181.572 196.332 180.973 196.672 180.241L197.77 180.705C197.368 181.603 196.729 182.35 195.852 182.948C194.976 183.536 193.965 183.83 192.82 183.83C191.232 183.83 189.897 183.294 188.814 182.221ZM200.413 183.675H199.207V172.848H200.413V177.72H207.049V172.848H208.255V183.675H207.049V178.803H200.413V183.675ZM217.927 183.428V172.848H219.134V183.675H216.767L211.199 173.111V183.675H209.992V172.848H212.359L217.927 183.428ZM222.167 182.221C221.095 181.149 220.559 179.829 220.559 178.261C220.559 176.694 221.095 175.374 222.167 174.302C223.25 173.229 224.586 172.693 226.174 172.693C227.762 172.693 229.092 173.229 230.164 174.302C231.247 175.374 231.789 176.694 231.789 178.261C231.789 179.829 231.247 181.149 230.164 182.221C229.092 183.294 227.762 183.83 226.174 183.83C224.586 183.83 223.25 183.294 222.167 182.221ZM223.064 175.106C222.219 175.962 221.796 177.014 221.796 178.261C221.796 179.509 222.219 180.566 223.064 181.432C223.91 182.288 224.946 182.716 226.174 182.716C227.411 182.716 228.447 182.288 229.283 181.432C230.128 180.576 230.551 179.519 230.551 178.261C230.551 177.003 230.128 175.946 229.283 175.09C228.447 174.235 227.411 173.807 226.174 173.807C224.946 173.807 223.91 174.24 223.064 175.106ZM239.891 183.675H233.224V172.848H234.431V182.577H239.891V183.675ZM241.457 182.221C240.385 181.149 239.849 179.829 239.849 178.261C239.849 176.694 240.385 175.374 241.457 174.302C242.54 173.229 243.875 172.693 245.463 172.693C247.051 172.693 248.382 173.229 249.454 174.302C250.537 175.374 251.078 176.694 251.078 178.261C251.078 179.829 250.537 181.149 249.454 182.221C248.382 183.294 247.051 183.83 245.463 183.83C243.875 183.83 242.54 183.294 241.457 182.221ZM242.354 175.106C241.509 175.962 241.086 177.014 241.086 178.261C241.086 179.509 241.509 180.566 242.354 181.432C243.2 182.288 244.236 182.716 245.463 182.716C246.701 182.716 247.737 182.288 248.573 181.432C249.418 180.576 249.841 179.519 249.841 178.261C249.841 177.003 249.418 175.946 248.573 175.09C247.737 174.235 246.701 173.807 245.463 173.807C244.236 173.807 243.2 174.24 242.354 175.106ZM256.863 177.828H263.174C263.257 178.963 263.051 179.994 262.556 180.922C262.071 181.85 261.395 182.567 260.529 183.072C259.673 183.577 258.735 183.83 257.714 183.83C256.126 183.83 254.791 183.294 253.708 182.221C252.635 181.149 252.099 179.829 252.099 178.261C252.099 176.694 252.635 175.374 253.708 174.302C254.791 173.229 256.126 172.693 257.714 172.693C258.859 172.693 259.869 172.992 260.746 173.59C261.622 174.178 262.262 174.92 262.664 175.817L261.566 176.281C261.225 175.549 260.71 174.956 260.019 174.503C259.338 174.039 258.57 173.807 257.714 173.807C256.487 173.807 255.451 174.24 254.605 175.106C253.759 175.962 253.337 177.014 253.337 178.261C253.337 179.509 253.759 180.566 254.605 181.432C255.451 182.288 256.487 182.716 257.714 182.716C258.859 182.716 259.818 182.35 260.591 181.618C261.365 180.876 261.792 179.978 261.875 178.927H256.863V177.828ZM265.971 183.675H264.765V172.848H265.971V183.675ZM274.377 183.675H267.71V172.848H274.377V173.946H268.917V177.72H274.223V178.803H268.917V182.577H274.377V183.675ZM275.44 180.891L276.646 180.644C276.749 181.314 277.043 181.835 277.528 182.206C278.023 182.567 278.673 182.747 279.477 182.747C280.24 182.747 280.859 182.572 281.333 182.221C281.808 181.871 282.045 181.422 282.045 180.876C282.045 180.473 281.926 180.133 281.689 179.855C281.462 179.576 281.163 179.36 280.792 179.205C280.421 179.05 280.008 178.916 279.554 178.803C279.111 178.679 278.662 178.545 278.209 178.401C277.755 178.246 277.342 178.065 276.971 177.859C276.6 177.653 276.296 177.359 276.059 176.978C275.832 176.596 275.718 176.137 275.718 175.601C275.718 174.766 276.059 174.075 276.739 173.528C277.43 172.971 278.296 172.693 279.338 172.693C280.379 172.693 281.24 172.966 281.921 173.513C282.612 174.059 283.024 174.766 283.158 175.632L281.936 175.879C281.844 175.25 281.56 174.74 281.086 174.348C280.622 173.956 280.034 173.76 279.322 173.76C278.631 173.76 278.064 173.93 277.621 174.271C277.177 174.611 276.956 175.039 276.956 175.554C276.956 175.946 277.069 176.276 277.296 176.544C277.533 176.802 277.837 177.003 278.209 177.148C278.58 177.282 278.992 177.411 279.446 177.534C279.9 177.648 280.348 177.782 280.792 177.937C281.246 178.081 281.658 178.261 282.029 178.478C282.4 178.695 282.7 179.004 282.926 179.406C283.164 179.798 283.282 180.277 283.282 180.845C283.282 181.711 282.916 182.428 282.184 182.995C281.452 183.552 280.539 183.83 279.446 183.83C278.343 183.83 277.43 183.567 276.708 183.041C275.986 182.515 275.564 181.798 275.44 180.891Z" fill="#101840"/>
<path d="M87.3131 198.56V208.444H90.1747V209.542H82.7654V208.444H86.1066V199.937L82.7654 200.818V199.736L87.3131 198.56ZM96.5705 204.902L92.9046 208.444H98.5504V209.542H91.1721V208.568L95.7816 204.067C96.6066 203.242 97.0191 202.442 97.0191 201.669C97.0191 201.071 96.818 200.591 96.4158 200.23C96.024 199.859 95.5032 199.674 94.8535 199.674C94.0801 199.674 93.482 199.9 93.0592 200.354C92.6364 200.808 92.425 201.422 92.425 202.195H91.2031C91.2031 201.102 91.5279 200.225 92.1775 199.565C92.8375 198.895 93.7398 198.56 94.8845 198.56C95.8951 198.56 96.7097 198.844 97.3284 199.411C97.9472 199.968 98.2565 200.715 98.2565 201.654C98.2565 202.747 97.6945 203.829 96.5705 204.902ZM106.6 199.689L103.583 203.123C104.635 203.175 105.46 203.499 106.058 204.098C106.656 204.696 106.956 205.459 106.956 206.387C106.956 207.346 106.615 208.14 105.935 208.769C105.254 209.388 104.341 209.697 103.197 209.697C102.083 209.697 101.196 209.408 100.536 208.831C99.8866 208.243 99.5257 207.444 99.4535 206.433L100.691 206.294C100.743 206.995 100.985 207.552 101.418 207.965C101.851 208.377 102.444 208.583 103.197 208.583C103.98 208.583 104.594 208.372 105.037 207.949C105.491 207.526 105.718 206.985 105.718 206.325C105.718 205.665 105.486 205.129 105.022 204.716C104.568 204.293 103.888 204.082 102.98 204.082H102.284V203.092L105.146 199.813H99.933V198.715H106.6V199.689ZM114.776 198.715V205.938H116.339V207.021H114.776V209.542H113.57V207.021H107.769V205.938L112.549 198.715H114.776ZM113.57 199.117L109.1 205.938H113.57V199.117ZM121.736 202.814C122.623 202.814 123.381 203.102 124.01 203.68C124.649 204.257 124.969 205.082 124.969 206.155C124.969 207.176 124.608 208.021 123.886 208.692C123.164 209.362 122.247 209.697 121.133 209.697C120.071 209.697 119.21 209.419 118.55 208.862C117.9 208.295 117.534 207.542 117.452 206.603L118.689 206.464C118.741 207.093 118.983 207.604 119.416 207.995C119.849 208.387 120.421 208.583 121.133 208.583C121.886 208.583 122.504 208.356 122.989 207.903C123.484 207.439 123.732 206.856 123.732 206.155C123.732 205.412 123.505 204.819 123.051 204.376C122.597 203.933 121.989 203.711 121.226 203.711C120.225 203.711 119.468 204.082 118.952 204.825L117.807 204.654L118.534 198.715H124.134V199.813H119.509L118.967 204.175C119.565 203.267 120.488 202.814 121.736 202.814ZM131.258 198.715L128.257 203.618C128.711 203.226 129.242 202.999 129.851 202.937C130.459 202.876 131.026 202.958 131.552 203.185C132.088 203.401 132.542 203.778 132.913 204.314C133.295 204.84 133.486 205.454 133.486 206.155C133.486 207.165 133.13 208.011 132.418 208.692C131.717 209.362 130.815 209.697 129.711 209.697C128.608 209.697 127.701 209.362 126.989 208.692C126.288 208.021 125.937 207.176 125.937 206.155C125.937 205.464 126.174 204.737 126.649 203.974L129.866 198.715H131.258ZM127.886 207.903C128.371 208.356 128.979 208.583 129.711 208.583C130.444 208.583 131.047 208.356 131.521 207.903C132.006 207.439 132.248 206.856 132.248 206.155C132.248 205.454 132.006 204.871 131.521 204.407C131.047 203.943 130.444 203.711 129.711 203.711C128.979 203.711 128.371 203.943 127.886 204.407C127.412 204.871 127.175 205.454 127.175 206.155C127.175 206.856 127.412 207.439 127.886 207.903ZM134.087 198.715H141.434V199.689L139.625 203.587H141.434V204.67H139.114L136.84 209.542H135.51L137.815 204.67H134.087V203.587H138.325L140.104 199.813H134.087V198.715ZM147.636 203.989C148.45 204.175 149.1 204.52 149.585 205.026C150.069 205.521 150.312 206.093 150.312 206.743C150.312 207.588 149.94 208.295 149.198 208.862C148.455 209.419 147.502 209.697 146.336 209.697C145.161 209.697 144.202 209.419 143.459 208.862C142.717 208.295 142.346 207.588 142.346 206.743C142.346 206.093 142.588 205.521 143.073 205.026C143.568 204.52 144.222 204.175 145.037 203.989C144.377 203.783 143.846 203.448 143.444 202.984C143.042 202.52 142.841 201.989 142.841 201.391C142.841 200.597 143.17 199.926 143.83 199.38C144.501 198.833 145.336 198.56 146.336 198.56C147.326 198.56 148.156 198.833 148.827 199.38C149.497 199.926 149.832 200.597 149.832 201.391C149.832 201.989 149.631 202.52 149.229 202.984C148.827 203.448 148.296 203.783 147.636 203.989ZM144.697 200.215C144.264 200.576 144.047 201.03 144.047 201.576C144.047 202.123 144.264 202.576 144.697 202.937C145.13 203.298 145.676 203.479 146.336 203.479C146.986 203.479 147.527 203.298 147.96 202.937C148.404 202.576 148.626 202.123 148.626 201.576C148.626 201.03 148.404 200.576 147.96 200.215C147.527 199.844 146.986 199.658 146.336 199.658C145.676 199.658 145.13 199.844 144.697 200.215ZM146.336 208.599C147.141 208.599 147.801 208.408 148.316 208.026C148.842 207.645 149.105 207.16 149.105 206.572C149.105 205.974 148.842 205.484 148.316 205.103C147.801 204.711 147.141 204.515 146.336 204.515C145.532 204.515 144.867 204.711 144.341 205.103C143.815 205.484 143.552 205.974 143.552 206.572C143.552 207.16 143.81 207.645 144.325 208.026C144.851 208.408 145.522 208.599 146.336 208.599ZM152.231 199.581C152.942 198.9 153.849 198.56 154.953 198.56C156.056 198.56 156.959 198.895 157.66 199.565C158.371 200.236 158.727 201.081 158.727 202.102C158.727 202.793 158.49 203.52 158.016 204.283L154.783 209.542H153.406L156.438 204.608C155.984 205.01 155.448 205.247 154.829 205.319C154.221 205.381 153.648 205.304 153.112 205.087C152.576 204.861 152.117 204.484 151.736 203.958C151.364 203.422 151.179 202.803 151.179 202.102C151.179 201.092 151.529 200.251 152.231 199.581ZM153.128 203.85C153.612 204.314 154.221 204.546 154.953 204.546C155.685 204.546 156.288 204.314 156.763 203.85C157.247 203.386 157.49 202.803 157.49 202.102C157.49 201.401 157.247 200.823 156.763 200.37C156.288 199.906 155.685 199.674 154.953 199.674C154.221 199.674 153.612 199.906 153.128 200.37C152.653 200.823 152.416 201.401 152.416 202.102C152.416 202.803 152.653 203.386 153.128 203.85ZM160.984 208.104C160.17 207.042 159.762 205.717 159.762 204.128C159.762 202.54 160.17 201.215 160.984 200.153C161.799 199.091 162.825 198.56 164.062 198.56C165.31 198.56 166.336 199.091 167.141 200.153C167.955 201.205 168.363 202.53 168.363 204.128C168.363 205.727 167.955 207.057 167.141 208.119C166.336 209.171 165.31 209.697 164.062 209.697C162.825 209.697 161.799 209.166 160.984 208.104ZM161.866 200.942C161.288 201.788 161 202.85 161 204.128C161 205.407 161.288 206.469 161.866 207.315C162.443 208.16 163.176 208.583 164.062 208.583C164.949 208.583 165.681 208.16 166.259 207.315C166.836 206.469 167.125 205.407 167.125 204.128C167.125 202.85 166.836 201.788 166.259 200.942C165.681 200.096 164.949 199.674 164.062 199.674C163.176 199.674 162.443 200.096 161.866 200.942Z" fill="#8F95B2"/>
<path d="M178.097 206.139H174.632V205.103H178.097V206.139Z" fill="#8F95B2"/>
<path d="M194.497 209.156L197.081 198.715H198.318L195.611 209.542H193.353L190.924 199.086L188.48 209.542H186.253L183.546 198.715H184.768L187.382 209.125L189.811 198.715H192.053L194.497 209.156ZM202.144 201.561C203.35 201.561 204.34 201.989 205.114 202.845C205.897 203.69 206.243 204.737 206.15 205.985H199.267C199.349 206.768 199.664 207.413 200.21 207.918C200.767 208.413 201.443 208.661 202.237 208.661C202.845 208.661 203.386 208.511 203.861 208.212C204.335 207.913 204.696 207.506 204.944 206.99L205.933 207.408C205.604 208.099 205.114 208.655 204.464 209.078C203.814 209.491 203.067 209.697 202.221 209.697C201.056 209.697 200.076 209.31 199.282 208.537C198.498 207.753 198.107 206.784 198.107 205.629C198.107 204.474 198.493 203.51 199.267 202.736C200.04 201.953 200.999 201.561 202.144 201.561ZM202.144 202.597C201.432 202.597 200.814 202.824 200.288 203.278C199.762 203.731 199.432 204.314 199.298 205.026H204.974C204.861 204.324 204.541 203.747 204.015 203.293C203.5 202.829 202.876 202.597 202.144 202.597ZM216.788 201.561C217.613 201.561 218.293 201.88 218.83 202.52C219.376 203.159 219.649 203.963 219.649 204.933V209.542H218.489V205.072C218.489 204.381 218.288 203.804 217.886 203.34C217.484 202.865 216.994 202.628 216.417 202.628C215.777 202.628 215.246 202.86 214.823 203.324C214.411 203.788 214.205 204.371 214.205 205.072V209.542H213.045V205.072C213.045 204.381 212.844 203.804 212.441 203.34C212.049 202.865 211.565 202.628 210.987 202.628C210.348 202.628 209.817 202.86 209.394 203.324C208.982 203.788 208.775 204.371 208.775 205.072V209.542H207.615V201.715H208.775V203.664C208.992 203.025 209.327 202.515 209.781 202.133C210.245 201.752 210.776 201.561 211.374 201.561C212.024 201.561 212.586 201.767 213.06 202.179C213.534 202.592 213.864 203.138 214.05 203.819C214.236 203.138 214.571 202.592 215.055 202.179C215.55 201.767 216.128 201.561 216.788 201.561ZM224.487 201.561C225.374 201.561 226.096 201.798 226.653 202.272C227.209 202.736 227.488 203.391 227.488 204.237V209.542H226.328V207.408C225.802 208.934 224.781 209.697 223.265 209.697C222.554 209.697 221.971 209.501 221.517 209.109C221.074 208.717 220.852 208.197 220.852 207.547C220.852 206.846 221.105 206.304 221.61 205.923C222.126 205.541 222.791 205.309 223.605 205.227L225.353 205.026C226.003 204.964 226.328 204.665 226.328 204.128C226.328 203.644 226.158 203.262 225.817 202.984C225.477 202.705 225.028 202.566 224.472 202.566C223.915 202.566 223.435 202.705 223.033 202.984C222.631 203.262 222.358 203.69 222.213 204.268L221.084 203.958C221.27 203.185 221.667 202.592 222.275 202.179C222.894 201.767 223.631 201.561 224.487 201.561ZM223.559 208.722C224.353 208.722 225.013 208.46 225.539 207.934C226.065 207.397 226.328 206.774 226.328 206.062V205.412C226.183 205.722 225.833 205.907 225.276 205.969L223.59 206.155C223.116 206.217 222.734 206.361 222.445 206.588C222.156 206.804 222.012 207.103 222.012 207.485C222.012 207.856 222.151 208.155 222.43 208.382C222.718 208.609 223.095 208.722 223.559 208.722ZM238.052 201.561C239.115 201.561 239.996 201.953 240.697 202.736C241.409 203.51 241.765 204.474 241.765 205.629C241.765 206.794 241.409 207.763 240.697 208.537C239.996 209.31 239.115 209.697 238.052 209.697C237.279 209.697 236.593 209.475 235.995 209.032C235.407 208.578 234.985 207.98 234.727 207.238V209.542H233.567V198.096H234.727V204.036C234.985 203.283 235.407 202.685 235.995 202.241C236.593 201.788 237.279 201.561 238.052 201.561ZM237.728 208.614C238.532 208.614 239.207 208.331 239.754 207.763C240.3 207.186 240.574 206.474 240.574 205.629C240.574 204.783 240.3 204.077 239.754 203.51C239.207 202.932 238.532 202.644 237.728 202.644C236.861 202.644 236.145 202.927 235.578 203.494C235.01 204.061 234.727 204.773 234.727 205.629C234.727 206.485 235.01 207.196 235.578 207.763C236.145 208.331 236.861 208.614 237.728 208.614ZM246.36 201.561C247.247 201.561 247.969 201.798 248.525 202.272C249.082 202.736 249.361 203.391 249.361 204.237V209.542H248.201V207.408C247.675 208.934 246.654 209.697 245.138 209.697C244.426 209.697 243.844 209.501 243.39 209.109C242.947 208.717 242.725 208.197 242.725 207.547C242.725 206.846 242.978 206.304 243.483 205.923C243.998 205.541 244.664 205.309 245.478 205.227L247.226 205.026C247.876 204.964 248.201 204.665 248.201 204.128C248.201 203.644 248.03 203.262 247.69 202.984C247.35 202.705 246.901 202.566 246.344 202.566C245.788 202.566 245.308 202.705 244.906 202.984C244.504 203.262 244.23 203.69 244.086 204.268L242.957 203.958C243.143 203.185 243.54 202.592 244.148 202.179C244.767 201.767 245.504 201.561 246.36 201.561ZM245.432 208.722C246.226 208.722 246.886 208.46 247.412 207.934C247.938 207.397 248.201 206.774 248.201 206.062V205.412C248.056 205.722 247.706 205.907 247.149 205.969L245.463 206.155C244.988 206.217 244.607 206.361 244.318 206.588C244.029 206.804 243.885 207.103 243.885 207.485C243.885 207.856 244.024 208.155 244.303 208.382C244.591 208.609 244.968 208.722 245.432 208.722ZM255.097 201.561C256.014 201.561 256.767 201.88 257.355 202.52C257.953 203.159 258.252 203.963 258.252 204.933V209.542H257.092V205.072C257.092 204.381 256.865 203.804 256.411 203.34C255.958 202.865 255.396 202.628 254.725 202.628C253.993 202.628 253.39 202.86 252.916 203.324C252.441 203.788 252.204 204.371 252.204 205.072V209.542H251.044V201.715H252.204V203.726C252.421 203.066 252.787 202.54 253.302 202.149C253.818 201.757 254.416 201.561 255.097 201.561ZM263.344 204.948L267.057 209.542H265.556L262.556 205.799L261.086 207.361V209.542H259.926V198.096H261.086V205.845L264.891 201.715H266.376L263.344 204.948Z" fill="#8F95B2"/>
<path d="M403.532 231.527H66.6167V232.494H403.532V231.527Z" fill="#EDEFF5" mask="url(#path-4-inside-1_20_1044)"/>
<mask id="path-11-inside-2_20_1044" fill="white">
<path d="M66.6167 232.01H403.532V359.282H66.6167V232.01Z"/>
</mask>
<path d="M66.6167 232.01H403.532V359.282H66.6167V232.01Z" fill="white"/>
<path d="M85.5188 268.298C83.9101 266.689 83.1057 264.709 83.1057 262.358C83.1057 260.007 83.9101 258.027 85.5188 256.418C87.1429 254.809 89.146 254.005 91.5281 254.005C93.9102 254.005 95.9056 254.809 97.5143 256.418C99.1384 258.027 99.9505 260.007 99.9505 262.358C99.9505 264.709 99.1384 266.689 97.5143 268.298C95.9056 269.906 93.9102 270.711 91.5281 270.711C89.146 270.711 87.1429 269.906 85.5188 268.298ZM86.8645 257.625C85.5961 258.908 84.9619 260.486 84.9619 262.358C84.9619 264.229 85.5961 265.815 86.8645 267.114C88.1329 268.398 89.6874 269.04 91.5281 269.04C93.3843 269.04 94.9389 268.398 96.1918 267.114C97.4602 265.83 98.0944 264.245 98.0944 262.358C98.0944 260.471 97.4602 258.885 96.1918 257.601C94.9389 256.318 93.3843 255.676 91.5281 255.676C89.6874 255.676 88.1329 256.325 86.8645 257.625ZM105.682 270.479H103.942V260.316H101.297V258.738H103.942V257.369C103.942 255.993 104.275 254.972 104.94 254.307C105.62 253.642 106.665 253.309 108.072 253.309H109.255V254.887H108.072C107.221 254.887 106.61 255.072 106.239 255.444C105.868 255.815 105.682 256.434 105.682 257.3V258.738H111.901V257.369C111.901 255.993 112.233 254.972 112.898 254.307C113.579 253.642 114.623 253.309 116.03 253.309H117.214V254.887H116.03C115.18 254.887 114.569 255.072 114.198 255.444C113.826 255.815 113.641 256.434 113.641 257.3V258.738H117.214V260.316H113.641V270.479H111.901V260.316H105.682V270.479ZM123.799 258.506C125.608 258.506 127.093 259.148 128.253 260.432C129.429 261.7 129.947 263.27 129.808 265.142H119.483C119.607 266.318 120.079 267.284 120.898 268.042C121.734 268.785 122.747 269.156 123.938 269.156C124.85 269.156 125.663 268.932 126.374 268.483C127.086 268.035 127.627 267.424 127.998 266.65L129.483 267.277C128.988 268.313 128.253 269.148 127.279 269.783C126.304 270.401 125.183 270.711 123.915 270.711C122.167 270.711 120.697 270.131 119.506 268.97C118.331 267.795 117.743 266.341 117.743 264.608C117.743 262.876 118.323 261.43 119.483 260.27C120.643 259.094 122.082 258.506 123.799 258.506ZM123.799 260.061C122.731 260.061 121.803 260.401 121.014 261.082C120.225 261.762 119.731 262.636 119.529 263.704H128.045C127.874 262.652 127.395 261.785 126.606 261.105C125.833 260.409 124.897 260.061 123.799 260.061ZM133.867 258.738V261.894C134.269 260.548 134.888 259.612 135.723 259.086C136.574 258.56 137.548 258.398 138.647 258.599V260.293C137.332 259.999 136.203 260.2 135.259 260.896C134.331 261.577 133.867 262.536 133.867 263.773V270.479H132.127V258.738H133.867ZM140.104 255.258C140.104 254.933 140.212 254.662 140.429 254.446C140.645 254.229 140.916 254.121 141.241 254.121C141.55 254.121 141.813 254.229 142.03 254.446C142.262 254.662 142.378 254.933 142.378 255.258C142.378 255.567 142.262 255.83 142.03 256.047C141.813 256.263 141.55 256.372 141.241 256.372C140.916 256.372 140.645 256.263 140.429 256.047C140.212 255.83 140.104 255.567 140.104 255.258ZM142.099 270.479H140.359V258.738H142.099V270.479ZM150.909 258.506C152.286 258.506 153.415 258.986 154.297 259.945C155.194 260.904 155.643 262.11 155.643 263.564V270.479H153.903V263.773C153.903 262.737 153.562 261.871 152.882 261.174C152.201 260.463 151.358 260.107 150.353 260.107C149.254 260.107 148.35 260.455 147.638 261.151C146.926 261.847 146.571 262.721 146.571 263.773V270.479H144.831V258.738H146.571V261.755C146.896 260.765 147.445 259.976 148.218 259.388C148.991 258.8 149.889 258.506 150.909 258.506ZM168.367 262.103V258.738H170.108V269.249C170.108 270.981 169.512 272.428 168.321 273.588C167.145 274.763 165.684 275.351 163.936 275.351C162.683 275.351 161.569 275.034 160.595 274.4C159.62 273.781 158.885 272.953 158.391 271.917L159.968 271.175C160.339 271.964 160.873 272.59 161.569 273.054C162.265 273.518 163.054 273.75 163.936 273.75C165.189 273.75 166.241 273.317 167.091 272.451C167.942 271.6 168.367 270.533 168.367 269.249V266.975C167.965 268.073 167.323 268.947 166.442 269.597C165.56 270.247 164.539 270.571 163.379 270.571C161.786 270.571 160.455 269.999 159.388 268.854C158.336 267.694 157.81 266.256 157.81 264.539C157.81 262.822 158.336 261.391 159.388 260.246C160.455 259.086 161.786 258.506 163.379 258.506C164.539 258.506 165.56 258.831 166.442 259.481C167.323 260.13 167.965 261.004 168.367 262.103ZM163.889 268.97C165.189 268.97 166.256 268.553 167.091 267.718C167.942 266.867 168.367 265.807 168.367 264.539C168.367 263.286 167.942 262.242 167.091 261.407C166.256 260.556 165.189 260.13 163.889 260.13C162.683 260.13 161.662 260.556 160.827 261.407C160.007 262.242 159.597 263.286 159.597 264.539C159.597 265.792 160.007 266.844 160.827 267.694C161.662 268.545 162.683 268.97 163.889 268.97ZM172.133 267.439L173.896 267.091C174.144 268.53 175.157 269.249 176.936 269.249C177.833 269.249 178.56 269.071 179.117 268.715C179.689 268.344 179.975 267.872 179.975 267.3C179.975 266.712 179.712 266.264 179.186 265.954C178.676 265.645 178.057 265.428 177.33 265.304C176.603 265.165 175.868 265.018 175.126 264.864C174.399 264.693 173.772 264.369 173.246 263.889C172.736 263.41 172.481 262.752 172.481 261.917C172.481 260.927 172.898 260.115 173.734 259.481C174.569 258.831 175.636 258.506 176.936 258.506C178.204 258.506 179.24 258.8 180.045 259.388C180.849 259.976 181.344 260.772 181.53 261.778L179.789 262.126C179.526 260.703 178.575 259.991 176.936 259.991C176.147 259.991 175.497 260.161 174.987 260.502C174.476 260.842 174.221 261.291 174.221 261.847C174.221 262.389 174.476 262.806 174.987 263.1C175.512 263.379 176.139 263.58 176.866 263.704C177.608 263.827 178.343 263.982 179.07 264.168C179.813 264.338 180.439 264.678 180.949 265.188C181.475 265.699 181.738 266.387 181.738 267.253C181.738 268.259 181.282 269.086 180.369 269.736C179.457 270.386 178.312 270.711 176.936 270.711C175.605 270.711 174.515 270.417 173.664 269.829C172.829 269.241 172.318 268.445 172.133 267.439Z" fill="#101840"/>
<path d="M84.2813 310.947H83.0748V300.119H87.1584C88.1793 300.119 89.0094 300.428 89.6488 301.047C90.2984 301.656 90.6232 302.424 90.6232 303.352C90.6232 304.27 90.2984 305.038 89.6488 305.657C89.0094 306.265 88.1793 306.569 87.1584 306.569H84.2813V310.947ZM84.2813 301.217V305.471H87.1584C87.808 305.471 88.3391 305.27 88.7516 304.868C89.1744 304.455 89.3858 303.945 89.3858 303.336C89.3858 302.728 89.1744 302.223 88.7516 301.821C88.3391 301.418 87.808 301.217 87.1584 301.217H84.2813ZM100.271 310.947H98.9714L97.8423 308.07H91.9644L90.8352 310.947H89.5823L93.867 300.119H95.9861L100.271 310.947ZM94.9033 300.521L92.382 306.971H97.4246L94.9033 300.521ZM108.727 300.119L104.612 307.188V309.848H106.731V310.947H101.302V309.848H103.406V307.188L99.3067 300.119H100.73L104.055 305.997L107.366 300.119H108.727ZM113.773 310.947H112.567V301.217H108.901V300.119H117.439V301.217H113.773V310.947ZM118.906 309.493C117.833 308.42 117.297 307.1 117.297 305.533C117.297 303.965 117.833 302.645 118.906 301.573C119.988 300.501 121.324 299.964 122.912 299.964C124.5 299.964 125.83 300.501 126.903 301.573C127.985 302.645 128.527 303.965 128.527 305.533C128.527 307.1 127.985 308.42 126.903 309.493C125.83 310.565 124.5 311.101 122.912 311.101C121.324 311.101 119.988 310.565 118.906 309.493ZM119.803 302.377C118.957 303.233 118.534 304.285 118.534 305.533C118.534 306.781 118.957 307.838 119.803 308.704C120.648 309.56 121.685 309.988 122.912 309.988C124.149 309.988 125.186 309.56 126.021 308.704C126.866 307.848 127.289 306.791 127.289 305.533C127.289 304.275 126.866 303.218 126.021 302.362C125.186 301.506 124.149 301.078 122.912 301.078C121.685 301.078 120.648 301.511 119.803 302.377ZM129.686 308.162L130.892 307.915C130.996 308.585 131.289 309.106 131.774 309.477C132.269 309.838 132.919 310.019 133.723 310.019C134.486 310.019 135.105 309.843 135.579 309.493C136.054 309.142 136.291 308.694 136.291 308.147C136.291 307.745 136.172 307.405 135.935 307.126C135.708 306.848 135.409 306.631 135.038 306.476C134.667 306.322 134.254 306.188 133.8 306.074C133.357 305.951 132.908 305.816 132.455 305.672C132.001 305.517 131.589 305.337 131.217 305.131C130.846 304.924 130.542 304.631 130.305 304.249C130.078 303.867 129.964 303.409 129.964 302.872C129.964 302.037 130.305 301.346 130.985 300.8C131.676 300.243 132.542 299.964 133.584 299.964C134.625 299.964 135.486 300.238 136.167 300.784C136.858 301.331 137.27 302.037 137.405 302.903L136.183 303.151C136.09 302.522 135.806 302.011 135.332 301.619C134.868 301.228 134.28 301.032 133.568 301.032C132.878 301.032 132.31 301.202 131.867 301.542C131.424 301.882 131.202 302.31 131.202 302.826C131.202 303.218 131.315 303.548 131.542 303.816C131.779 304.074 132.084 304.275 132.455 304.419C132.826 304.553 133.238 304.682 133.692 304.806C134.146 304.919 134.594 305.053 135.038 305.208C135.492 305.352 135.904 305.533 136.275 305.749C136.647 305.966 136.946 306.275 137.173 306.678C137.41 307.069 137.528 307.549 137.528 308.116C137.528 308.982 137.162 309.699 136.43 310.266C135.698 310.823 134.785 311.101 133.692 311.101C132.589 311.101 131.676 310.838 130.954 310.313C130.232 309.787 129.81 309.07 129.686 308.162ZM140.295 309.493C139.223 308.42 138.686 307.1 138.686 305.533C138.686 303.965 139.223 302.645 140.295 301.573C141.378 300.501 142.713 299.964 144.301 299.964C145.889 299.964 147.22 300.501 148.292 301.573C149.375 302.645 149.916 303.965 149.916 305.533C149.916 307.1 149.375 308.42 148.292 309.493C147.22 310.565 145.889 311.101 144.301 311.101C142.713 311.101 141.378 310.565 140.295 309.493ZM141.192 302.377C140.347 303.233 139.924 304.285 139.924 305.533C139.924 306.781 140.347 307.838 141.192 308.704C142.038 309.56 143.074 309.988 144.301 309.988C145.539 309.988 146.575 309.56 147.41 308.704C148.256 307.848 148.679 306.791 148.679 305.533C148.679 304.275 148.256 303.218 147.41 302.362C146.575 301.506 145.539 301.078 144.301 301.078C143.074 301.078 142.038 301.511 141.192 302.377ZM161.285 310.56L163.868 300.119H165.106L162.399 310.947H160.141L157.712 300.49L155.268 310.947H153.041L150.334 300.119H151.556L154.17 310.529L156.598 300.119H158.841L161.285 310.56ZM175.011 310.947H173.805V301.217H170.139V300.119H178.677V301.217H175.011V310.947ZM186.251 310.947H179.584V300.119H186.251V301.217H180.791V304.991H186.097V306.074H180.791V309.848H186.251V310.947ZM188.814 309.493C187.742 308.42 187.206 307.1 187.206 305.533C187.206 303.965 187.742 302.645 188.814 301.573C189.897 300.501 191.232 299.964 192.82 299.964C193.965 299.964 194.976 300.263 195.852 300.861C196.729 301.449 197.368 302.192 197.77 303.089L196.672 303.553C196.332 302.821 195.816 302.228 195.125 301.774C194.445 301.31 193.676 301.078 192.82 301.078C191.593 301.078 190.557 301.511 189.711 302.377C188.866 303.233 188.443 304.285 188.443 305.533C188.443 306.781 188.866 307.838 189.711 308.704C190.557 309.56 191.593 309.988 192.82 309.988C193.676 309.988 194.445 309.761 195.125 309.307C195.816 308.843 196.332 308.245 196.672 307.513L197.77 307.977C197.368 308.874 196.729 309.622 195.852 310.22C194.976 310.808 193.965 311.101 192.82 311.101C191.232 311.101 189.897 310.565 188.814 309.493ZM200.413 310.947H199.207V300.119H200.413V304.991H207.049V300.119H208.255V310.947H207.049V306.074H200.413V310.947ZM217.927 310.699V300.119H219.134V310.947H216.767L211.199 300.382V310.947H209.992V300.119H212.359L217.927 310.699ZM222.167 309.493C221.095 308.42 220.559 307.1 220.559 305.533C220.559 303.965 221.095 302.645 222.167 301.573C223.25 300.501 224.586 299.964 226.174 299.964C227.762 299.964 229.092 300.501 230.164 301.573C231.247 302.645 231.789 303.965 231.789 305.533C231.789 307.1 231.247 308.42 230.164 309.493C229.092 310.565 227.762 311.101 226.174 311.101C224.586 311.101 223.25 310.565 222.167 309.493ZM223.064 302.377C222.219 303.233 221.796 304.285 221.796 305.533C221.796 306.781 222.219 307.838 223.064 308.704C223.91 309.56 224.946 309.988 226.174 309.988C227.411 309.988 228.447 309.56 229.283 308.704C230.128 307.848 230.551 306.791 230.551 305.533C230.551 304.275 230.128 303.218 229.283 302.362C228.447 301.506 227.411 301.078 226.174 301.078C224.946 301.078 223.91 301.511 223.064 302.377ZM239.891 310.947H233.224V300.119H234.431V309.848H239.891V310.947ZM241.457 309.493C240.385 308.42 239.849 307.1 239.849 305.533C239.849 303.965 240.385 302.645 241.457 301.573C242.54 300.501 243.875 299.964 245.463 299.964C247.051 299.964 248.382 300.501 249.454 301.573C250.537 302.645 251.078 303.965 251.078 305.533C251.078 307.1 250.537 308.42 249.454 309.493C248.382 310.565 247.051 311.101 245.463 311.101C243.875 311.101 242.54 310.565 241.457 309.493ZM242.354 302.377C241.509 303.233 241.086 304.285 241.086 305.533C241.086 306.781 241.509 307.838 242.354 308.704C243.2 309.56 244.236 309.988 245.463 309.988C246.701 309.988 247.737 309.56 248.573 308.704C249.418 307.848 249.841 306.791 249.841 305.533C249.841 304.275 249.418 303.218 248.573 302.362C247.737 301.506 246.701 301.078 245.463 301.078C244.236 301.078 243.2 301.511 242.354 302.377ZM256.863 305.1H263.174C263.257 306.234 263.051 307.265 262.556 308.193C262.071 309.121 261.395 309.838 260.529 310.343C259.673 310.849 258.735 311.101 257.714 311.101C256.126 311.101 254.791 310.565 253.708 309.493C252.635 308.42 252.099 307.1 252.099 305.533C252.099 303.965 252.635 302.645 253.708 301.573C254.791 300.501 256.126 299.964 257.714 299.964C258.859 299.964 259.869 300.263 260.746 300.861C261.622 301.449 262.262 302.192 262.664 303.089L261.566 303.553C261.225 302.821 260.71 302.228 260.019 301.774C259.338 301.31 258.57 301.078 257.714 301.078C256.487 301.078 255.451 301.511 254.605 302.377C253.759 303.233 253.337 304.285 253.337 305.533C253.337 306.781 253.759 307.838 254.605 308.704C255.451 309.56 256.487 309.988 257.714 309.988C258.859 309.988 259.818 309.622 260.591 308.889C261.365 308.147 261.792 307.25 261.875 306.198H256.863V305.1ZM265.971 310.947H264.765V300.119H265.971V310.947ZM274.377 310.947H267.71V300.119H274.377V301.217H268.917V304.991H274.223V306.074H268.917V309.848H274.377V310.947ZM275.44 308.162L276.646 307.915C276.749 308.585 277.043 309.106 277.528 309.477C278.023 309.838 278.673 310.019 279.477 310.019C280.24 310.019 280.859 309.843 281.333 309.493C281.808 309.142 282.045 308.694 282.045 308.147C282.045 307.745 281.926 307.405 281.689 307.126C281.462 306.848 281.163 306.631 280.792 306.476C280.421 306.322 280.008 306.188 279.554 306.074C279.111 305.951 278.662 305.816 278.209 305.672C277.755 305.517 277.342 305.337 276.971 305.131C276.6 304.924 276.296 304.631 276.059 304.249C275.832 303.867 275.718 303.409 275.718 302.872C275.718 302.037 276.059 301.346 276.739 300.8C277.43 300.243 278.296 299.964 279.338 299.964C280.379 299.964 281.24 300.238 281.921 300.784C282.612 301.331 283.024 302.037 283.158 302.903L281.936 303.151C281.844 302.522 281.56 302.011 281.086 301.619C280.622 301.228 280.034 301.032 279.322 301.032C278.631 301.032 278.064 301.202 277.621 301.542C277.177 301.882 276.956 302.31 276.956 302.826C276.956 303.218 277.069 303.548 277.296 303.816C277.533 304.074 277.837 304.275 278.209 304.419C278.58 304.553 278.992 304.682 279.446 304.806C279.9 304.919 280.348 305.053 280.792 305.208C281.246 305.352 281.658 305.533 282.029 305.749C282.4 305.966 282.7 306.275 282.926 306.678C283.164 307.069 283.282 307.549 283.282 308.116C283.282 308.982 282.916 309.699 282.184 310.266C281.452 310.823 280.539 311.101 279.446 311.101C278.343 311.101 277.43 310.838 276.708 310.313C275.986 309.787 275.564 309.07 275.44 308.162Z" fill="#101840"/>
<path d="M88.5041 332.173L84.8382 335.715H90.484V336.814H83.1057V335.839L87.7152 331.338C88.5402 330.513 88.9527 329.714 88.9527 328.94C88.9527 328.342 88.7516 327.863 88.3494 327.502C87.9576 327.131 87.4368 326.945 86.7871 326.945C86.0137 326.945 85.4156 327.172 84.9928 327.626C84.5701 328.079 84.3587 328.693 84.3587 329.466H83.1367C83.1367 328.373 83.4615 327.497 84.1112 326.837C84.7711 326.166 85.6734 325.831 86.8181 325.831C87.8287 325.831 88.6433 326.115 89.2621 326.682C89.8808 327.239 90.1901 327.987 90.1901 328.925C90.1901 330.018 89.6281 331.101 88.5041 332.173ZM96.0592 325.831V335.715H98.9208V336.814H91.5116V335.715H94.8527V327.208L91.5116 328.09V327.007L96.0592 325.831ZM106.358 326.961L103.342 330.394C104.394 330.446 105.219 330.771 105.817 331.369C106.415 331.967 106.714 332.73 106.714 333.658C106.714 334.617 106.374 335.411 105.693 336.04C105.012 336.659 104.1 336.968 102.955 336.968C101.841 336.968 100.955 336.68 100.295 336.102C99.6449 335.514 99.284 334.715 99.2118 333.705L100.449 333.565C100.501 334.267 100.743 334.823 101.176 335.236C101.609 335.648 102.202 335.855 102.955 335.855C103.739 335.855 104.352 335.643 104.796 335.221C105.25 334.798 105.476 334.256 105.476 333.596C105.476 332.936 105.244 332.4 104.78 331.988C104.327 331.565 103.646 331.353 102.739 331.353H102.042V330.364L104.904 327.084H99.6913V325.986H106.358V326.961ZM114.535 325.986V333.21H116.097V334.292H114.535V336.814H113.328V334.292H107.528V333.21L112.307 325.986H114.535ZM113.328 326.388L108.858 333.21H113.328V326.388ZM122.27 325.986L119.27 330.889C119.723 330.498 120.254 330.271 120.863 330.209C121.471 330.147 122.038 330.229 122.564 330.456C123.101 330.673 123.554 331.049 123.926 331.585C124.307 332.111 124.498 332.725 124.498 333.426C124.498 334.437 124.142 335.282 123.431 335.963C122.729 336.633 121.827 336.968 120.724 336.968C119.62 336.968 118.713 336.633 118.001 335.963C117.3 335.293 116.949 334.447 116.949 333.426C116.949 332.735 117.187 332.008 117.661 331.245L120.878 325.986H122.27ZM118.898 335.174C119.383 335.628 119.991 335.855 120.724 335.855C121.456 335.855 122.059 335.628 122.533 335.174C123.018 334.71 123.26 334.127 123.26 333.426C123.26 332.725 123.018 332.142 122.533 331.678C122.059 331.214 121.456 330.982 120.724 330.982C119.991 330.982 119.383 331.214 118.898 331.678C118.424 332.142 118.187 332.725 118.187 333.426C118.187 334.127 118.424 334.71 118.898 335.174ZM129.908 330.085C130.795 330.085 131.553 330.374 132.182 330.951C132.821 331.529 133.141 332.354 133.141 333.426C133.141 334.447 132.78 335.293 132.058 335.963C131.337 336.633 130.419 336.968 129.305 336.968C128.243 336.968 127.382 336.69 126.722 336.133C126.072 335.566 125.706 334.813 125.624 333.875L126.861 333.736C126.913 334.365 127.155 334.875 127.588 335.267C128.021 335.659 128.594 335.855 129.305 335.855C130.058 335.855 130.677 335.628 131.161 335.174C131.656 334.71 131.904 334.127 131.904 333.426C131.904 332.684 131.677 332.091 131.223 331.647C130.769 331.204 130.161 330.982 129.398 330.982C128.398 330.982 127.64 331.353 127.124 332.096L125.979 331.926L126.706 325.986H132.306V327.084H127.681L127.14 331.446C127.738 330.539 128.661 330.085 129.908 330.085ZM133.951 325.986H141.298V326.961L139.489 330.858H141.298V331.941H138.978L136.704 336.814H135.374L137.679 331.941H133.951V330.858H138.189L139.968 327.084H133.951V325.986ZM147.5 331.261C148.314 331.446 148.964 331.792 149.449 332.297C149.933 332.792 150.176 333.364 150.176 334.014C150.176 334.86 149.804 335.566 149.062 336.133C148.319 336.69 147.366 336.968 146.2 336.968C145.025 336.968 144.066 336.69 143.323 336.133C142.581 335.566 142.21 334.86 142.21 334.014C142.21 333.364 142.452 332.792 142.937 332.297C143.432 331.792 144.086 331.446 144.901 331.261C144.241 331.054 143.71 330.719 143.308 330.255C142.906 329.791 142.705 329.26 142.705 328.662C142.705 327.868 143.035 327.198 143.695 326.651C144.365 326.105 145.2 325.831 146.2 325.831C147.19 325.831 148.02 326.105 148.691 326.651C149.361 327.198 149.696 327.868 149.696 328.662C149.696 329.26 149.495 329.791 149.093 330.255C148.691 330.719 148.16 331.054 147.5 331.261ZM144.561 327.486C144.128 327.847 143.911 328.301 143.911 328.848C143.911 329.394 144.128 329.848 144.561 330.209C144.994 330.57 145.54 330.75 146.2 330.75C146.85 330.75 147.391 330.57 147.825 330.209C148.268 329.848 148.49 329.394 148.49 328.848C148.49 328.301 148.268 327.847 147.825 327.486C147.391 327.115 146.85 326.93 146.2 326.93C145.54 326.93 144.994 327.115 144.561 327.486ZM146.2 335.87C147.005 335.87 147.665 335.679 148.18 335.298C148.706 334.916 148.969 334.432 148.969 333.844C148.969 333.246 148.706 332.756 148.18 332.374C147.665 331.983 147.005 331.787 146.2 331.787C145.396 331.787 144.731 331.983 144.205 332.374C143.679 332.756 143.416 333.246 143.416 333.844C143.416 334.432 143.674 334.916 144.189 335.298C144.715 335.679 145.386 335.87 146.2 335.87ZM152.095 326.852C152.806 326.172 153.714 325.831 154.817 325.831C155.92 325.831 156.823 326.166 157.524 326.837C158.235 327.507 158.591 328.353 158.591 329.374C158.591 330.064 158.354 330.791 157.88 331.555L154.647 336.814H153.27L156.302 331.879C155.848 332.282 155.312 332.519 154.693 332.591C154.085 332.653 153.512 332.575 152.976 332.359C152.44 332.132 151.981 331.756 151.6 331.23C151.228 330.693 151.043 330.075 151.043 329.374C151.043 328.363 151.393 327.523 152.095 326.852ZM152.992 331.121C153.476 331.585 154.085 331.818 154.817 331.818C155.549 331.818 156.152 331.585 156.627 331.121C157.111 330.657 157.354 330.075 157.354 329.374C157.354 328.672 157.111 328.095 156.627 327.641C156.152 327.177 155.549 326.945 154.817 326.945C154.085 326.945 153.476 327.177 152.992 327.641C152.517 328.095 152.28 328.672 152.28 329.374C152.28 330.075 152.517 330.657 152.992 331.121ZM160.848 335.375C160.034 334.313 159.626 332.988 159.626 331.4C159.626 329.812 160.034 328.487 160.848 327.425C161.663 326.362 162.689 325.831 163.926 325.831C165.174 325.831 166.2 326.362 167.005 327.425C167.819 328.476 168.227 329.802 168.227 331.4C168.227 332.998 167.819 334.329 167.005 335.391C166.2 336.442 165.174 336.968 163.926 336.968C162.689 336.968 161.663 336.437 160.848 335.375ZM161.73 328.213C161.153 329.059 160.864 330.121 160.864 331.4C160.864 332.679 161.153 333.741 161.73 334.586C162.307 335.432 163.04 335.855 163.926 335.855C164.813 335.855 165.545 335.432 166.123 334.586C166.7 333.741 166.989 332.679 166.989 331.4C166.989 330.121 166.7 329.059 166.123 328.213C165.545 327.368 164.813 326.945 163.926 326.945C163.04 326.945 162.307 327.368 161.73 328.213Z" fill="#8F95B2"/>
<path d="M177.097 333.411H173.632V332.374H177.097V333.411Z" fill="#8F95B2"/>
<path d="M192.724 336.814H191.425L190.295 333.937H184.418L183.288 336.814H182.035L186.32 325.986H188.439L192.724 336.814ZM187.356 326.388L184.835 332.838H189.878L187.356 326.388ZM194.219 335.808C193.435 335.025 193.043 334.055 193.043 332.9C193.043 331.745 193.435 330.781 194.219 330.008C195.013 329.224 195.992 328.832 197.158 328.832C198.003 328.832 198.756 329.054 199.416 329.497C200.086 329.93 200.581 330.523 200.901 331.276L199.834 331.647C199.597 331.111 199.241 330.688 198.766 330.379C198.292 330.07 197.756 329.915 197.158 329.915C196.333 329.915 195.637 330.204 195.07 330.781C194.513 331.348 194.234 332.055 194.234 332.9C194.234 333.746 194.513 334.457 195.07 335.035C195.637 335.602 196.333 335.886 197.158 335.886C197.756 335.886 198.292 335.731 198.766 335.422C199.241 335.112 199.597 334.689 199.834 334.153L200.901 334.524C200.581 335.277 200.086 335.875 199.416 336.319C198.756 336.752 198.003 336.968 197.158 336.968C195.992 336.968 195.013 336.582 194.219 335.808ZM203.04 335.808C202.257 335.025 201.865 334.055 201.865 332.9C201.865 331.745 202.257 330.781 203.04 330.008C203.834 329.224 204.814 328.832 205.979 328.832C206.825 328.832 207.578 329.054 208.238 329.497C208.908 329.93 209.403 330.523 209.723 331.276L208.655 331.647C208.418 331.111 208.062 330.688 207.588 330.379C207.114 330.07 206.577 329.915 205.979 329.915C205.154 329.915 204.458 330.204 203.891 330.781C203.334 331.348 203.056 332.055 203.056 332.9C203.056 333.746 203.334 334.457 203.891 335.035C204.458 335.602 205.154 335.886 205.979 335.886C206.577 335.886 207.114 335.731 207.588 335.422C208.062 335.112 208.418 334.689 208.655 334.153L209.723 334.524C209.403 335.277 208.908 335.875 208.238 336.319C207.578 336.752 206.825 336.968 205.979 336.968C204.814 336.968 203.834 336.582 203.04 335.808ZM214.724 328.832C215.93 328.832 216.92 329.26 217.694 330.116C218.477 330.962 218.823 332.008 218.73 333.256H211.847C211.929 334.04 212.244 334.684 212.79 335.19C213.347 335.685 214.023 335.932 214.817 335.932C215.425 335.932 215.966 335.783 216.441 335.483C216.915 335.184 217.276 334.777 217.523 334.261L218.513 334.679C218.183 335.37 217.694 335.927 217.044 336.35C216.394 336.762 215.647 336.968 214.801 336.968C213.636 336.968 212.656 336.582 211.862 335.808C211.078 335.025 210.687 334.055 210.687 332.9C210.687 331.745 211.073 330.781 211.847 330.008C212.62 329.224 213.579 328.832 214.724 328.832ZM214.724 329.869C214.012 329.869 213.393 330.095 212.868 330.549C212.342 331.003 212.012 331.585 211.878 332.297H217.554C217.441 331.596 217.121 331.018 216.595 330.565C216.08 330.101 215.456 329.869 214.724 329.869ZM219.731 334.787L220.907 334.555C221.072 335.514 221.747 335.994 222.933 335.994C223.531 335.994 224.016 335.875 224.387 335.638C224.769 335.391 224.959 335.076 224.959 334.695C224.959 334.303 224.784 334.004 224.433 333.797C224.093 333.591 223.681 333.447 223.196 333.364C222.711 333.272 222.222 333.174 221.727 333.07C221.242 332.957 220.824 332.74 220.474 332.421C220.133 332.101 219.963 331.663 219.963 331.106C219.963 330.446 220.242 329.905 220.798 329.482C221.355 329.049 222.067 328.832 222.933 328.832C223.779 328.832 224.47 329.028 225.006 329.42C225.542 329.812 225.872 330.343 225.996 331.013L224.836 331.245C224.66 330.296 224.026 329.822 222.933 329.822C222.407 329.822 221.974 329.936 221.634 330.162C221.293 330.389 221.123 330.688 221.123 331.06C221.123 331.421 221.293 331.699 221.634 331.895C221.984 332.08 222.402 332.215 222.887 332.297C223.382 332.38 223.871 332.483 224.356 332.606C224.851 332.72 225.269 332.947 225.609 333.287C225.96 333.627 226.135 334.086 226.135 334.664C226.135 335.334 225.831 335.886 225.222 336.319C224.614 336.752 223.851 336.968 222.933 336.968C222.046 336.968 221.319 336.772 220.752 336.381C220.195 335.989 219.855 335.458 219.731 334.787ZM226.891 334.787L228.067 334.555C228.232 335.514 228.907 335.994 230.093 335.994C230.691 335.994 231.176 335.875 231.547 335.638C231.929 335.391 232.119 335.076 232.119 334.695C232.119 334.303 231.944 334.004 231.594 333.797C231.253 333.591 230.841 333.447 230.356 333.364C229.871 333.272 229.382 333.174 228.887 333.07C228.402 332.957 227.984 332.74 227.634 332.421C227.293 332.101 227.123 331.663 227.123 331.106C227.123 330.446 227.402 329.905 227.959 329.482C228.515 329.049 229.227 328.832 230.093 328.832C230.939 328.832 231.63 329.028 232.166 329.42C232.702 329.812 233.032 330.343 233.156 331.013L231.996 331.245C231.82 330.296 231.186 329.822 230.093 329.822C229.567 329.822 229.134 329.936 228.794 330.162C228.454 330.389 228.283 330.688 228.283 331.06C228.283 331.421 228.454 331.699 228.794 331.895C229.144 332.08 229.562 332.215 230.047 332.297C230.542 332.38 231.032 332.483 231.516 332.606C232.011 332.72 232.429 332.947 232.769 333.287C233.12 333.627 233.295 334.086 233.295 334.664C233.295 335.334 232.991 335.886 232.382 336.319C231.774 336.752 231.011 336.968 230.093 336.968C229.206 336.968 228.479 336.772 227.912 336.381C227.355 335.989 227.015 335.458 226.891 334.787ZM243.457 328.832C244.519 328.832 245.401 329.224 246.102 330.008C246.814 330.781 247.17 331.745 247.17 332.9C247.17 334.066 246.814 335.035 246.102 335.808C245.401 336.582 244.519 336.968 243.457 336.968C242.684 336.968 241.998 336.747 241.4 336.303C240.812 335.85 240.389 335.251 240.132 334.509V336.814H238.971V325.367H240.132V331.307C240.389 330.554 240.812 329.956 241.4 329.513C241.998 329.059 242.684 328.832 243.457 328.832ZM243.132 335.886C243.937 335.886 244.612 335.602 245.159 335.035C245.705 334.457 245.979 333.746 245.979 332.9C245.979 332.055 245.705 331.348 245.159 330.781C244.612 330.204 243.937 329.915 243.132 329.915C242.266 329.915 241.549 330.199 240.982 330.766C240.415 331.333 240.132 332.044 240.132 332.9C240.132 333.756 240.415 334.468 240.982 335.035C241.549 335.602 242.266 335.886 243.132 335.886ZM251.765 328.832C252.652 328.832 253.373 329.069 253.93 329.544C254.487 330.008 254.766 330.663 254.766 331.508V336.814H253.605V334.679C253.079 336.205 252.059 336.968 250.543 336.968C249.831 336.968 249.249 336.772 248.795 336.381C248.351 335.989 248.13 335.468 248.13 334.818C248.13 334.117 248.382 333.576 248.888 333.194C249.403 332.813 250.068 332.581 250.883 332.498L252.631 332.297C253.281 332.235 253.605 331.936 253.605 331.4C253.605 330.915 253.435 330.534 253.095 330.255C252.755 329.977 252.306 329.838 251.749 329.838C251.192 329.838 250.713 329.977 250.311 330.255C249.909 330.534 249.635 330.962 249.491 331.539L248.362 331.23C248.547 330.456 248.944 329.863 249.553 329.451C250.171 329.038 250.909 328.832 251.765 328.832ZM250.837 335.994C251.631 335.994 252.291 335.731 252.817 335.205C253.342 334.669 253.605 334.045 253.605 333.333V332.684C253.461 332.993 253.11 333.179 252.554 333.241L250.868 333.426C250.393 333.488 250.012 333.632 249.723 333.859C249.434 334.076 249.29 334.375 249.29 334.756C249.29 335.128 249.429 335.427 249.707 335.654C249.996 335.88 250.373 335.994 250.837 335.994ZM260.501 328.832C261.419 328.832 262.172 329.152 262.76 329.791C263.358 330.431 263.657 331.235 263.657 332.204V336.814H262.497V332.343C262.497 331.653 262.27 331.075 261.816 330.611C261.362 330.137 260.8 329.899 260.13 329.899C259.398 329.899 258.795 330.131 258.32 330.596C257.846 331.06 257.609 331.642 257.609 332.343V336.814H256.449V328.987H257.609V330.998C257.825 330.338 258.191 329.812 258.707 329.42C259.223 329.028 259.821 328.832 260.501 328.832ZM268.749 332.22L272.462 336.814H270.961L267.96 333.07L266.491 334.633V336.814H265.331V325.367H266.491V333.117L270.296 328.987H271.781L268.749 332.22Z" fill="#8F95B2"/>
<path d="M403.532 358.798H66.6167V359.765H403.532V358.798Z" fill="#EDEFF5" mask="url(#path-11-inside-2_20_1044)"/>
<rect width="336.915" height="127.271" transform="translate(66.6167 359.282)" fill="white"/>
<path d="M95.4725 397.379V381.509H97.2823V397.75H93.7323L85.3796 381.903V397.75H83.5698V381.509H87.1197L95.4725 397.379ZM105.596 385.778C107.406 385.778 108.891 386.42 110.051 387.704C111.227 388.972 111.745 390.542 111.606 392.414H101.281C101.405 393.589 101.876 394.556 102.696 395.314C103.531 396.056 104.545 396.428 105.736 396.428C106.648 396.428 107.46 396.203 108.172 395.755C108.883 395.306 109.425 394.695 109.796 393.922L111.281 394.548C110.786 395.585 110.051 396.42 109.077 397.054C108.102 397.673 106.981 397.982 105.712 397.982C103.965 397.982 102.495 397.402 101.304 396.242C100.128 395.066 99.5406 393.612 99.5406 391.88C99.5406 390.147 100.121 388.701 101.281 387.541C102.441 386.366 103.879 385.778 105.596 385.778ZM105.596 387.332C104.529 387.332 103.601 387.673 102.812 388.353C102.023 389.034 101.528 389.908 101.327 390.975H109.842C109.672 389.923 109.193 389.057 108.404 388.376C107.63 387.68 106.695 387.332 105.596 387.332ZM125.939 397.286L129.234 386.01H130.928L127.354 397.75H124.477L121.461 386.52L118.422 397.75H115.544L111.971 386.01H113.711L117.006 397.24L119.906 386.01H123.039L125.939 397.286ZM154.076 397.75H152.127L150.434 393.434H141.617L139.923 397.75H138.044L144.471 381.509H147.649L154.076 397.75ZM146.025 382.112L142.243 391.787H149.807L146.025 382.112ZM155.024 392.947V386.01H156.764V392.947C156.764 393.953 157.089 394.772 157.739 395.407C158.388 396.041 159.208 396.358 160.198 396.358C161.188 396.358 162.008 396.041 162.658 395.407C163.307 394.772 163.632 393.953 163.632 392.947V386.01H165.372V392.947C165.372 394.432 164.885 395.646 163.911 396.59C162.936 397.518 161.699 397.982 160.198 397.982C158.698 397.982 157.46 397.518 156.486 396.59C155.511 395.646 155.024 394.432 155.024 392.947ZM177.997 389.42V380.58H179.737V397.75H177.997V394.339C177.595 395.453 176.953 396.342 176.071 397.008C175.19 397.657 174.169 397.982 173.009 397.982C171.416 397.982 170.085 397.402 169.018 396.242C167.966 395.082 167.44 393.628 167.44 391.88C167.44 390.147 167.966 388.701 169.018 387.541C170.085 386.366 171.416 385.778 173.009 385.778C174.169 385.778 175.19 386.11 176.071 386.775C176.953 387.425 177.595 388.307 177.997 389.42ZM173.496 396.358C174.795 396.358 175.87 395.933 176.721 395.082C177.572 394.231 177.997 393.164 177.997 391.88C177.997 390.596 177.572 389.529 176.721 388.678C175.87 387.827 174.795 387.402 173.496 387.402C172.305 387.402 171.292 387.835 170.457 388.701C169.637 389.552 169.227 390.612 169.227 391.88C169.227 393.148 169.637 394.216 170.457 395.082C171.292 395.933 172.305 396.358 173.496 396.358ZM182.203 382.529C182.203 382.205 182.312 381.934 182.528 381.717C182.745 381.501 183.015 381.393 183.34 381.393C183.65 381.393 183.913 381.501 184.129 381.717C184.361 381.934 184.477 382.205 184.477 382.529C184.477 382.839 184.361 383.102 184.129 383.318C183.913 383.535 183.65 383.643 183.34 383.643C183.015 383.643 182.745 383.535 182.528 383.318C182.312 383.102 182.203 382.839 182.203 382.529ZM184.199 397.75H182.459V386.01H184.199V397.75ZM188.647 387.588H186.002V386.01H188.647V381.81L190.387 381.277V386.01H193.96V387.588H190.387V393.759C190.387 394.625 190.573 395.244 190.944 395.615C191.315 395.987 191.926 396.172 192.777 396.172H193.96V397.75H192.777C191.369 397.75 190.325 397.417 189.644 396.752C188.979 396.087 188.647 395.066 188.647 393.69V387.588ZM196.96 396.242C195.785 395.066 195.197 393.612 195.197 391.88C195.197 390.147 195.785 388.701 196.96 387.541C198.151 386.366 199.621 385.778 201.369 385.778C203.116 385.778 204.578 386.366 205.754 387.541C206.945 388.701 207.54 390.147 207.54 391.88C207.54 393.612 206.945 395.066 205.754 396.242C204.578 397.402 203.116 397.982 201.369 397.982C199.621 397.982 198.151 397.402 196.96 396.242ZM198.236 388.701C197.401 389.552 196.983 390.612 196.983 391.88C196.983 393.148 197.401 394.216 198.236 395.082C199.087 395.933 200.131 396.358 201.369 396.358C202.621 396.358 203.666 395.933 204.501 395.082C205.336 394.231 205.754 393.164 205.754 391.88C205.754 390.596 205.336 389.529 204.501 388.678C203.666 387.827 202.621 387.402 201.369 387.402C200.131 387.402 199.087 387.835 198.236 388.701ZM211.547 386.01V389.165C211.95 387.82 212.568 386.884 213.404 386.358C214.254 385.832 215.229 385.669 216.327 385.871V387.564C215.012 387.27 213.883 387.471 212.94 388.168C212.011 388.848 211.547 389.807 211.547 391.045V397.75H209.807V386.01H211.547ZM217.785 382.529C217.785 382.205 217.893 381.934 218.109 381.717C218.326 381.501 218.597 381.393 218.921 381.393C219.231 381.393 219.494 381.501 219.71 381.717C219.942 381.934 220.058 382.205 220.058 382.529C220.058 382.839 219.942 383.102 219.71 383.318C219.494 383.535 219.231 383.643 218.921 383.643C218.597 383.643 218.326 383.535 218.109 383.318C217.893 383.102 217.785 382.839 217.785 382.529ZM219.78 397.75H218.04V386.01H219.78V397.75ZM222.395 392.947V386.01H224.135V392.947C224.135 393.953 224.46 394.772 225.11 395.407C225.759 396.041 226.579 396.358 227.569 396.358C228.559 396.358 229.379 396.041 230.029 395.407C230.678 394.772 231.003 393.953 231.003 392.947V386.01H232.743V392.947C232.743 394.432 232.256 395.646 231.281 396.59C230.307 397.518 229.07 397.982 227.569 397.982C226.069 397.982 224.831 397.518 223.857 396.59C222.882 395.646 222.395 394.432 222.395 392.947ZM249.147 385.778C250.385 385.778 251.406 386.257 252.21 387.216C253.03 388.175 253.44 389.382 253.44 390.836V397.75H251.7V391.045C251.7 390.008 251.398 389.142 250.795 388.446C250.192 387.734 249.457 387.379 248.591 387.379C247.632 387.379 246.835 387.727 246.201 388.423C245.582 389.119 245.273 389.993 245.273 391.045V397.75H243.533V391.045C243.533 390.008 243.231 389.142 242.628 388.446C242.04 387.734 241.313 387.379 240.447 387.379C239.488 387.379 238.691 387.727 238.057 388.423C237.438 389.119 237.129 389.993 237.129 391.045V397.75H235.389V386.01H237.129V388.933C237.454 387.974 237.956 387.209 238.637 386.636C239.333 386.064 240.13 385.778 241.027 385.778C242.001 385.778 242.844 386.087 243.556 386.706C244.267 387.325 244.762 388.144 245.041 389.165C245.319 388.144 245.822 387.325 246.549 386.706C247.291 386.087 248.157 385.778 249.147 385.778Z" fill="#101840"/>
<path d="M84.2813 438.218H83.0748V427.39H87.1584C88.1793 427.39 89.0094 427.7 89.6488 428.319C90.2984 428.927 90.6232 429.695 90.6232 430.623C90.6232 431.541 90.2984 432.309 89.6488 432.928C89.0094 433.536 88.1793 433.841 87.1584 433.841H84.2813V438.218ZM84.2813 428.489V432.742H87.1584C87.808 432.742 88.3391 432.541 88.7516 432.139C89.1744 431.727 89.3858 431.216 89.3858 430.608C89.3858 429.999 89.1744 429.494 88.7516 429.092C88.3391 428.69 87.808 428.489 87.1584 428.489H84.2813ZM100.271 438.218H98.9714L97.8423 435.341H91.9644L90.8352 438.218H89.5823L93.867 427.39H95.9861L100.271 438.218ZM94.9033 427.793L92.382 434.243H97.4246L94.9033 427.793ZM108.727 427.39L104.612 434.459V437.12H106.731V438.218H101.302V437.12H103.406V434.459L99.3067 427.39H100.73L104.055 433.268L107.366 427.39H108.727ZM113.773 438.218H112.567V428.489H108.901V427.39H117.439V428.489H113.773V438.218ZM118.906 436.764C117.833 435.692 117.297 434.372 117.297 432.804C117.297 431.237 117.833 429.917 118.906 428.844C119.988 427.772 121.324 427.236 122.912 427.236C124.5 427.236 125.83 427.772 126.903 428.844C127.985 429.917 128.527 431.237 128.527 432.804C128.527 434.372 127.985 435.692 126.903 436.764C125.83 437.837 124.5 438.373 122.912 438.373C121.324 438.373 119.988 437.837 118.906 436.764ZM119.803 429.649C118.957 430.505 118.534 431.557 118.534 432.804C118.534 434.052 118.957 435.109 119.803 435.975C120.648 436.831 121.685 437.259 122.912 437.259C124.149 437.259 125.186 436.831 126.021 435.975C126.866 435.119 127.289 434.062 127.289 432.804C127.289 431.546 126.866 430.489 126.021 429.633C125.186 428.777 124.149 428.349 122.912 428.349C121.685 428.349 120.648 428.783 119.803 429.649ZM129.686 435.434L130.892 435.186C130.996 435.857 131.289 436.377 131.774 436.749C132.269 437.11 132.919 437.29 133.723 437.29C134.486 437.29 135.105 437.115 135.579 436.764C136.054 436.414 136.291 435.965 136.291 435.418C136.291 435.016 136.172 434.676 135.935 434.398C135.708 434.119 135.409 433.903 135.038 433.748C134.667 433.593 134.254 433.459 133.8 433.346C133.357 433.222 132.908 433.088 132.455 432.944C132.001 432.789 131.589 432.608 131.217 432.402C130.846 432.196 130.542 431.902 130.305 431.52C130.078 431.139 129.964 430.68 129.964 430.144C129.964 429.308 130.305 428.618 130.985 428.071C131.676 427.514 132.542 427.236 133.584 427.236C134.625 427.236 135.486 427.509 136.167 428.056C136.858 428.602 137.27 429.308 137.405 430.175L136.183 430.422C136.09 429.793 135.806 429.283 135.332 428.891C134.868 428.499 134.28 428.303 133.568 428.303C132.878 428.303 132.31 428.473 131.867 428.814C131.424 429.154 131.202 429.582 131.202 430.097C131.202 430.489 131.315 430.819 131.542 431.087C131.779 431.345 132.084 431.546 132.455 431.691C132.826 431.825 133.238 431.954 133.692 432.077C134.146 432.191 134.594 432.325 135.038 432.479C135.492 432.624 135.904 432.804 136.275 433.021C136.647 433.237 136.946 433.547 137.173 433.949C137.41 434.341 137.528 434.82 137.528 435.387C137.528 436.254 137.162 436.97 136.43 437.538C135.698 438.094 134.785 438.373 133.692 438.373C132.589 438.373 131.676 438.11 130.954 437.584C130.232 437.058 129.81 436.341 129.686 435.434ZM140.295 436.764C139.223 435.692 138.686 434.372 138.686 432.804C138.686 431.237 139.223 429.917 140.295 428.844C141.378 427.772 142.713 427.236 144.301 427.236C145.889 427.236 147.22 427.772 148.292 428.844C149.375 429.917 149.916 431.237 149.916 432.804C149.916 434.372 149.375 435.692 148.292 436.764C147.22 437.837 145.889 438.373 144.301 438.373C142.713 438.373 141.378 437.837 140.295 436.764ZM141.192 429.649C140.347 430.505 139.924 431.557 139.924 432.804C139.924 434.052 140.347 435.109 141.192 435.975C142.038 436.831 143.074 437.259 144.301 437.259C145.539 437.259 146.575 436.831 147.41 435.975C148.256 435.119 148.679 434.062 148.679 432.804C148.679 431.546 148.256 430.489 147.41 429.633C146.575 428.777 145.539 428.349 144.301 428.349C143.074 428.349 142.038 428.783 141.192 429.649ZM161.285 437.831L163.868 427.39H165.106L162.399 438.218H160.141L157.712 427.762L155.268 438.218H153.041L150.334 427.39H151.556L154.17 437.801L156.598 427.39H158.841L161.285 437.831ZM175.011 438.218H173.805V428.489H170.139V427.39H178.677V428.489H175.011V438.218ZM186.251 438.218H179.584V427.39H186.251V428.489H180.791V432.263H186.097V433.346H180.791V437.12H186.251V438.218ZM188.814 436.764C187.742 435.692 187.206 434.372 187.206 432.804C187.206 431.237 187.742 429.917 188.814 428.844C189.897 427.772 191.232 427.236 192.82 427.236C193.965 427.236 194.976 427.535 195.852 428.133C196.729 428.721 197.368 429.463 197.77 430.36L196.672 430.824C196.332 430.092 195.816 429.499 195.125 429.046C194.445 428.581 193.676 428.349 192.82 428.349C191.593 428.349 190.557 428.783 189.711 429.649C188.866 430.505 188.443 431.557 188.443 432.804C188.443 434.052 188.866 435.109 189.711 435.975C190.557 436.831 191.593 437.259 192.82 437.259C193.676 437.259 194.445 437.032 195.125 436.579C195.816 436.114 196.332 435.516 196.672 434.784L197.77 435.248C197.368 436.145 196.729 436.893 195.852 437.491C194.976 438.079 193.965 438.373 192.82 438.373C191.232 438.373 189.897 437.837 188.814 436.764ZM200.413 438.218H199.207V427.39H200.413V432.263H207.049V427.39H208.255V438.218H207.049V433.346H200.413V438.218ZM217.927 437.971V427.39H219.134V438.218H216.767L211.199 427.653V438.218H209.992V427.39H212.359L217.927 437.971ZM222.167 436.764C221.095 435.692 220.559 434.372 220.559 432.804C220.559 431.237 221.095 429.917 222.167 428.844C223.25 427.772 224.586 427.236 226.174 427.236C227.762 427.236 229.092 427.772 230.164 428.844C231.247 429.917 231.789 431.237 231.789 432.804C231.789 434.372 231.247 435.692 230.164 436.764C229.092 437.837 227.762 438.373 226.174 438.373C224.586 438.373 223.25 437.837 222.167 436.764ZM223.064 429.649C222.219 430.505 221.796 431.557 221.796 432.804C221.796 434.052 222.219 435.109 223.064 435.975C223.91 436.831 224.946 437.259 226.174 437.259C227.411 437.259 228.447 436.831 229.283 435.975C230.128 435.119 230.551 434.062 230.551 432.804C230.551 431.546 230.128 430.489 229.283 429.633C228.447 428.777 227.411 428.349 226.174 428.349C224.946 428.349 223.91 428.783 223.064 429.649ZM239.891 438.218H233.224V427.39H234.431V437.12H239.891V438.218ZM241.457 436.764C240.385 435.692 239.849 434.372 239.849 432.804C239.849 431.237 240.385 429.917 241.457 428.844C242.54 427.772 243.875 427.236 245.463 427.236C247.051 427.236 248.382 427.772 249.454 428.844C250.537 429.917 251.078 431.237 251.078 432.804C251.078 434.372 250.537 435.692 249.454 436.764C248.382 437.837 247.051 438.373 245.463 438.373C243.875 438.373 242.54 437.837 241.457 436.764ZM242.354 429.649C241.509 430.505 241.086 431.557 241.086 432.804C241.086 434.052 241.509 435.109 242.354 435.975C243.2 436.831 244.236 437.259 245.463 437.259C246.701 437.259 247.737 436.831 248.573 435.975C249.418 435.119 249.841 434.062 249.841 432.804C249.841 431.546 249.418 430.489 248.573 429.633C247.737 428.777 246.701 428.349 245.463 428.349C244.236 428.349 243.2 428.783 242.354 429.649ZM256.863 432.371H263.174C263.257 433.506 263.051 434.537 262.556 435.465C262.071 436.393 261.395 437.11 260.529 437.615C259.673 438.12 258.735 438.373 257.714 438.373C256.126 438.373 254.791 437.837 253.708 436.764C252.635 435.692 252.099 434.372 252.099 432.804C252.099 431.237 252.635 429.917 253.708 428.844C254.791 427.772 256.126 427.236 257.714 427.236C258.859 427.236 259.869 427.535 260.746 428.133C261.622 428.721 262.262 429.463 262.664 430.36L261.566 430.824C261.225 430.092 260.71 429.499 260.019 429.046C259.338 428.581 258.57 428.349 257.714 428.349C256.487 428.349 255.451 428.783 254.605 429.649C253.759 430.505 253.337 431.557 253.337 432.804C253.337 434.052 253.759 435.109 254.605 435.975C255.451 436.831 256.487 437.259 257.714 437.259C258.859 437.259 259.818 436.893 260.591 436.161C261.365 435.418 261.792 434.521 261.875 433.469H256.863V432.371ZM265.971 438.218H264.765V427.39H265.971V438.218ZM274.377 438.218H267.71V427.39H274.377V428.489H268.917V432.263H274.223V433.346H268.917V437.12H274.377V438.218ZM275.44 435.434L276.646 435.186C276.749 435.857 277.043 436.377 277.528 436.749C278.023 437.11 278.673 437.29 279.477 437.29C280.24 437.29 280.859 437.115 281.333 436.764C281.808 436.414 282.045 435.965 282.045 435.418C282.045 435.016 281.926 434.676 281.689 434.398C281.462 434.119 281.163 433.903 280.792 433.748C280.421 433.593 280.008 433.459 279.554 433.346C279.111 433.222 278.662 433.088 278.209 432.944C277.755 432.789 277.342 432.608 276.971 432.402C276.6 432.196 276.296 431.902 276.059 431.52C275.832 431.139 275.718 430.68 275.718 430.144C275.718 429.308 276.059 428.618 276.739 428.071C277.43 427.514 278.296 427.236 279.338 427.236C280.379 427.236 281.24 427.509 281.921 428.056C282.612 428.602 283.024 429.308 283.158 430.175L281.936 430.422C281.844 429.793 281.56 429.283 281.086 428.891C280.622 428.499 280.034 428.303 279.322 428.303C278.631 428.303 278.064 428.473 277.621 428.814C277.177 429.154 276.956 429.582 276.956 430.097C276.956 430.489 277.069 430.819 277.296 431.087C277.533 431.345 277.837 431.546 278.209 431.691C278.58 431.825 278.992 431.954 279.446 432.077C279.9 432.191 280.348 432.325 280.792 432.479C281.246 432.624 281.658 432.804 282.029 433.021C282.4 433.237 282.7 433.547 282.926 433.949C283.164 434.341 283.282 434.82 283.282 435.387C283.282 436.254 282.916 436.97 282.184 437.538C281.452 438.094 280.539 438.373 279.446 438.373C278.343 438.373 277.43 438.11 276.708 437.584C275.986 437.058 275.564 436.341 275.44 435.434Z" fill="#101840"/>
<path d="M88.0865 453.257L85.0857 458.161C85.5394 457.769 86.0705 457.542 86.6789 457.48C87.2873 457.418 87.8545 457.501 88.3804 457.728C88.9166 457.944 89.3703 458.321 89.7416 458.857C90.1231 459.383 90.3139 459.996 90.3139 460.698C90.3139 461.708 89.9581 462.554 89.2466 463.234C88.5454 463.905 87.6431 464.24 86.5397 464.24C85.4363 464.24 84.5288 463.905 83.8173 463.234C83.116 462.564 82.7654 461.719 82.7654 460.698C82.7654 460.007 83.0026 459.28 83.477 458.517L86.6943 453.257H88.0865ZM84.7144 462.446C85.1991 462.899 85.8075 463.126 86.5397 463.126C87.2718 463.126 87.8751 462.899 88.3494 462.446C88.8341 461.981 89.0764 461.399 89.0764 460.698C89.0764 459.996 88.8341 459.414 88.3494 458.95C87.8751 458.486 87.2718 458.254 86.5397 458.254C85.8075 458.254 85.1991 458.486 84.7144 458.95C84.2401 459.414 84.0029 459.996 84.0029 460.698C84.0029 461.399 84.2401 461.981 84.7144 462.446ZM90.9152 453.257H98.2626V454.232L96.4528 458.13H98.2626V459.213H95.9423L93.6685 464.085H92.3383L94.643 459.213H90.9152V458.13H95.1535L96.9323 454.356H90.9152V453.257ZM104.464 458.532C105.278 458.718 105.928 459.063 106.413 459.568C106.897 460.063 107.14 460.636 107.14 461.285C107.14 462.131 106.769 462.837 106.026 463.405C105.284 463.961 104.33 464.24 103.165 464.24C101.989 464.24 101.03 463.961 100.287 463.405C99.545 462.837 99.1737 462.131 99.1737 461.285C99.1737 460.636 99.4161 460.063 99.9007 459.568C100.396 459.063 101.051 458.718 101.865 458.532C101.205 458.326 100.674 457.991 100.272 457.527C99.8698 457.063 99.6687 456.532 99.6687 455.933C99.6687 455.139 99.9987 454.469 100.659 453.923C101.329 453.376 102.164 453.103 103.165 453.103C104.154 453.103 104.985 453.376 105.655 453.923C106.325 454.469 106.66 455.139 106.66 455.933C106.66 456.532 106.459 457.063 106.057 457.527C105.655 457.991 105.124 458.326 104.464 458.532ZM101.525 454.758C101.092 455.119 100.875 455.573 100.875 456.119C100.875 456.666 101.092 457.119 101.525 457.48C101.958 457.841 102.505 458.022 103.165 458.022C103.814 458.022 104.356 457.841 104.789 457.48C105.232 457.119 105.454 456.666 105.454 456.119C105.454 455.573 105.232 455.119 104.789 454.758C104.356 454.387 103.814 454.201 103.165 454.201C102.505 454.201 101.958 454.387 101.525 454.758ZM103.165 463.142C103.969 463.142 104.629 462.951 105.144 462.569C105.67 462.188 105.933 461.703 105.933 461.115C105.933 460.517 105.67 460.027 105.144 459.646C104.629 459.254 103.969 459.058 103.165 459.058C102.36 459.058 101.695 459.254 101.169 459.646C100.643 460.027 100.38 460.517 100.38 461.115C100.38 461.703 100.638 462.188 101.154 462.569C101.68 462.951 102.35 463.142 103.165 463.142ZM109.059 454.124C109.77 453.443 110.678 453.103 111.781 453.103C112.884 453.103 113.787 453.438 114.488 454.108C115.2 454.778 115.555 455.624 115.555 456.645C115.555 457.336 115.318 458.063 114.844 458.826L111.611 464.085H110.234L113.266 459.151C112.812 459.553 112.276 459.79 111.657 459.862C111.049 459.924 110.477 459.847 109.94 459.63C109.404 459.403 108.945 459.027 108.564 458.501C108.192 457.965 108.007 457.346 108.007 456.645C108.007 455.634 108.357 454.794 109.059 454.124ZM109.956 458.393C110.441 458.857 111.049 459.089 111.781 459.089C112.513 459.089 113.117 458.857 113.591 458.393C114.076 457.929 114.318 457.346 114.318 456.645C114.318 455.944 114.076 455.366 113.591 454.913C113.117 454.449 112.513 454.216 111.781 454.216C111.049 454.216 110.441 454.449 109.956 454.913C109.482 455.366 109.244 455.944 109.244 456.645C109.244 457.346 109.482 457.929 109.956 458.393ZM117.812 462.647C116.998 461.584 116.59 460.259 116.59 458.671C116.59 457.083 116.998 455.758 117.812 454.696C118.627 453.634 119.653 453.103 120.891 453.103C122.138 453.103 123.164 453.634 123.969 454.696C124.783 455.748 125.191 457.073 125.191 458.671C125.191 460.27 124.783 461.6 123.969 462.662C123.164 463.714 122.138 464.24 120.891 464.24C119.653 464.24 118.627 463.709 117.812 462.647ZM118.694 455.485C118.117 456.33 117.828 457.393 117.828 458.671C117.828 459.95 118.117 461.012 118.694 461.858C119.272 462.703 120.004 463.126 120.891 463.126C121.777 463.126 122.51 462.703 123.087 461.858C123.665 461.012 123.953 459.95 123.953 458.671C123.953 457.393 123.665 456.33 123.087 455.485C122.51 454.639 121.777 454.216 120.891 454.216C120.004 454.216 119.272 454.639 118.694 455.485ZM130.53 453.103V462.987H133.392V464.085H125.983V462.987H129.324V454.479L125.983 455.361V454.278L130.53 453.103ZM139.788 459.445L136.122 462.987H141.768V464.085H134.389V463.111L138.999 458.609C139.824 457.784 140.236 456.985 140.236 456.212C140.236 455.614 140.035 455.134 139.633 454.773C139.241 454.402 138.72 454.216 138.071 454.216C137.297 454.216 136.699 454.443 136.276 454.897C135.854 455.351 135.642 455.964 135.642 456.738H134.42C134.42 455.645 134.745 454.768 135.395 454.108C136.055 453.438 136.957 453.103 138.102 453.103C139.112 453.103 139.927 453.386 140.546 453.954C141.164 454.51 141.474 455.258 141.474 456.196C141.474 457.289 140.912 458.372 139.788 459.445ZM149.817 454.232L146.801 457.666C147.852 457.717 148.677 458.042 149.275 458.64C149.874 459.238 150.173 460.002 150.173 460.93C150.173 461.889 149.832 462.683 149.152 463.312C148.471 463.93 147.559 464.24 146.414 464.24C145.3 464.24 144.413 463.951 143.753 463.374C143.104 462.786 142.743 461.987 142.671 460.976L143.908 460.837C143.96 461.538 144.202 462.095 144.635 462.507C145.068 462.92 145.661 463.126 146.414 463.126C147.198 463.126 147.811 462.915 148.255 462.492C148.708 462.069 148.935 461.528 148.935 460.868C148.935 460.208 148.703 459.672 148.239 459.259C147.785 458.836 147.105 458.625 146.197 458.625H145.501V457.635L148.363 454.356H143.15V453.257H149.817V454.232ZM157.994 453.257V460.481H159.556V461.564H157.994V464.085H156.787V461.564H150.987V460.481L155.766 453.257H157.994ZM156.787 453.66L152.317 460.481H156.787V453.66ZM164.953 457.357C165.84 457.357 166.598 457.645 167.227 458.223C167.866 458.8 168.186 459.625 168.186 460.698C168.186 461.719 167.825 462.564 167.103 463.234C166.382 463.905 165.464 464.24 164.35 464.24C163.288 464.24 162.427 463.961 161.767 463.405C161.117 462.837 160.751 462.085 160.669 461.146L161.906 461.007C161.958 461.636 162.2 462.146 162.633 462.538C163.066 462.93 163.638 463.126 164.35 463.126C165.103 463.126 165.722 462.899 166.206 462.446C166.701 461.981 166.949 461.399 166.949 460.698C166.949 459.955 166.722 459.362 166.268 458.919C165.814 458.475 165.206 458.254 164.443 458.254C163.443 458.254 162.685 458.625 162.169 459.367L161.024 459.197L161.751 453.257H167.351V454.356H162.726L162.184 458.718C162.783 457.81 163.706 457.357 164.953 457.357Z" fill="#8F95B2"/>
<path d="M177.097 460.682H173.632V459.646H177.097V460.682Z" fill="#8F95B2"/>
<path d="M193.497 463.698L196.081 453.257H197.318L194.611 464.085H192.353L189.924 453.629L187.48 464.085H185.253L182.546 453.257H183.768L186.382 463.668L188.811 453.257H191.053L193.497 463.698ZM201.144 456.104C202.35 456.104 203.34 456.532 204.114 457.387C204.897 458.233 205.243 459.28 205.15 460.527H198.267C198.349 461.311 198.664 461.956 199.21 462.461C199.767 462.956 200.443 463.203 201.237 463.203C201.845 463.203 202.386 463.054 202.861 462.755C203.335 462.456 203.696 462.049 203.944 461.533L204.933 461.951C204.604 462.641 204.114 463.198 203.464 463.621C202.814 464.034 202.067 464.24 201.221 464.24C200.056 464.24 199.076 463.853 198.282 463.08C197.498 462.296 197.107 461.327 197.107 460.172C197.107 459.017 197.493 458.053 198.267 457.279C199.04 456.495 199.999 456.104 201.144 456.104ZM201.144 457.14C200.432 457.14 199.814 457.367 199.288 457.821C198.762 458.274 198.432 458.857 198.298 459.568H203.974C203.861 458.867 203.541 458.29 203.015 457.836C202.5 457.372 201.876 457.14 201.144 457.14ZM215.788 456.104C216.613 456.104 217.293 456.423 217.83 457.063C218.376 457.702 218.649 458.506 218.649 459.476V464.085H217.489V459.615C217.489 458.924 217.288 458.346 216.886 457.882C216.484 457.408 215.994 457.171 215.417 457.171C214.777 457.171 214.246 457.403 213.823 457.867C213.411 458.331 213.205 458.914 213.205 459.615V464.085H212.045V459.615C212.045 458.924 211.844 458.346 211.441 457.882C211.049 457.408 210.565 457.171 209.987 457.171C209.348 457.171 208.817 457.403 208.394 457.867C207.982 458.331 207.775 458.914 207.775 459.615V464.085H206.615V456.258H207.775V458.207C207.992 457.568 208.327 457.057 208.781 456.676C209.245 456.294 209.776 456.104 210.374 456.104C211.024 456.104 211.586 456.31 212.06 456.722C212.534 457.135 212.864 457.681 213.05 458.362C213.236 457.681 213.571 457.135 214.055 456.722C214.55 456.31 215.128 456.104 215.788 456.104ZM223.487 456.104C224.374 456.104 225.096 456.341 225.653 456.815C226.209 457.279 226.488 457.934 226.488 458.78V464.085H225.328V461.951C224.802 463.477 223.781 464.24 222.265 464.24C221.554 464.24 220.971 464.044 220.517 463.652C220.074 463.26 219.852 462.739 219.852 462.09C219.852 461.389 220.105 460.847 220.61 460.466C221.126 460.084 221.791 459.852 222.605 459.77L224.353 459.568C225.003 459.507 225.328 459.208 225.328 458.671C225.328 458.187 225.158 457.805 224.817 457.527C224.477 457.248 224.028 457.109 223.472 457.109C222.915 457.109 222.435 457.248 222.033 457.527C221.631 457.805 221.358 458.233 221.213 458.811L220.084 458.501C220.27 457.728 220.667 457.135 221.275 456.722C221.894 456.31 222.631 456.104 223.487 456.104ZM222.559 463.265C223.353 463.265 224.013 463.002 224.539 462.476C225.065 461.94 225.328 461.316 225.328 460.605V459.955C225.183 460.265 224.833 460.45 224.276 460.512L222.59 460.698C222.116 460.759 221.734 460.904 221.445 461.131C221.156 461.347 221.012 461.646 221.012 462.028C221.012 462.399 221.151 462.698 221.43 462.925C221.718 463.152 222.095 463.265 222.559 463.265ZM237.052 456.104C238.115 456.104 238.996 456.495 239.697 457.279C240.409 458.053 240.765 459.017 240.765 460.172C240.765 461.337 240.409 462.306 239.697 463.08C238.996 463.853 238.115 464.24 237.052 464.24C236.279 464.24 235.593 464.018 234.995 463.575C234.407 463.121 233.985 462.523 233.727 461.78V464.085H232.567V452.639H233.727V458.578C233.985 457.826 234.407 457.228 234.995 456.784C235.593 456.33 236.279 456.104 237.052 456.104ZM236.728 463.157C237.532 463.157 238.207 462.873 238.754 462.306C239.3 461.729 239.574 461.017 239.574 460.172C239.574 459.326 239.3 458.62 238.754 458.053C238.207 457.475 237.532 457.186 236.728 457.186C235.861 457.186 235.145 457.47 234.578 458.037C234.01 458.604 233.727 459.316 233.727 460.172C233.727 461.028 234.01 461.739 234.578 462.306C235.145 462.873 235.861 463.157 236.728 463.157ZM245.36 456.104C246.247 456.104 246.969 456.341 247.525 456.815C248.082 457.279 248.361 457.934 248.361 458.78V464.085H247.201V461.951C246.675 463.477 245.654 464.24 244.138 464.24C243.426 464.24 242.844 464.044 242.39 463.652C241.947 463.26 241.725 462.739 241.725 462.09C241.725 461.389 241.978 460.847 242.483 460.466C242.998 460.084 243.664 459.852 244.478 459.77L246.226 459.568C246.876 459.507 247.201 459.208 247.201 458.671C247.201 458.187 247.03 457.805 246.69 457.527C246.35 457.248 245.901 457.109 245.344 457.109C244.788 457.109 244.308 457.248 243.906 457.527C243.504 457.805 243.23 458.233 243.086 458.811L241.957 458.501C242.143 457.728 242.54 457.135 243.148 456.722C243.767 456.31 244.504 456.104 245.36 456.104ZM244.432 463.265C245.226 463.265 245.886 463.002 246.412 462.476C246.938 461.94 247.201 461.316 247.201 460.605V459.955C247.056 460.265 246.706 460.45 246.149 460.512L244.463 460.698C243.988 460.759 243.607 460.904 243.318 461.131C243.029 461.347 242.885 461.646 242.885 462.028C242.885 462.399 243.024 462.698 243.303 462.925C243.591 463.152 243.968 463.265 244.432 463.265ZM254.097 456.104C255.014 456.104 255.767 456.423 256.355 457.063C256.953 457.702 257.252 458.506 257.252 459.476V464.085H256.092V459.615C256.092 458.924 255.865 458.346 255.411 457.882C254.958 457.408 254.396 457.171 253.725 457.171C252.993 457.171 252.39 457.403 251.916 457.867C251.441 458.331 251.204 458.914 251.204 459.615V464.085H250.044V456.258H251.204V458.269C251.421 457.609 251.787 457.083 252.302 456.691C252.818 456.3 253.416 456.104 254.097 456.104ZM262.344 459.491L266.057 464.085H264.556L261.556 460.342L260.086 461.904V464.085H258.926V452.639H260.086V460.388L263.891 456.258H265.376L262.344 459.491Z" fill="#8F95B2"/>
</svg>
